<?xml version="1.0" encoding="UTF-8"?>
<svg id="Layer_1" data-name="Layer 1" xmlns="http://www.w3.org/2000/svg" viewBox="0 0 123.21 142.29">
  <defs>
    <style>
      .cls-1 {
        fill: #fff;
      }

      .cls-2, .cls-3 {
        fill: none;
      }

      .cls-3 {
        stroke: #000;
        stroke-linecap: round;
        stroke-linejoin: round;
        stroke-width: 2px;
      }
    </style>
  </defs>
  <path class="cls-1" d="M121.46,85.35c-.16,.19-.34,.37-.54,.52-.03,5.34-.18,10.68-.44,16.02-.32,6.33-1.04,13.23-5.52,17.71-.34,.34-.69,.65-1.06,.94-1.69,2.53-3.79,4.75-6.34,6.4-5.28,3.42-12,4.03-18.21,2.99-.36-.06-.72-.13-1.08-.2-2.55,3.43-4.81,7.07-6.75,10.88-7.79-.02-15.7-.67-23.28-2.25-4.28-.89-8.49-2.88-12.47-4.64-4.13-1.84-8.18-3.87-12.17-5.99-3.57-1.89-7.14-3.87-10.13-6.59-.93-.84-1.8-1.77-2.58-2.75,4.29-4.46,7.17-10.28,8.09-16.41,.23-1.55,.34-3.13,.32-4.7-.34,.53-.78,.98-1.31,1.27-.27,.15-.55,.26-.87,.32-1.62,.34-3.19-.69-4.51-1.71C12.79,89.55,2.77,78.57,.22,66.08c-.74-3.62,.59-6.49,.89-9.92,.34-3.91-.5-8.02-.21-11.99,.44-6.05,1.7-12.04,3.76-17.75,.94-2.59,1.75-4.55,3.7-6.44,5.93-5.77,11.05-12.02,18.68-15.42,7.72-3.44,18.86-2.62,27.18-2.85,10.87-.29,21.73-.59,32.59-.88,6.27-.18,15.85-2.07,21.75,.56,5.4,2.42,7.81,11.4,8.79,16.91,.63,3.52,.64,7.53-1.74,10.19-1.82,2.03-4.69,2.76-7.44,2.51,4.63,4.39,7.78,10.32,9.62,16.49,2.19,7.33,2.69,15.06,2.94,22.71,.12,3.62,.19,7.24,.2,10.86h0c.6,.61,1.14,1.28,1.26,2.09,.11,.79-.21,1.6-.73,2.2Z"/>
  <g>
    <g>
      <path class="cls-3" d="M91.22,125.96c-1.02,1.23-2.01,2.48-2.95,3.77-2.55,3.43-4.81,7.07-6.75,10.88-.12,.22-.24,.45-.35,.68"/>
      <path d="M100.86,97.28c3.67,1.33,7.3,1.8,11.19,1.94,.55,.01,.65,.84,.13,.99-1.96,.65-4.09,.67-6.12,.3-2.03-.37-4-1.14-5.66-2.34-.23-.16-.28-.48-.11-.71,.13-.18,.37-.25,.58-.18h0Z"/>
      <path d="M91.03,51c3.94-1.02,8.42-.26,11.73,2.12,.45,.33,.55,.96,.22,1.41-.28,.38-.76,.5-1.18,.34-1.71-.63-3.4-1.16-5.15-1.48-1.75-.33-3.53-.43-5.35-.42-1.16,.02-1.39-1.69-.27-1.98h0Z"/>
      <path d="M112.83,55.15c1.52-.59,3.17-.85,4.8-.83,.54,.01,1.11-.05,1.6,.42,.6,.55,.49,1.56-.2,1.99-.52,.37-.97,.25-1.45,.24-1.45-.04-2.86,.02-4.32,.13-1.13,.09-1.49-1.55-.44-1.95h0Z"/>
      <path class="cls-3" d="M111.5,88.03c2.73,.41,5.58-.04,8.04-1.28,.48-.25,.96-.52,1.38-.88,.2-.15,.38-.33,.54-.52,.52-.6,.84-1.41,.73-2.2-.12-.81-.66-1.48-1.26-2.08h0c-.1-.12-.21-.22-.31-.32-2.3-2.25-4.59-4.49-6.89-6.74"/>
      <path d="M121.31,85.87c.13,3.36,.15,6.72,.16,10.08-.14,8.31,.43,18.11-5.93,24.54-3.83,3.74-9.35,5.07-14.38,5.8-10.11,1.49-20.52,.84-30.34-1.97,0,0,.27,.04,.27,.04h-.02c-.09,0-.19-.01-.28-.04,0,0-1.25-.37-1.25-.37-.53-.16-.83-.71-.68-1.24,.15-.53,.7-.83,1.23-.68,0,0,1.25,.35,1.26,.35,0,0-.28-.04-.28-.04,.1,0,.2,0,.29,.04,9.57,2.58,19.68,3.14,29.48,1.72,6.25-.87,13.1-2.78,15.97-8.88,2.84-5.88,2.61-12.85,3-19.32,.2-3.34,.4-6.69,.71-10.03,.01-.22,.21-.39,.43-.37,.2,.02,.35,.18,.36,.38h0Z"/>
      <path d="M35.43,86.35c-9.87,5.32-20.9-3.59-19.57-14.26,1.09-10.52,12.2-17.67,21.82-12.21,6.45,3.59,10.46,10.19,12.15,17.16,.23,.91,.32,2.31,.64,3.04,.29,.53,1.42,.86,2.06,.94,1.58,.2,3.29-1.38,3.98-3.13,.7-1.82,.59-4.03,.37-6.28-.7-7.64-.59-14.96,1.82-22.21,1.42-3.82,4.27-11.52,5.69-15.33,.45-1.19,1.7-4.53,2.13-5.69,.85-2.67,1.35-7.07,4.96-7.18,22.97-1.44,40.65,2.61,47.61,27.17,2.64,10.65,3.14,21.83,2.16,32.71-.08,.37-.58,.39-.64,0-1.49-10.68-.41-21.75-3.47-32.18-6.7-23.46-23.51-26.86-45.38-25.48-.56,.06-1.05,.24-1.2,.42-1.05,1.4-1.28,3.53-1.87,5.24-.46,1.31-1.65,4.44-2.14,5.79-1.41,3.82-4.25,11.47-5.66,15.29-2.28,6.9-2.39,13.87-1.71,21.24,.2,2.28,.42,4.81-.53,7.34-1.05,2.52-3.34,4.82-6.34,4.57-3.95-.58-4.18-2.37-4.72-5.76-1.47-6.27-5.32-12.52-10.98-15.66-8.2-4.78-17.68,1.52-18.63,10.45-1.18,9.03,8.06,16.74,16.47,12.28,1.17-.63,2.11,1.09,.98,1.74h0Z"/>
      <path d="M20.1,118.34c-.06-.54,.29-.68,.5-.97,.24-.26,.47-.52,.7-.79,6.87-7.99,8.84-19.68,5.1-29.51-.44-1.22,1.38-1.93,1.87-.71,4.32,10.82,1.73,23.84-6.34,32.23-.27,.24-.42,.63-.98,.6-.46-.02-.82-.4-.85-.85h0Z"/>
      <ellipse cx="96.73" cy="67.41" rx="2.03" ry="3.18"/>
      <ellipse cx="116.1" cy="67.41" rx="1.63" ry="2.56"/>
    </g>
    <path d="M119.76,92.66c-.36-.7-.93-1.29-1.87-1.74-2.11-1-4.61-.73-6.88-.86-4.21-.23-8.44,0-12.6,.7-3.14,.53-6.25,1.32-9.26,2.38-2.72,.95-4.57,2.98-5.67,5.67-.36,.89-.61,1.83-.74,2.78-.08,.51-.09,.97-.06,1.48,.02,.21,0,2.64,.02,2.64-.11,0-.17-.07-.27-.13-3.71-1.83-7.12-4.22-10.13-7.05-2.86-2.68-5.88-5.88-7.59-9.4-1.27-2.62-2.3-5.34-3.09-8.14-.8-2.83-1.07-5.67-1.62-8.54-.91-4.7-2.07-9.78-1.96-14.69v-.03c.02-1.02,.1-2.04,.25-3.05,.69-4.71,2.77-8.35-1.31-12.46-2.45-2.47-5.99-3.62-9.46-3.84-3.47-.23-6.94,.39-10.37,1.01-1.02-2.01,.71-4.51,2.84-5.23,2.13-.73,4.45-.26,6.68,.03,7.08,.91,13.62-.35,19.98-2.89,1.42-.56,2.83-1.19,4.23-1.87,7.49-3.64,14.27-4.44,22.63-3.31,4.91,.67,7.96,3.27,12.65,4.53,.65,.17,1.32,.29,2.01,.35,2.75,.25,5.62-.48,7.44-2.51,2.38-2.66,2.37-6.67,1.74-10.19-.98-5.51-3.39-14.49-8.79-16.91-5.9-2.63-15.48-.74-21.75-.56-10.86,.29-21.72,.59-32.59,.88-8.32,.23-19.46-.59-27.18,2.85-7.63,3.4-12.75,9.65-18.68,15.42-1.95,1.89-2.76,3.85-3.7,6.44-2.06,5.71-3.32,11.7-3.76,17.75-.29,3.97,.55,8.08,.21,11.99-.3,3.43-1.63,6.3-.89,9.92,2.55,12.49,12.57,23.47,22.39,31.08,1.32,1.02,2.89,2.05,4.51,1.71,.32-.06,.6-.17,.87-.32,.53-.29,.97-.74,1.31-1.27,.59-.89,.93-2.02,1.02-3.09,.22-2.57-.51-5.2-1.95-7.34-.79-1.17-1.78-2.19-2.95-2.99-2.91-1.98-5.46-1.38-7.29-4.7-.3-.54-.56-1.1-.78-1.68-.75-1.92-1.06-4.01-.88-6.07,.35-3.77,2.4-6.91,5.36-8.8,1.31-.86,2.81-1.46,4.42-1.76,4.74-.89,9.76,.72,13.55,3.71,1.26,.99,2.39,2.14,3.37,3.41,.9,1.16,2.04,2.58,2.47,3.99,3.92,12.89,8.78,25.68,14.88,37.72,1.79,3.54,3.73,7.06,6.33,10.08,1.33,1.56,2.71,2.67,4.22,3.59h.02c1.65,1.02,3.45,1.78,5.48,2.62,3.79,1.56,7.68,2.97,11.7,3.76,.36,.07,.72,.14,1.08,.2,6.21,1.04,12.93,.43,18.21-2.99,2.55-1.65,4.65-3.87,6.34-6.4,1.07-1.59,1.97-3.29,2.72-5.04,2.42-5.69,3.9-11.9,3.75-18.11-.04-1.74,.07-3.42-.61-4.73Zm-5.47,10c-.69,.53-1.53,.81-2.36,1.04-6.94,1.83-14.78-.27-19.86-5.33-.35-.35-.72-.8-.6-1.28,.14-.56,.82-.75,1.38-.84,6.58-1.02,14.18-2,20.24,1.36,1.12,.63,2.29,1.55,2.35,2.84,.04,.86-.47,1.68-1.15,2.21Z"/>
  </g>
  <path class="cls-2" d="M20.89,118.39c.78,.98,1.65,1.91,2.58,2.75,2.99,2.72,6.56,4.7,10.13,6.59,3.99,2.12,8.04,4.15,12.17,5.99,3.98,1.76,8.19,3.75,12.47,4.64,7.58,1.58,15.49,2.23,23.28,2.25"/>
</svg>