<?xml version="1.0" encoding="UTF-8"?>
<svg id="Layer_1" data-name="Layer 1" xmlns="http://www.w3.org/2000/svg" viewBox="0 0 121.63 122.65">
  <defs>
    <style>
      .cls-1 {
        fill: #fff;
      }

      .cls-2 {
        stroke: #fff;
      }

      .cls-2, .cls-3, .cls-4 {
        fill: none;
      }

      .cls-2, .cls-4 {
        stroke-linecap: round;
        stroke-linejoin: round;
      }

      .cls-4 {
        stroke: #000;
        stroke-width: 2px;
      }
    </style>
  </defs>
  <path class="cls-1" d="M115.11,76.44c-1.42,1.36-2.63,3.2-2.54,5.21,.09,2.01,2,3.95,3.85,3.37,.16-.05,.45-.1,.61-.16-.15,.63-.46,1.06-1,1.37-2.6,1.49-6.08-.14-7.6-2.8-.63-1.1-1-2.3-1.19-3.55-.96,7.6-2.85,15.09-5.59,22.24-1.45,3.79-3.23,7.6-6.27,10.3-4.06,3.61-9.9,4.7-15.29,4-.67-.09-1.34-.2-2-.34-1.75,1.69-3.64,3.36-5.42,5.06-12.06-3.28-24.05-7.02-36.1-10.35,4.28-6.19,4.95-14.68,1.86-21.53-.08,.01-.15,.01-.22,.01-1.05,0-2.1-.08-3.13-.25-2.03-.31-4.02-.96-5.8-1.99-3.43-1.97-6.07-5.47-6.5-9.4-.01-.1-.02-.2-.03-.3-.69,3.44,1.17,7.24,4,9.3,3.16,2.29,7.2,2.81,11.05,2.68,1.94,5.88,.14,12.9-4.35,16.99-.65-3.49-1.3-6.98-1.96-10.47-2.14,.38-4.27,.76-6.41,1.15h-.01c-.08,.01-.16,.03-.24,.04,5.07,6.3,3.17,17.18-3.62,21.38-6.79,4.19-16.71,.84-20.01-6.63-3.31-7.47,.53-17.39,7.82-20.54,1.57-.67,3.4-1.21,4.57-2.37,.38-.37,.69-.81,.9-1.34,.84-2.11-.31-3.88-1.43-5.49-1.31-1.88-1.88-3.42-2.45-5.76-1.31-5.43-2.21-10.97-2.67-16.55-1.43-17.14,3.48-36.78,17.4-47.07C35.73,4.96,50.24-.13,63.01,0c9.13,.09,18.76,4.03,23.44,12.21,1.31,2.29,2.47,5.1,4.91,5.9,1.94,.64,4-.26,6.02-.54,3.17-.45,6.51,.7,8.8,3.04,2.63,2.7,3.59,7.16,4.66,10.7,1.35,4.45,1.33,9.67,.7,14.24-.59,4.24-3.43,9.5-.56,13.47,1.37,1.88,3.68,2.64,5.77,3.54,2.09,.91,4.3,2.32,4.79,4.63,.41,1.96-.61,3.98-1.96,5.42s-3.04,2.48-4.47,3.83Z"/>
  <g>
    <g>
      <g>
        <path d="M42.93,92.35c-.77-.73-1.49-1.79-2.27-2.42-.67-.11-1.33,.11-2.23,.2-9.97,.86-20.45-8.68-15.4-18.81,5.56-9.84,18.03-4.64,21.4,4.2,1.2,2.68,1.88,5.51,2.4,8.3l-2.06,.2c-.37-20.33,12.52-41.02,31.98-47.84,8.36-3.22,16.81-1.25,23.14,5.01,9.06,8.9,9.77,22.78,8.8,34.58-.7,8.04-2.31,16.02-4.93,23.67-1.95,5.63-4.37,12.16-9.88,15.46-8.84,5.4-21.43,2.33-29.17-3.72-.27-.23-.02-.66,.3-.57,3.96,1.01,7.39,2.94,11.17,3.91,3.68,1.02,7.6,1.34,11.34,.52,8.37-1.53,11.75-8.89,14.24-16.29,2.6-7.47,4.3-15.25,4.95-23.14,.61-7.79,.54-15.88-2.14-23.26-3.04-8.89-11.74-16.65-21.51-15.54-21.48,3.61-36.59,26.1-36.19,47.18,0,.57-.45,1.04-1.02,1.05-.51,0-.94-.36-1.03-.85-.5-2.71-1.15-5.39-2.24-7.84-2.21-5.83-9.55-10.88-15.33-6.93-5.66,4.31-3.86,12.67,1.73,16.22,2.66,1.84,6.12,2.64,9.36,2.75,.8,0,2.03-.27,2.98,.2,.3,.16,.48,.36,.62,.53,.63,.97,1.16,1.77,1.73,2.73,.28,.45-.4,.91-.72,.48h0Z"/>
        <path class="cls-4" d="M72.13,121.65c.18-.17,.36-.35,.54-.51,1.78-1.7,3.67-3.37,5.42-5.06h.01"/>
        <path class="cls-4" d="M36.24,111.27c.11-.16,.23-.32,.33-.48,4.28-6.19,4.95-14.68,1.86-21.53"/>
        <path d="M73.32,65.28c3.62-2.35,8.43-2.75,12.51-1.33,1.36,.47,2.78,1.1,3.58,2.45,.25,.39-.14,.92-.59,.81-1.42-.26-2.45-.91-3.66-1.34-3.66-1.3-7.72-1.23-11.36,.29-.54,.25-.98-.57-.47-.88h0Z"/>
        <path d="M98.45,66.74c.38-1.95,2.2-3.2,3.88-3.99,1.78-.75,3.78-.85,5.56-.29,.26,.08,.41,.37,.33,.63-.07,.23-.3,.38-.54,.35-2.45-.28-4.85,.45-6.61,2.11-.57,.55-1.07,1.14-1.77,1.69-.36,.31-.94-.04-.85-.5h0Z"/>
        <path class="cls-4" d="M95.66,75.52c2.19,2.15,3.99,4.7,5.29,7.48,.72,1.55,1.28,3.39,.56,4.94-.58,1.25-1.9,2.03-3.25,2.32s-2.75,.14-4.12,0"/>
        <path d="M79.51,94.77c4.08,4.2,10.13,5.33,15.45,2.86,.51-.26,.98,.49,.54,.84-4.93,4.34-13.75,2.7-16.79-3.11-.29-.5,.42-1.01,.81-.59h0Z"/>
      </g>
      <ellipse cx="83.55" cy="72.95" rx="2.03" ry="3.18"/>
      <ellipse cx="101.84" cy="73.76" rx="1.39" ry="2.17"/>
    </g>
    <g>
      <path d="M115.11,76.44c-1.42,1.36-2.63,3.2-2.54,5.21,.09,2.01,2,3.95,3.85,3.37,.16-.05,.45-.1,.61-.16-.15,.63-.46,1.06-1,1.37-2.6,1.49-6.08-.14-7.6-2.8-.63-1.1-1-2.3-1.19-3.55-.27-1.79-.16-3.68,.09-5.49,.18-1.27,.42-2.54,.64-3.81,.32-1.79,.59-3.59,.55-5.4-.04-2.12-.47-4.13-1.19-6.04-2.33-6.2-7.73-11.3-12.81-15.73-2.65-2.32-6.1-4.78-9.29-3.38-1.75,.76-2.88,2.52-3.91,4.18-4.36,7.04-8.72,14.08-13.08,21.12-2.5,4.03-5.03,8.15-6.09,12.82-1.06,4.66-.38,10.04,2.89,13.42-6.7-2.27-10.5-11.13-7.65-17.85,.75-1.78,1.89-3.42,2.14-5.35,.25-1.92-.91-4.26-2.77-4.23-1.74,.03-2.8,1.98-3.49,3.65-2.52,6.14-5.04,12.27-7.57,18.4-2.21-4.96-4.65-10.2-9.11-13.09-4.46-2.88-11.53-2.02-13.5,3.05-.15,.39-.26,.78-.34,1.18-.69,3.44,1.17,7.24,4,9.3,3.16,2.29,7.2,2.81,11.05,2.68,1.94,5.88,.14,12.9-4.35,16.99-.65-3.49-1.3-6.98-1.96-10.47-2.14,.38-4.27,.76-6.41,1.15h-.01c-.08,.01-.16,.03-.24,.04,5.07,6.3,3.17,17.18-3.62,21.38-6.79,4.19-16.71,.84-20.01-6.63-3.31-7.47,.53-17.39,7.82-20.54,1.57-.67,3.4-1.21,4.57-2.37,.38-.37,.69-.81,.9-1.34,.84-2.11-.31-3.88-1.43-5.49-1.31-1.88-1.88-3.42-2.45-5.76-1.31-5.43-2.21-10.97-2.67-16.55-1.43-17.14,3.48-36.78,17.4-47.07C35.73,4.96,50.24-.13,63.01,0c9.13,.09,18.76,4.03,23.44,12.21,1.31,2.29,2.47,5.1,4.91,5.9,1.94,.64,4-.26,6.02-.54,3.17-.45,6.51,.7,8.8,3.04,2.63,2.7,3.59,7.16,4.66,10.7,1.35,4.45,1.33,9.67,.7,14.24-.59,4.24-3.43,9.5-.56,13.47,1.37,1.88,3.68,2.64,5.77,3.54,2.09,.91,4.3,2.32,4.79,4.63,.41,1.96-.61,3.98-1.96,5.42s-3.04,2.48-4.47,3.83Z"/>
      <path class="cls-2" d="M13.47,88.78s.08,.06,.12,.08c3.74,2.65,7.49,5.3,11.23,7.94,.09,.06,.16,.12,.25,.18h.01"/>
    </g>
  </g>
  <path class="cls-3" d="M72.67,121.14c-12.06-3.28-24.05-7.02-36.1-10.35"/>
</svg>