<?xml version="1.0" encoding="UTF-8"?>
<svg id="Layer_1" data-name="Layer 1" xmlns="http://www.w3.org/2000/svg" viewBox="0 0 118.03 156.1">
  <defs>
    <style>
      .cls-1, .cls-2 {
        fill: #fff;
      }

      .cls-2 {
        stroke-width: 1.92px;
      }

      .cls-2, .cls-3, .cls-4 {
        stroke: #000;
        stroke-linecap: round;
        stroke-linejoin: round;
      }

      .cls-5, .cls-3, .cls-4 {
        fill: none;
      }

      .cls-3 {
        stroke-width: 1.72px;
      }

      .cls-4 {
        stroke-width: 2px;
      }
    </style>
  </defs>
  <path class="cls-1" d="M114.1,131.18c1.83,7.55-.02,14.19-5.75,19.37-.58,.53-1.32,1.09-2.06,.86-.54-.17-.88-.73-.98-1.28-.09-.56,.02-1.12,.1-1.68,.14-.95,.2-1.9,.19-2.84-.04-5.47-2.23-10.55-5.33-14.96-1.62-2.3-3.48-4.43-5.42-6.47-1.73-1.8-4.39-3.34-5.66-5.48-.39-.66-.62-1.46-.6-2.23-1.58,2.18-2.71,4.69-3.25,7.33-.95,4.75,.02,9.85,2.6,13.93-6.69,1.44-13.62,1.79-20.43,1.06,2.6,5.52,3.8,12.04,.92,17.31,.35-.65-6.84-6.26-7.62-6.86-2.86-2.21-5.9-4.19-9.08-5.91-13.39-7.24-29.26-9.11-40.72-19.95C.68,113.59-2.87,97.29,2.47,84.09c1.8-4.47,4.53-8.62,5.47-13.35,1.07-5.36-.27-10.86-.61-16.32-1.03-16.29,7.67-32.82,21.68-41.19C43.46,4.6,60-2.05,76.62,.58c11.93,1.88,23.68,7.31,31.11,16.82,7.35,9.4,9.66,23.13,3.95,33.58,2.21,6.02,3.86,12.23,4.72,18.58,1.43,10.61,.62,21.62-3.16,31.64-1.81,4.78-4.56,9.58-9.14,11.84-1.64,.8-3.42,1.23-5.24,1.35,.82,.11,1.62,.28,2.41,.56,6.35,2.26,11.3,9.97,12.83,16.23Z"/>
  <g>
    <g>
      <path class="cls-4" d="M91.32,113.44c-.07,.06-.13,.12-.2,.19-.93,.85-1.78,1.81-2.53,2.84-1.58,2.18-2.71,4.69-3.25,7.33-.95,4.75,.02,9.85,2.6,13.93,.31,.49,.64,.97,1,1.43"/>
      <g>
        <path d="M55.11,107.63c-.87-1.5-1.94-2.98-2.45-4.62,0,0,.07,.34,.07,.34-2.53-5.04-5.48-12.66-7.82-17.88,0,0,.77,.6,.77,.6-4.64-.98-9.15-3.83-10.86-8.45-2.56-6.72,2.35-14.55,9.96-12.64,1.63,.41,3.21,1.4,4.17,2.9l-1.94,.5c.91-13.26,7.2-25.59,16.42-35,5.93-6.39,13.86-12.02,22.9-12.36,9.49,.09,16.27,8.08,20.15,15.83,2.05,3.85,3.84,7.79,5.42,11.85,0,0-.23-.35-.23-.35,.18,.17,.32,.5,.31,.74l-.08-.39s.22,.57,.22,.57c0,0-.97-.69-.97-.69,.44,0,.83,.28,.98,.67,2.2,5.77,3.92,11.77,4.93,17.89,2.28,13.3,1.06,34.67-9.21,44.54-7.46,6.6-17.68,2.83-25.19-1.58-.23-.13-.05-.47,.18-.37,6.32,2.58,13.4,5.55,20.12,2.78,4.05-1.79,6.61-5.56,8.39-9.56,4.79-11.05,5.7-23.64,3.72-35.48-.99-5.97-2.68-11.82-4.86-17.49,0,0,.96,.67,.96,.67-.84,.03-1.12-.88-1.24-1.55-.01,.24,.12,.55,.29,.7-1.8-3.99-3.43-8.13-5.57-11.96-3.63-7.19-9.74-14.58-18.31-14.67-8.45,.4-15.68,5.7-21.32,11.71-8.89,9.02-15.02,20.92-15.91,33.65,0,1.01-1.45,1.35-1.94,.5-1.28-2.04-4.31-2.71-6.69-1.88-3.81,1.19-5.1,6.23-3.73,9.77,1.42,3.88,5.35,6.29,9.26,7.14,.35,.07,.64,.29,.77,.6,0,0,3.83,8.98,3.83,8.98,1.25,3.12,2.84,6.17,3.78,9.39,0,0-.07-.34-.07-.34,.55,1.52,1.06,3.06,1.44,4.65,.12,.37-.46,.63-.65,.28h0Z"/>
        <path d="M88.18,91.17c3.53,3.3,8.52,5.71,13.29,3.78,1.52-.55,2.94-1.43,4.28-2.44,.47-.38,1.09,.33,.66,.75-5.7,5.99-13.94,4.74-18.95-1.4-.4-.46,.28-1.12,.72-.69h0Z"/>
        <path d="M68.28,53.15c5.24-4.44,13.4-5.36,19.5-2.19,.49,.25,.23,1.04-.31,.95-6.36-.94-12.69-.23-18.67,2.1-.51,.21-.93-.51-.51-.86h0Z"/>
        <path d="M100.62,49.96c2.37-1.44,5.27-2.01,8.04-1.77,.92,.09,1.91,.12,2.64,.95,.28,.31,.14,.84-.26,.97-.97,.38-1.72,.09-2.56,.02-.82-.08-1.65-.12-2.48-.08-1.66,.06-3.32,.33-4.96,.82-.55,.19-.91-.63-.41-.91h0Z"/>
        <path class="cls-4" d="M99.21,61.37c.88,4.25,3.1,8.21,6.26,11.18,.66,.61,.96,1.29,1.21,2.15,.19,.66-.12,2.27-.45,2.73-1.47,2.08-3.43,2.86-5.99,3.38"/>
      </g>
    </g>
    <g>
      <ellipse cx="84.53" cy="60.34" rx="2.03" ry="3.18"/>
      <ellipse cx="104.86" cy="60.3" rx="1.39" ry="2.19"/>
    </g>
    <g>
      <g>
        <path d="M111.68,50.98c-.06,.12-.13,.24-.2,.36-.11-.58-.24-1.16-.39-1.74-.04-.17-.08-.33-.13-.5,0,0,0-.01-.01-.02-1.14-4.34-3.14-8.6-5.76-12.46-4.11-6.05-9.74-11.13-16.05-14.1-.06,0-7.72,9.66-8.58,10.57-3.15,3.36-6.6,6.46-10.4,9.09-2.42,1.68-4.97,3.18-7.64,4.43-1.22,.57-2.81,.91-3.93,1.63-1.14,.73-1.34,1.57-1.94,2.88-2.66,5.83-5.33,11.66-7.99,17.5-.17-.21-.36-.41-.55-.6-.56-.54-1.2-.99-1.9-1.33-1.9-.92-4.18-1.08-6.14-.3-2.94,1.17-4.94,4.37-4.7,7.52,.23,3.05,2.27,5.65,4.57,7.65,1.05,.91,2.18,1.74,3.29,2.59,.13,.09,.25,.19,.38,.29,.44,.33,.87,.66,1.29,1.02,.63,.5,1.24,1.04,1.81,1.63,.1,.08,.2,.18,.29,.28,1.54,1.61,2.73,3.47,3.66,5.48,1.47,3.17,2.3,6.69,2.87,10.16v.03c.92,5.67,1.29,11.5,3.32,16.88,2.34,6.19,6.72,11.38,9.84,17.22,.29,.54,.57,1.09,.82,1.65,2.6,5.52,3.8,12.04,.92,17.31,.35-.65-6.84-6.26-7.62-6.86-2.86-2.21-5.9-4.19-9.08-5.91-13.39-7.24-29.26-9.11-40.72-19.95C.68,113.59-2.87,97.29,2.47,84.09c1.8-4.47,4.53-8.62,5.47-13.35,1.07-5.36-.27-10.86-.61-16.32-1.03-16.29,7.67-32.82,21.68-41.19C43.46,4.6,60-2.05,76.62,.58c11.93,1.88,23.68,7.31,31.11,16.82,7.35,9.4,9.66,23.13,3.95,33.58Z"/>
        <g>
          <path class="cls-1" d="M59,9.55c-1.33,5.19-6.1,8.73-10.45,11.37-4.38,2.64-8.73,5.01-12.4,8.56-7.49,6.84-12.38,15.93-14.68,25.86-.13-13.23,7.74-26.09,19.04-32.84,6.49-3.96,14.56-5.93,18.49-12.94h0Z"/>
          <path class="cls-1" d="M77.99,11.03c1.82,8.87-4.42,17.24-11.44,21.95-7.05,4.8-15.24,7.35-22.56,11.57-4.73,2.76-9.16,6.22-12.06,11.11,3.79-11.19,15.98-16.34,25.81-21.1,9.61-4.41,20.05-11.95,20.25-23.53h0Z"/>
          <path class="cls-1" d="M26.49,89.41c.03,7.76,1.15,14.96,3.43,22.37-6.11-5.32-7.66-15.46-3.43-22.37h0Z"/>
        </g>
      </g>
      <path d="M108.35,150.55c-.58,.53-1.32,1.09-2.06,.86-.54-.17-.88-.73-.98-1.28-.09-.56,.02-1.12,.1-1.68,.14-.95,.2-1.9,.19-2.84-.04-5.47-2.23-10.55-5.33-14.96-1.62-2.3-3.48-4.43-5.42-6.47-1.73-1.8-4.39-3.34-5.66-5.48-.39-.66-.62-1.46-.6-2.23,.02-.68,.22-1.33,.67-1.84,.47-.55,1.15-.87,1.86-1,.2-.04,.4-.07,.6-.07,.09-.01,.18-.01,.27-.01,1.48,.02,2.9,.55,4.39,.63,.83,.05,1.65,.1,2.47,.21h.01c.82,.11,1.62,.28,2.41,.56,6.35,2.26,11.3,9.97,12.83,16.23,1.83,7.55-.02,14.19-5.75,19.37Z"/>
    </g>
    <g>
      <path class="cls-3" d="M41.61,78.05c.99,.08,2,.21,2.92,.57s1.78,.99,2.25,1.87c.72,1.34,.37,3.14-.73,4.2s-2.82,1.37-4.26,.87-2.57-1.74-3.06-3.18"/>
      <g>
        <ellipse class="cls-2" cx="43.92" cy="89.96" rx="7.75" ry="5.84"/>
        <ellipse cx="43.92" cy="89.96" rx="3.42" ry="2.58"/>
      </g>
    </g>
  </g>
  <path class="cls-5" d="M67.51,138.79c6.81,.73,13.74,.38,20.43-1.06"/>
</svg>