<?xml version="1.0" encoding="UTF-8"?>
<svg id="Layer_1" data-name="Layer 1" xmlns="http://www.w3.org/2000/svg" viewBox="0 0 121.89 158.6">
  <defs>
    <style>
      .cls-1 {
        fill: #fff;
      }

      .cls-2, .cls-3, .cls-4 {
        fill: none;
      }

      .cls-2, .cls-4 {
        stroke: #000;
        stroke-linecap: round;
        stroke-linejoin: round;
      }

      .cls-4 {
        stroke-width: 2px;
      }
    </style>
  </defs>
  <path class="cls-1" d="M115.38,67.47c-.78,.35-1.58,.54-2.4,.57,.51,1.34,.97,2.69,1.39,4.06,.11,.37,.23,.75,.33,1.12,2.78,9.67,3.4,19.87,2.93,29.93-.44,9.33-1.92,18.9-6.81,26.86-1.22,1.98-2.64,3.82-4.23,5.51-.82,.87-1.69,1.7-2.6,2.49-1.09,.94-2.24,1.82-3.44,2.62-1.12,.76-2.28,1.44-3.48,2.06-.83,.44-1.67,.83-2.53,1.19-1.09,.46-2.19,.86-3.32,1.2-1.39,.43-2.8,.77-4.24,1.01-.27,.05-.54,.09-.81,.13-1.81,.26-3.65,.37-5.48,.32-2.47-.04-4.94-.35-7.35-.92-3.49,3.17-6.25,7.15-7.95,11.55-6.53,.2-13.1-.07-19.51-1.01-4.32-.63-8.65-2.36-12.72-3.89-4.24-1.58-8.4-3.37-12.51-5.24-2.32-1.05-4.64-2.15-6.83-3.45,8.29-9.5,11.95-22.8,10.04-35.24-1.69-1.92-3.04-4.13-3.82-6.57-1.22-3.85-.83-8.31,1.42-11.61-.12,.06-.24,.11-.37,.16-2.99,1.1-6.47-2.27-6.16-5.97-2.72,1.21-6.12-.52-7.26-3.68-1.15-3.17,.14-7.28,2.75-8.78-5.01-.86-9.34-5.81-10.24-11.72-.9-5.91,1.69-12.34,6.13-15.23-1.88-4.38-.97-10.19,2.11-13.48,3.07-3.29,8.04-3.76,11.52-1.09,.65-6.24,3.82-12.05,8.36-15.3,4.55-3.25,10.36-3.87,15.31-1.64C46.78,5.34,54.48,.84,61.98,.13c7.49-.71,14.91,1.71,22.16,4.11,5.45,1.81,10.99,3.66,15.82,7.18,4.82,3.52,8.93,9,9.95,15.61,2.59-.58,5.42,1.04,6.66,3.8,1.23,2.77,.77,6.46-1.08,8.68,2.61,.19,5.04,2.32,5.98,5.22,.93,2.9,.3,6.41-1.54,8.61,2.19,5.06-.08,12.1-4.55,14.13Z"/>
  <g>
    <g>
      <g>
        <g>
          <path d="M40.81,111.44c-.63,2.88-3.74,4.48-6.51,4.32-4.5-.37-8.14-3.46-11.11-6.58-4.82-5.09-6.79-13.46-2.62-19.62,.21-.31,.55-.47,.9-.47,0,0-.89,.48-.89,.48,3.08-4.67,10.04-6.57,14.78-3.26,2.4,1.69,3.89,4.3,6.14,6.01,2.74,2.17,5.75-.04,6.85-2.89,1.03-2.36,1.16-5.37,2.5-8.24,.68-1.45,1.73-2.73,2.9-3.73,4.1-3.62,10.5-4.88,12.71-10.28,1.6-4.2-2.62-6.9-4.85-9.99-3.58-4.33-1.18-10.15,3.61-12.31,2.74-1.36,5.74-1.64,8.63-2.17,4.19-.69,8.72-1.57,13.02-1.45,4.47,.02,9.23,1.46,12.56,4.66,7.73,6.77,13.03,16.02,16.02,25.78,3.39,11.14,3.93,22.92,3.12,34.46-.86,14.89-6.2,29.57-20.08,36.94-10.24,5.9-23.57,6.03-33.88,.21-2.56-1.43-4.94-3.21-6.95-5.31-.18-.18-.17-.48,.01-.65,.17-.16,.43-.17,.6-.03,4.43,3.47,9.55,5.96,15.01,7.25,16.45,4.36,34.68-5.91,39.92-22.03,1.9-5.26,2.76-10.89,3.17-16.54,1.19-16.73-.74-34.67-10.24-48.84-2.71-4.03-5.95-7.79-9.83-10.73-2.71-1.99-6.06-2.7-9.47-2.79-3.98-.13-8.58,.73-12.57,1.4-4.74,.69-11.79,1.72-12.07,7.52,.37,4.28,5.27,6.32,6.55,10.46,1.67,4.93-2.44,9.41-6.37,11.71-3.4,2.06-7.79,3.81-9.47,7.43-1.14,2.33-1.27,5.24-2.49,8.17-1.19,3-4.4,5.9-7.89,4.89-3.05-.85-4.86-3.8-6.91-5.85-3.52-4.12-10.4-2.91-13.21,1.39-.21,.29-.56,.49-.9,.48,0,0,.89-.47,.89-.47-1.69,2.49-2.24,5.73-1.75,8.77,.73,4.63,3.96,8.66,7.67,11.46,2.38,1.78,5.31,3.62,8.31,2.82,1.4-.37,2.7-1.29,3.21-2.66,.22-.62,1.15-.34,1.01,.28h0Z"/>
          <path class="cls-4" d="M13.6,143.83c.07-.08,.15-.16,.22-.25,8.29-9.5,11.95-22.8,10.04-35.24"/>
          <path class="cls-4" d="M73.34,145.62c-3.49,3.17-6.25,7.15-7.95,11.55-.06,.14-.12,.29-.17,.43"/>
          <path class="cls-4" d="M101.87,91.23c1.67,3.18,3.34,6.36,5.01,9.53,1.25,2.37,2.53,5.08,1.71,7.63-.67,2.11-2.68,3.57-4.81,4.18s-4.38,.51-6.59,.41"/>
          <path d="M81.36,76.27c4-2.94,10.2-2.6,13.9,.68,.43,.37-.04,1.08-.55,.84-4.16-1.84-8.58-2.01-12.9-.63-.53,.19-.92-.57-.46-.89h0Z"/>
          <path d="M104.77,77.32c2.04-2.31,4.88-3.95,7.89-4.69,1.06-.17,2.09-.72,3.12-.02,.29,.21,.36,.61,.15,.9-.41,.5-.96,.67-1.45,.71-3.28,.49-6.35,1.85-9.03,3.84-.46,.37-1.08-.3-.68-.73h0Z"/>
        </g>
        <path d="M89.59,124.22c4.12,1.8,7.9,2.8,12.29,1.22,.55-.17,.9,.64,.4,.92-1.98,1.23-4.47,1.88-6.82,1.49-2.39-.38-4.48-1.48-6.34-2.75-.49-.32-.06-1.12,.48-.88h0Z"/>
      </g>
      <ellipse cx="89.1" cy="88.51" rx="2.03" ry="3.18"/>
      <ellipse cx="108.84" cy="86.88" rx="1.39" ry="2.19"/>
    </g>
    <path d="M119.93,53.34c2.19,5.06-.08,12.1-4.55,14.13-.78,.35-1.58,.54-2.4,.57-3.9,.22-7.94-2.92-8.95-7.47-1.92,3.2-5.31,5.08-8.61,4.79-3.31-.3-6.42-2.76-7.92-6.26-2.33,2.95-5.83,4.54-9.23,4.19-4.21-.45-6.42-3.01-8.51-6.98-.83,1.63-2.05,3.3-3.42,4.69-.9,.92-1.86,1.72-2.81,2.29-1.71,1.04-3.61,1.63-5.53,1.64-4.86,.02-9.58-3.69-11.47-9.01-.58,3.69-1.17,7.44-2.55,10.82-1.38,3.38-3.66,6.42-6.67,7.6-2.76,1.09-6.14,.27-7.97-2.34,1.07,2.01,1.09,4.77-.02,6.77-1.25,2.25-3.83,3.33-5.99,2.5,1.3,1.82,1.24,4.59,.24,6.62-.49,1-1.21,1.82-2.1,2.27h-.01c-.12,.06-.24,.11-.37,.16-2.99,1.1-6.47-2.27-6.16-5.97-2.72,1.21-6.12-.52-7.26-3.68-1.15-3.17,.14-7.28,2.75-8.78-5.01-.86-9.34-5.81-10.24-11.72-.9-5.91,1.69-12.34,6.13-15.23-1.88-4.38-.97-10.19,2.11-13.48,3.07-3.29,8.04-3.76,11.52-1.09,.65-6.24,3.82-12.05,8.36-15.3,4.55-3.25,10.36-3.87,15.31-1.64C46.78,5.34,54.48,.84,61.98,.13c7.49-.71,14.91,1.71,22.16,4.11,5.45,1.81,10.99,3.66,15.82,7.18,4.82,3.52,8.93,9,9.95,15.61,2.59-.58,5.42,1.04,6.66,3.8,1.23,2.77,.77,6.46-1.08,8.68,2.61,.19,5.04,2.32,5.98,5.22,.93,2.9,.3,6.41-1.54,8.61Z"/>
    <g>
      <path d="M94.51,119.95c-3.11-.36-6.38,.31-9.24,1.88-.31,.18-.62-.3-.32-.51,2.73-1.98,6.13-3.18,9.65-3.21,.51-.01,.93,.4,.94,.91,0,.55-.48,.99-1.02,.92h0Z"/>
      <path d="M99.24,118.54c3.23,.74,6.06,2.62,8.05,5.06,.18,.22-.14,.52-.34,.32-2.24-2.08-5.1-3.4-7.99-3.64-1.25-.14-.94-2.01,.29-1.74h0Z"/>
      <g>
        <path class="cls-2" d="M84.51,141.37c-1.79,2.42-3.57,4.84-5.36,7.26"/>
        <path class="cls-2" d="M88.57,140.61l-1.6,5.5"/>
        <path class="cls-2" d="M91.28,142l-.06,3.28"/>
        <path class="cls-2" d="M94.27,141.55c.18,1.58,.37,3.16,.55,4.74"/>
        <path class="cls-2" d="M96.71,142.14c1.43,2.18,2.86,4.35,4.29,6.53"/>
        <path class="cls-2" d="M71.45,140.37l-1.64,2.92"/>
        <path class="cls-2" d="M78.26,142.56l-1.42,2.93"/>
        <path class="cls-2" d="M75.08,141.61l-1.58,2.22"/>
        <path class="cls-2" d="M99.88,139.35l2.14,4.08"/>
        <path class="cls-2" d="M103.82,137.82l1.92,2.05"/>
        <path class="cls-2" d="M106.37,135.23l2.53,3.27"/>
      </g>
    </g>
  </g>
  <path class="cls-3" d="M13.82,143.58c2.19,1.3,4.51,2.4,6.83,3.45,4.11,1.87,8.27,3.66,12.51,5.24,4.07,1.53,8.4,3.26,12.72,3.89,6.41,.94,12.98,1.21,19.51,1.01"/>
</svg>