<?xml version="1.0" encoding="UTF-8"?>
<svg id="Layer_1" data-name="Layer 1" xmlns="http://www.w3.org/2000/svg" viewBox="0 0 114.15 132.15">
  <defs>
    <style>
      .cls-1 {
        fill: #fff;
      }

      .cls-2, .cls-3, .cls-4, .cls-5 {
        fill: none;
      }

      .cls-3 {
        stroke-width: 2.13px;
      }

      .cls-3, .cls-4, .cls-5 {
        stroke: #000;
        stroke-linecap: round;
        stroke-linejoin: round;
      }

      .cls-4 {
        stroke-width: 1.94px;
      }

      .cls-5 {
        stroke-width: 2px;
      }
    </style>
  </defs>
  <path class="cls-1" d="M113.02,60.27c0,.76-.11,1.5-.31,2.2,.37,4.73,.39,9.49,.16,14.23-.26,5.44-.87,10.95-2.3,16.18,.53,1.28,.43,2.87,.47,4.51,.11,5-.74,9.99-2.26,14.73-1.23,3.86-2.92,7.45-6.77,9.27-2.56,1.21-5.43,1.58-8.24,1.84-7.61,.7-15.28,.66-22.88-.12-1.78-.18-3.57-.41-5.32-.79-2.17,2.62-3.91,5.6-5.09,8.79-5.79,.14-11.61-.1-17.3-.86-4.32-.58-8.67-2.26-12.77-3.74-4.25-1.53-8.43-3.26-12.57-5.09-2.97-1.3-5.94-2.67-8.64-4.46,5.2-6.02,8.56-13.55,9.82-21.4C10.58,88.06,2.4,77.72,.2,66.08c-.68-3.62,.55-6.49,.82-9.92,.31-3.91-.46-8.02-.19-11.99,.4-6.05,1.57-12.04,3.47-17.75,.86-2.59,1.61-4.55,3.41-6.44,5.47-5.77,10.2-12.02,17.23-15.42,7.13-3.44,17.4-2.62,25.08-2.85,10.02-.29,20.04-.59,30.06-.89,5.79-.17,14.63-2.06,20.07,.57,4.98,2.42,7.2,11.4,8.11,16.91,.58,3.52,.59,7.53-1.61,10.19-1,1.22-2.36,1.96-3.83,2.31,2.95,4.58,5.21,9.64,6.8,14.85,.11,.37,.22,.75,.33,1.12,.66,2.3,1.2,4.63,1.62,6.98,.84,.23,1.45,1,1.45,1.9v4.62Z"/>
  <g>
    <g>
      <g>
        <g>
          <path d="M36.06,84.99c-.64,2.84-3.67,4.45-6.41,4.32-7.09-.58-14.61-8.65-15.83-15.51-1.77-8.37,4.35-17.1,13.44-15.39,4.46,.72,6.58,5.42,9.82,7.67,1.14,.73,2.48,.88,3.62,.31,4.36-2.47,3.38-8.48,5.84-12.46,3.38-5.87,11.61-6.49,14.83-12.42,1.55-2.8,.29-5.42-1.82-7.61-4.5-4.42-6.7-9.37-1.12-14.19,2.97-2.32,6.63-2.75,9.77-3.28,7.31-1.22,15.43-3.08,22.5,.27,5.21,2.9,9.11,7.71,12.48,12.52,9.41,13.98,11.7,31.39,10.79,47.87-.61,17.43-6.39,33.92-23.57,41.23-12.31,5.44-28.08,2.98-37.51-6.77-.4-.42,.18-1.03,.62-.68,10.06,7.93,24.2,10.82,36.06,5.52,16.34-7,21.64-22.76,22.18-39.41,1.15-19.81-2.95-41.77-18.37-55.5-3.98-3.96-9.76-4.71-15.16-4.16-4.68,.48-9.73,1.33-14.35,2.33-4.05,.83-8.3,4.93-5.6,9.09,3.03,4.32,8.3,7.65,5.11,13.83-1.69,3.19-4.71,5.19-7.77,6.83-2.58,1.59-5.63,2.99-7.16,5.68-1.61,2.78-1.57,6.2-3.04,9.23-1.58,3.63-5.78,6.15-9.52,3.66-3.51-2.23-4.98-6.56-9.11-7.41-7.49-1.41-12.37,5.98-10.89,12.87,1.19,6,6.26,11.1,11.72,13.58,2.63,1.17,6.25,.54,7.41-2.29,.23-.62,1.15-.34,1.01,.29h0Z"/>
          <path class="cls-5" d="M8.84,117.38l.36-.42c5.2-6.02,8.56-13.55,9.82-21.4,.73-4.52,.77-9.15,.08-13.67"/>
          <path class="cls-5" d="M68.58,119.17c-1.07,.98-2.08,2.03-3.01,3.15-2.17,2.62-3.91,5.6-5.09,8.79-.01,0-.01,.03-.02,.04"/>
          <path class="cls-5" d="M97.12,64.78c1.67,3.18,3.34,6.36,5.01,9.53,1.25,2.37,2.53,5.08,1.71,7.63-.67,2.11-2.68,3.57-4.81,4.18s-4.38,.51-6.59,.41"/>
          <path d="M76.61,49.82c4-2.94,10.2-2.6,13.9,.68,.43,.37-.04,1.08-.55,.84-4.16-1.84-8.58-2.01-12.9-.63-.53,.19-.92-.57-.46-.89h0Z"/>
          <path d="M100.01,50.87c2.04-2.31,4.88-3.95,7.89-4.69,1.06-.17,2.09-.72,3.12-.02,.29,.21,.36,.61,.15,.9-.41,.5-.96,.67-1.45,.71-3.28,.49-6.35,1.85-9.03,3.84-.46,.37-1.08-.3-.68-.73h0Z"/>
        </g>
        <path d="M86.92,97.77c4.12,1.8,7.9,2.8,12.29,1.22,.55-.17,.9,.64,.4,.92-1.98,1.23-4.47,1.88-6.82,1.49-2.39-.38-4.48-1.48-6.34-2.75-.49-.32-.06-1.12,.48-.88h0Z"/>
      </g>
      <ellipse cx="84.35" cy="62.06" rx="2.03" ry="3.18"/>
      <ellipse cx="104.09" cy="60.42" rx="1.39" ry="2.19"/>
    </g>
    <g>
      <path class="cls-4" d="M78.97,54.21h13.01c2.06,0,3.74,1.68,3.74,3.74v2.06c0,5.46-4.43,9.9-9.9,9.9h-.7c-5.46,0-9.9-4.43-9.9-9.9v-2.06c0-2.06,1.68-3.74,3.74-3.74Z"/>
      <path class="cls-3" d="M113.02,55.65v4.62c0,.76-.11,1.5-.31,2.2-.95,3.26-3.96,5.63-7.52,5.63h-.12c-2.97,0-5.38-2.41-5.38-5.38v-5.9c0-1.74,1.42-3.15,3.16-3.15h8.18c.19,0,.37,.03,.54,.08,.84,.23,1.45,1,1.45,1.9Z"/>
      <line class="cls-4" x1="45.1" y1="49.62" x2="75.83" y2="55.92"/>
      <line class="cls-4" x1="95.72" y1="57.95" x2="99.7" y2="57.95"/>
    </g>
    <path d="M110.57,92.88c-.02-.08-.05-.16-.09-.23-.33-.69-.86-1.28-1.72-1.73-1.59-.82-3.31-.71-5.03-.82-1.62-.09-3.23-.37-4.88-.47-3.72-.21-7.46-.25-11.19-.11-2.55,.09-5.23,.31-7.36,1.72-2.21,1.45-3.5,4-4.01,6.59-.5,2.58,.18,5.22-.21,7.71-3.48-1.28-6.83-4.41-9.39-7.01-2.63-2.68-5.41-5.88-6.99-9.4-1.17-2.62-2.13-5.34-2.86-8.14-.73-2.83-.98-5.67-1.49-8.54-1.02-5.69-2.37-11.94-1.58-17.77,.15-1.11,.37-2.16,.57-3.17,.21-1.02,.39-2,.46-2.97,.15-2.12-.25-4.16-2.23-6.32-2.27-2.47-5.53-3.62-8.73-3.84-3.21-.23-6.41,.39-9.57,1.01-.94-2.01,.65-4.51,2.62-5.23,1.96-.73,4.11-.26,6.17,.03,5.78,.81,11.18-.09,16.43-2.08,1.98-.75,3.95-1.65,5.9-2.68,6.9-3.64,13.16-4.44,20.87-3.31,4.53,.67,7.35,3.27,11.67,4.53,1.58,.46,3.3,.54,4.89,.15,1.47-.35,2.83-1.09,3.83-2.31,2.2-2.66,2.19-6.67,1.61-10.19-.91-5.51-3.13-14.49-8.11-16.91-5.44-2.63-14.28-.74-20.07-.57-10.02,.3-20.04,.6-30.06,.89-7.68,.23-17.95-.59-25.08,2.85-7.03,3.4-11.76,9.65-17.23,15.42-1.8,1.89-2.55,3.85-3.41,6.44-1.9,5.71-3.07,11.7-3.47,17.75-.27,3.97,.5,8.08,.19,11.99-.27,3.43-1.5,6.3-.82,9.92,2.2,11.64,10.38,21.98,18.82,29.48,.61,.55,1.23,1.08,1.84,1.6,1.21,1.02,2.66,2.05,4.16,1.71,.29-.06,.55-.17,.8-.32,1.31-.79,2.01-2.66,2.15-4.36,.18-2.27-.33-4.58-1.37-6.56-.77-1.49-1.84-2.8-3.15-3.77-1.72-1.27-3.31-1.48-4.67-2.34-.76-.49-1.45-1.17-2.06-2.36-.46-.91-.83-1.88-1.09-2.88-.42-1.58-.57-3.24-.44-4.87,.38-4.45,4.11-10.17,8.85-11.1,5.25-1.02,10.65,6.07,13.12,9.73,5.09,7.54,8.86,15.97,11.08,24.8,1.27,5.04,2.04,10.26,4.07,15.09,1.83,4.36,3.31,8.2,7.8,10.52,1.72,.89,3.57,1.47,5.46,1.87,1.75,.38,3.54,.61,5.32,.79,7.6,.78,15.27,.82,22.88,.12,2.81-.26,5.68-.63,8.24-1.84,3.85-1.82,5.54-5.41,6.77-9.27,1.52-4.74,2.37-9.73,2.26-14.73-.04-1.64,.06-3.23-.47-4.51Zm-16.61,2.21c3.07-.15,8.19,.05,8.39,4.16,.04,.68-.09,1.35-.34,1.97-.41,1.02-1.15,1.92-2.05,2.56-1.46,1.03-3.28,1.43-5.06,1.45-3.59,.05-7.17-1.44-9.67-4.02-.76-.78-1.46-1.73-1.5-2.82-.13-3.1,8.02-3.19,10.23-3.3Z"/>
  </g>
  <path class="cls-2" d="M9.2,116.96c2.7,1.79,5.67,3.16,8.64,4.46,4.14,1.83,8.32,3.56,12.57,5.09,4.1,1.48,8.45,3.16,12.77,3.74,5.69,.76,11.51,1,17.3,.86"/>
</svg>