<?xml version="1.0" encoding="UTF-8"?>
<svg id="Layer_1" data-name="Layer 1" xmlns="http://www.w3.org/2000/svg" viewBox="0 0 117.01 183.12">
  <defs>
    <style>
      .cls-1 {
        fill: #fff;
      }

      .cls-2, .cls-3, .cls-4, .cls-5 {
        fill: none;
      }

      .cls-3 {
        stroke-width: 2.13px;
      }

      .cls-3, .cls-4, .cls-5 {
        stroke: #000;
        stroke-linecap: round;
        stroke-linejoin: round;
      }

      .cls-4 {
        stroke-width: 1.94px;
      }

      .cls-5 {
        stroke-width: 2px;
      }
    </style>
  </defs>
  <path class="cls-1" d="M112.62,158.83c-1.87,3.12-5.93,4.75-9.43,3.78-3.05-.85-5.36-3.33-7.16-5.93-1.8-2.6-3.29-5.45-5.54-7.67-2.01-1.99-4.55-3.39-6.44-5.48-1.64-1.8-2.72-4.03-3.77-6.22-1.95-4.05-3.93-8.22-4.29-12.71,.05,.61,6.86,.57,7.55,.54,2.31-.09,4.52-.89,6.77-1.06,3.88-.28,6.2,6.27,6.1,9.3-.08,2.71-1.19,5.6,.02,8.03,1.71,3.47,7.15,3.99,8.4,7.65,.58,1.69,.04,3.56,.33,5.33,.27,1.62,1.28,3.11,2.7,3.95,1.41,.84,3.2,1.03,4.76,.49Z"/>
  <g>
    <path class="cls-1" d="M116.82,58.94c-.25,2.63-.77,5.36-2.42,7.42-.99,1.25-2.52,2.16-4.08,2.39,.29,9.57-.64,19.19-2.8,28.53-1.43,6.17-3.44,12.33-7.14,17.48-3.71,5.14-9.32,9.18-15.62,9.81-2.97,.29-5.87-.16-8.68-1.06-2.08,4.61-3.34,9.59-3.65,14.65-5.45-.58-10.89-1.16-16.35-1.74-.07,.54-.07,1.08,.06,1.61,.5,1.96,2.62,2.93,4.27,4.1,4.53,3.23,6.12,9.95,3.52,14.87,3.91,.27,7.36,3.69,7.66,7.61,.14,1.91-.37,3.88,.15,5.72,.68,2.39,3.27,4.07,5.73,3.73,2.46-.33,4.5-2.65,4.51-5.14,1.53,4.3-.53,9.4-4.3,11.98-3.76,2.57-8.83,2.8-13.11,1.21-4.28-1.58-7.81-4.8-10.45-8.52-2.28-3.21-4.13-7-7.56-8.94-3.17-1.79-7.1-1.66-10.4-3.18-2.87-1.33-5.02-3.78-7.08-6.17-2.33-2.7-4.67-5.4-7-8.1-1.7-1.97-3.43-3.98-4.51-6.34-2.93-6.43-4.72-13.18-8.02-19.52-3.52-6.76-7.42-13.52-8.93-21.08-1.1-5.49-.82-11.38,1.58-16.44,1.81-3.8,5.48-5.41,7.42-8.69,2.52-4.26,2.01-9.53,.78-14.1-1.54-5.73-2.81-11.12-2.45-17.12C8.99,27,20.67,11.54,36.12,4.59c15.45-6.95,33.99-5.75,49.15,1.82,19.43,9.69,33.56,30.91,31.55,52.53Z"/>
    <g>
      <g>
        <path class="cls-4" d="M75.98,70.14h13.01c2.06,0,3.74,1.68,3.74,3.74v2.06c0,5.46-4.43,9.9-9.9,9.9h-.7c-5.46,0-9.9-4.43-9.9-9.9v-2.06c0-2.06,1.68-3.74,3.74-3.74Z"/>
        <path class="cls-3" d="M99.86,69.6h8.18c1.1,0,1.99,.89,1.99,1.99v4.62c0,4.32-3.51,7.83-7.83,7.83h-.12c-2.97,0-5.38-2.41-5.38-5.38v-5.9c0-1.74,1.41-3.16,3.16-3.16Z"/>
        <line class="cls-4" x1="42.11" y1="65.55" x2="72.84" y2="71.85"/>
        <line class="cls-4" x1="92.73" y1="73.88" x2="96.71" y2="73.88"/>
      </g>
      <g>
        <path d="M116.82,58.94c-.25,2.63-.77,5.36-2.42,7.42-.99,1.25-2.52,2.16-4.08,2.39-1.01,.16-2.04,.03-2.94-.47,.51-1.24,.91-2.52,1.22-3.82,.59-2.5,.82-5.1,.7-7.67-.14-2.7-.66-5.38-1.57-7.92,0-.01-.01-.02-.01-.03-.49-1.34-1.08-2.64-1.77-3.88-3.94-7.03-11.19-12.1-19.14-13.4-1.88,12.11-9.4,23.22-19.94,29.45-4.11,2.43-8.75,4.24-12.53,7.05-1.34,.98-2.57,2.09-3.63,3.4-3.74,4.61-4.73,10.99-3.92,16.87,.82,5.88,3.26,11.4,5.79,16.78-5.6-2.34-8.29-8.71-9.5-14.66-1.01-4.96-1.42-10.21-3.39-14.8-.39-.91-.83-1.79-1.36-2.64-.7-1.13-1.61-2.17-2.64-3.06-2.15-1.85-4.87-3.08-7.49-3.19-1.9-.1-3.74,.38-5.3,1.61-2.51,1.97-3.5,5.39-3.01,8.57h0c.13,.89,.37,1.75,.73,2.56,.24,.55,.52,1.02,.85,1.45,1.51,2.1,3.77,2.99,5.36,5.04,.25,.32,.39,.62,.46,.9,.09,.02,.17,.04,.26,.06,.39,.11,.78,.24,1.17,.39,1.59,.57,3.11,1.37,4.44,2.38,.63,.48,1.21,1,1.73,1.57,.21,.22,.41,.45,.59,.69,.44,.54,.82,1.13,1.14,1.75,1.76,3.39,1.62,7.4,2.2,11.17,.97,6.31,4.16,12.26,8.87,16.58,1.96,1.79,4.17,3.31,5.95,5.27,1.78,1.96,3.14,4.52,2.88,7.16-.09,.84-.33,1.68-.44,2.51-.07,.54-.07,1.08,.06,1.61,.5,1.96,2.62,2.93,4.27,4.1,4.53,3.23,6.12,9.95,3.52,14.87,3.91,.27,7.36,3.69,7.66,7.61,.14,1.91-.37,3.88,.15,5.72,.68,2.39,3.27,4.07,5.73,3.73,2.46-.33,4.5-2.65,4.51-5.14,1.53,4.3-.53,9.4-4.3,11.98-3.76,2.57-8.83,2.8-13.11,1.21-4.28-1.58-7.81-4.8-10.45-8.52-2.28-3.21-4.13-7-7.56-8.94-3.17-1.79-7.1-1.66-10.4-3.18-2.87-1.33-5.02-3.78-7.08-6.17-2.33-2.7-4.67-5.4-7-8.1-1.7-1.97-3.43-3.98-4.51-6.34-2.93-6.43-4.72-13.18-8.02-19.52-3.52-6.76-7.42-13.52-8.93-21.08-1.1-5.49-.82-11.38,1.58-16.44,1.81-3.8,5.48-5.41,7.42-8.69,2.52-4.26,2.01-9.53,.78-14.1-1.54-5.73-2.81-11.12-2.45-17.12C8.99,27,20.67,11.54,36.12,4.59c15.45-6.95,33.99-5.75,49.15,1.82,19.43,9.69,33.56,30.91,31.55,52.53Z"/>
        <path d="M112.62,158.83c-1.87,3.12-5.93,4.75-9.43,3.78-3.05-.85-5.36-3.33-7.16-5.93-1.8-2.6-3.29-5.45-5.54-7.67-2.01-1.99-4.55-3.39-6.44-5.48-1.64-1.8-2.72-4.03-3.77-6.22-1.95-4.05-3.93-8.22-4.29-12.71,.05,.61,6.86,.57,7.55,.54,2.31-.09,4.52-.89,6.77-1.06,3.88-.28,6.2,6.27,6.1,9.3-.08,2.71-1.19,5.6,.02,8.03,1.71,3.47,7.15,3.99,8.4,7.65,.58,1.69,.04,3.56,.33,5.33,.27,1.62,1.28,3.11,2.7,3.95,1.41,.84,3.2,1.03,4.76,.49Z"/>
      </g>
      <g>
        <path class="cls-1" d="M43,68.12c4.51-6.55,8.8-13.24,11.73-20.65,2.98-7.31,4.96-15.03,5.87-22.87,.15-1.21,1.99-1.03,1.87,.21-2.11,15.66-8.7,31.63-19.47,43.3h0Z"/>
        <path class="cls-1" d="M33.67,76.97c3.11-13.18,5.88-26.98,6.92-40.46,.12-1.22,1.95-1.09,1.87,.15-.58,6.88-1.59,13.72-3.04,20.47-1.45,6.74-3.19,13.43-5.75,19.83h0Z"/>
      </g>
      <g>
        <g>
          <path d="M37.85,92.2c-8.49-.02-16.78-6.27-18.99-15.24-1.73-6.1,2.32-12.31,10.04-11.15,5.95,.82,9.76,6.3,12.74,10.91,0,0-1.8,.07-1.8,.07,3.91-7.26,8.43-14.18,13.46-20.71,8.5-10.26,24.75-31.4,39.76-26.42,12.46,4.34,16.42,17.8,17.5,29.25,1.82,14.95,.61,30.24-3.71,44.7-1.38,4.45-3.31,8.81-6.19,12.64-8.37,10.98-20.56,12.41-32.02,5.1-1.99-1.23-3.86-2.6-5.62-4.11-.32-.27,.02-.76,.38-.6,6.24,2.72,11.97,6.42,18.77,6.75,6.61,.28,12.66-3.42,16.72-8.52,7.76-10.07,9.72-26.24,10.38-38.7,.24-5.64-.1-11.4-.76-17.01-.87-7.63-2.21-14.39-6.85-20.69-9.29-11.73-20.57-7.98-30.23,.99-5.97,5.48-11.49,11.51-16.47,17.93-4.97,6.43-9.44,13.26-13.3,20.41-.35,.7-1.4,.73-1.8,.07-2.78-4.23-6.01-9.21-11.28-10-2.45-.38-5.09,.21-6.6,1.97-2.6,3.31-1.27,7.56,.5,10.87,1.42,2.55,3.44,4.73,5.78,6.45,1.18,.88,2.42,1.64,3.75,2.29l-.34-.07c2.26,.83,3.77,1.52,6.24,2.03,.51,.08,.43,.83-.07,.81h0Z"/>
          <path class="cls-5" d="M76.08,123.51c-2.08,4.61-3.34,9.59-3.65,14.65-.01,.09-.02,.18-.02,.27"/>
          <path d="M35.75,91.21c4.22,9.67,3.26,21.86-1.56,31.17-.62,1.14-2.36,.26-1.77-.93,3.84-7.36,5.14-16.05,3.66-24.24-.34-1.85-.92-3.82-1.28-5.66-.15-.57,.71-.88,.96-.35h0Z"/>
          <path d="M80.31,100.79c5.25,2.99,11.5,3.19,17.06,.93,.53-.23,.96,.54,.5,.87-5.23,3.89-13.32,3.32-18.14-.99-.44-.38,.09-1.11,.59-.81h0Z"/>
          <path d="M71.09,65.56c5.18-3.66,13.17-3.48,17.89,.88,.39,.36-.03,1.04-.52,.85-5.49-1.95-11.3-2.47-16.93-.84-.52,.16-.89-.59-.44-.9h0Z"/>
          <path d="M99.1,65.88c2.76-2,6.35-2.81,9.75-2.52,.49,.02,1,.11,1.36,.81,.48,.96-.97,1.68-1.57,1.43-3.09-.3-6.11,.17-9.08,1.17-.53,.2-.93-.57-.46-.89h0Z"/>
          <path class="cls-5" d="M95.66,82.59c1.31,1.21,2.48,2.61,3.1,4.28s.63,3.62-.27,5.15-2.83,2.48-4.54,1.99"/>
          <ellipse cx="82.49" cy="75.7" rx="2.03" ry="3.18"/>
          <ellipse cx="101.81" cy="75.7" rx="1.42" ry="2.23"/>
        </g>
        <circle cx="77.25" cy="109.25" r=".7"/>
      </g>
      <g>
        <path d="M31.78,85.77c.61,.32,1.1,1.09,.75,1.69-.26,.44-.86,.57-1.36,.47s-.96-.36-1.45-.51-1.07-.19-1.47,.12c-.65,.51-.4,1.63,.26,2.12s1.54,.53,2.36,.55c.63,.02,1.28,.03,1.86-.23,.82-.37,1.32-1.21,1.56-2.07,.72-2.55-.67-5.11-3.42-5.3-.86-.06-1.97-.03-2.07,1.04-.15,1.58,2.03,1.63,2.98,2.12Z"/>
        <polygon class="cls-1" points="29.05 91.39 29.05 107.61 32.52 107.61 32.52 89.74 29.05 89.74 29.05 91.08 29.05 91.39"/>
      </g>
    </g>
  </g>
  <path class="cls-2" d="M72.43,138.16c-5.45-.58-10.89-1.16-16.35-1.74"/>
</svg>