<?xml version="1.0" encoding="UTF-8"?>
<svg id="Layer_1" data-name="Layer 1" xmlns="http://www.w3.org/2000/svg" viewBox="0 0 121.89 155.35">
  <defs>
    <style>
      .cls-1 {
        fill: #fff;
      }

      .cls-2 {
        stroke-width: 2.28px;
      }

      .cls-2, .cls-3, .cls-4, .cls-5 {
        fill: none;
      }

      .cls-2, .cls-3, .cls-5 {
        stroke: #000;
        stroke-linecap: round;
        stroke-linejoin: round;
      }

      .cls-3 {
        stroke-width: 2.51px;
      }

      .cls-5 {
        stroke-width: 2px;
      }
    </style>
  </defs>
  <path class="cls-1" d="M119.93,53.34c2.19,5.06-.07,12.09-4.55,14.13-.41,.18-.83,.32-1.25,.42,.28,1.21,.5,2.43,.67,3.66,.33,2.43,.52,5.02,.42,7.47-.02,.48-.06,.96-.11,1.45-.13,1.31-.35,2.62-.49,3.94h.15c1.1,0,1.99,.89,1.99,1.99v7.22c0,1.43-.38,2.77-1.05,3.92,.53,2.25,1.13,4.39,1.32,6.75,.65,8.14-.34,16.61-4.23,23.79-4.88,9-14.18,15.31-24.24,17.2-1.46,.28-2.94,.46-4.42,.56-1.98,2.8-3.24,6.1-3.57,9.51-8.51-1.4-17.06-3.56-25.03-6.79-4.05-1.63-7.85-4.34-11.44-6.79-3.74-2.54-7.36-5.26-10.92-8.05-1.81-1.43-3.62-2.89-5.3-4.49,4.11-3.86,5.19-10.83,2.05-15.61-2.12-3.22-5.66-5.26-7.95-8.36-2.49-3.39-3.25-8.19-1.25-11.9,.32-.59,.71-1.13,1.16-1.62-2.99,1.1-7.27-3.7-6.96-7.4-2.72,1.21-6.12-.51-7.26-3.68-1.15-3.17,.14-7.27,2.76-8.78-5.02-.85-9.34-5.8-10.25-11.71-.9-5.92,1.69-12.35,6.13-15.23-1.87-4.38-.97-10.19,2.11-13.48,3.08-3.29,8.04-3.76,11.52-1.09,.65-6.25,3.82-12.06,8.37-15.3,4.54-3.25,10.35-3.88,15.31-1.64C46.78,5.34,54.48,.84,61.98,.13c7.49-.71,14.92,1.71,22.16,4.11,5.46,1.8,10.99,3.65,15.82,7.17,4.82,3.52,8.93,9,9.95,15.61,2.59-.57,5.43,1.04,6.66,3.81,1.24,2.76,.78,6.45-1.08,8.67,2.61,.19,5.05,2.32,5.98,5.22,.93,2.9,.3,6.42-1.54,8.62Z"/>
  <g>
    <g>
      <path class="cls-2" d="M75.9,85.05h16.7c2.06,0,3.74,1.68,3.74,3.74v4.89c0,5.46-4.43,9.9-9.9,9.9h-4.39c-5.46,0-9.9-4.43-9.9-9.9v-4.89c0-2.06,1.68-3.74,3.74-3.74Z"/>
      <path class="cls-3" d="M116.76,86.4v7.22c0,1.43-.38,2.77-1.05,3.92-1.36,2.34-3.89,3.91-6.78,3.91h-2.52c-2.97,0-5.37-2.41-5.37-5.38v-8.5c0-1.75,1.41-3.16,3.15-3.16h10.58c1.1,0,1.99,.89,1.99,1.99Z"/>
      <line class="cls-2" x1="35.1" y1="92.92" x2="72.56" y2="87.12"/>
      <line class="cls-2" x1="96.34" y1="89.46" x2="101.03" y2="89.46"/>
    </g>
    <g>
      <g>
        <path d="M59.32,139.07c9.84,4.86,21.23,7.36,31.91,4.31,17.28-4.7,26.3-20.23,24.89-37.66-.08-2.82-.76-5.39-1.43-8.13-1.02-4.21-1.46-8.56-1.1-12.9,3.64-21.17-9.07-42.17-29.75-48.35-5.25-1.66-10.84-2.23-16.3-1.66-10.73,1.18-20.99,9.11-22.99,20.02-1.08,5.41-.56,11.07,.36,16.49,1.63,10.92,4.68,23.45-1.52,33.63-.26,.43-.83,.57-1.25,.3-5.58-3.38-5.44-11.49-10.94-14.74-2.41-1.3-5.63-.65-7.8,1.11-3.47,2.69-3.67,8.03-1.67,11.74,2.19,4.21,6.69,6.14,9.16,10.46,3.32,5.72,1.15,14.01-4.66,17.18-.16,.08-.35,.03-.44-.13-.08-.15-.03-.33,.11-.42,5.04-3.44,6.56-10.82,3.61-15.81-1.49-2.51-4.05-4.3-6.32-6.56-6.66-5.86-6.14-18.09,3.75-19.9,3.45-.72,7.02,1.34,8.8,4.22,2.52,3.67,3.64,8.94,7.37,11.31,0,0-1.25,.3-1.25,.3,10.32-17.87-6.93-39.83,3.96-57.7,11.59-18.82,38.43-16.31,53.79-3.68,9.07,7.2,14.84,18.1,16.25,29.54,.34,2.85,.53,5.73,.22,8.65-.35,2.78-.75,5.47-.59,8.28,.07,4.22,1.18,8.21,2.1,12.32,1.18,7.11,.7,14.46-1.39,21.41-3.4,11.24-13.11,19.94-24.32,23.05-11.23,3.1-23.81,.93-33.04-5.9-.44-.34,0-1,.47-.77h0Z"/>
        <path class="cls-5" d="M99.74,97.38c2.12,2.47,3.65,5.46,4.41,8.63,.55,2.29,.6,4.99-1.01,6.7-1.24,1.32-3.22,1.73-5.01,1.5s-3.47-1.01-5.11-1.79"/>
        <path d="M83.72,121.58c4.78,3.36,10.63,3.77,15.84,1.13,.49-.27,.99,.43,.59,.81-4.52,4.65-13.31,4.03-17.12-1.22-.35-.44,.25-1.05,.7-.72h0Z"/>
        <path d="M70.13,84.63c3.66-6.02,13.49-6.28,17.47-.46,.32,.45-.27,1.03-.71,.71-4.83-3.47-11.37-3.29-16.01,.42-.42,.35-1.05-.21-.75-.67h0Z"/>
        <path d="M100.5,84.72c1.93-3.93,6.35-6.44,10.72-6.2,1.45,.06,3.02,.27,4.07,1.48,.3,.33,.06,.9-.38,.92-2.66,.14-4.88-.75-7.42,.15-2.36,.67-4.54,2.14-6.14,4.17-.35,.48-1.12,0-.85-.53h0Z"/>
        <path class="cls-5" d="M84.14,145.84c-1.98,2.8-3.24,6.1-3.57,9.51-.03,.3-.06,.59-.07,.89"/>
      </g>
      <g>
        <ellipse cx="82.02" cy="93.22" rx="2.66" ry="4.16"/>
        <ellipse cx="107.9" cy="91.07" rx="1.83" ry="2.87"/>
      </g>
    </g>
    <path d="M119.93,53.34c2.19,5.06-.07,12.09-4.55,14.13-.41,.18-.83,.32-1.25,.42-4.22,.97-8.99-2.33-10.09-7.33-1.93,3.2-5.31,5.09-8.62,4.79-3.31-.29-6.42-2.75-7.92-6.26-2.33,2.95-5.83,4.54-9.22,4.19-4.21-.45-6.43-3-8.51-6.97-1.38,2.7-3.86,5.53-6.24,6.98-1.71,1.03-3.61,1.63-5.52,1.63-4.86,.02-9.59-3.69-11.48-9-.58,3.69-1.17,7.43-2.55,10.82-.16,.39-.33,.78-.52,1.16-1.4,2.9-3.49,5.39-6.14,6.44-2.76,1.09-6.14,.26-7.98-2.35,1.07,2.01,1.09,4.78-.02,6.78-1.25,2.25-3.82,3.32-5.98,2.49,1.58,2.24,1.63,6.75,.13,9.11-.41,.65-.93,1.14-1.58,1.37-2.99,1.1-7.27-3.7-6.96-7.4-2.72,1.21-6.12-.51-7.26-3.68-1.15-3.17,.14-7.27,2.76-8.78-5.02-.85-9.34-5.8-10.25-11.71-.9-5.92,1.69-12.35,6.13-15.23-1.87-4.38-.97-10.19,2.11-13.48,3.08-3.29,8.04-3.76,11.52-1.09,.65-6.25,3.82-12.06,8.37-15.3,4.54-3.25,10.35-3.88,15.31-1.64C46.78,5.34,54.48,.84,61.98,.13c7.49-.71,14.92,1.71,22.16,4.11,5.46,1.8,10.99,3.65,15.82,7.17,4.82,3.52,8.93,9,9.95,15.61,2.59-.57,5.43,1.04,6.66,3.81,1.24,2.76,.78,6.45-1.08,8.67,2.61,.19,5.05,2.32,5.98,5.22,.93,2.9,.3,6.42-1.54,8.62Z"/>
  </g>
  <path class="cls-4" d="M27.88,129.23c1.68,1.6,3.49,3.06,5.3,4.49,3.56,2.79,7.18,5.51,10.92,8.05,3.59,2.45,7.39,5.16,11.44,6.79,7.97,3.23,16.52,5.39,25.03,6.79"/>
</svg>