<?xml version="1.0" encoding="UTF-8"?>
<svg id="Layer_1" data-name="Layer 1" xmlns="http://www.w3.org/2000/svg" viewBox="0 0 119.77 164.42">
  <defs>
    <style>
      .cls-1 {
        fill: #fff;
      }

      .cls-2, .cls-3 {
        fill: none;
      }

      .cls-3 {
        stroke: #000;
        stroke-linecap: round;
        stroke-linejoin: round;
        stroke-width: 2px;
      }
    </style>
  </defs>
  <path class="cls-1" d="M116.65,45.92c-.9-2.32-1.82-4.65-2.87-6.91,1.27,3.6,2,7.42,2.52,11.21,.33,2.46,.58,4.93,.76,7.41,.74,10.92-.14,21.96-2.61,32.62-1.43,6.18-3.44,12.34-7.14,17.48-2.82,3.92-6.76,7.21-11.26,8.82,.96-.21,1.96-.44,2.55,.42,.67,.99,.45,3.06,.7,4.21,1.16,5.4,3.71,10.5,7.37,14.63-1.84,.61-3.88-.12-5.45-1.24-1.58-1.12-2.85-2.62-4.37-3.81-.71-.56-1.49-1.06-2.37-1.23-.87-.18-1.87,.02-2.47,.68-.66,.73-.71,1.85-.37,2.78,.33,.92,.98,1.68,1.61,2.43,3.63,4.24,7.25,8.49,10.87,12.73,.42,.49,.87,1.11,.67,1.72-.27,.82-1.39,.89-2.24,.77-6.57-.96-12.79-4.17-17.38-8.96-2.96-3.1-5.24-6.84-6.65-10.88-6.58-1.41-13.27-2.33-19.99-2.73-.21,3.97-.57,7.96,.14,11.86,.81,4.43,3.37,8.87,7.58,10.45-1.11-.42-2.98,.05-4.22-.21-1.13-.24-1.66-.61-2.57-1.21-2.13-1.41-4.3-2.75-6.26-4.39-4.13-3.47-7.47-7.87-9.65-12.8-.93-2.1-3.6-4.34-3.76-.68-.27,5.87,3.41,12.05,6.68,16.7,3.73,5.31,8.62,9.82,14.28,13.01,2.02,1.14,.87,2.33-.66,2.77-1.91,.56-4.12,.64-6.1,.76-4.09,.25-8.21,0-12.25-.72-8.06-1.46-15.8-4.81-22.27-9.86C7.77,144.61,.44,130.11,.02,115.28c-.31-10.84,2.83-21.34,5.22-31.81,1.18-5.18,2.05-9.77,1.96-15.11-.1-5.71-.64-11.4-.86-17.1-.34-8.51,.04-17.28,3.37-25.13C15,13.69,27.33,5.14,40.49,2.06,56.31-1.65,73.84-.05,89.32,4.47c7.9,2.31,15.72,5.65,21.69,11.33,5.96,5.68,9.82,14.03,8.5,22.16-.46,2.8-1.49,5.48-2.86,7.96Z"/>
  <g>
    <g>
      <path d="M44.79,85.16c-7.73-.05-14.81-4.88-18.14-12.51,0,0-.08-.4-.08-.4,0,0-.01-.03-.01-.03l.08,.4c-2.01-4.3-1.79-10.71,3.08-12.99,8.39-3.75,14.94,3.57,18.85,10.06,0,0-1.79,.08-1.79,.08,9.18-16.5,20.82-32.18,36.04-43.57,6.93-4.65,15.07-6.23,22.23-1.05,8.25,5.68,11.19,15.95,12.32,25.38,1.16,9.38,1.33,19.04,.11,28.4-2.05,14.56-5.61,32.8-21,38.8-8.39,3.34-18.97-.92-26.51-7.52-.32-.27,.02-.76,.37-.6,6.15,2.66,12.12,6.49,18.93,6.75,6.18,.02,10.57-2.27,15.16-6.91,7.53-8.26,9.5-20.04,11.04-30.78,.89-7.4,1.11-14.9,.43-22.32-.92-10.77-2.69-22.92-12.05-29.48-6.42-4.66-13.64-3.07-19.86,1.11-14.85,11.15-26.39,26.62-35.37,42.77-.34,.7-1.39,.74-1.79,.08-1.6-2.46-3.21-4.87-5.23-6.79-3.46-3.71-10.85-5.12-13.5,.04-1.18,2.45-.43,5.49,.52,8.14,.03,.12-.07-.37-.07-.37,.97,2.31,2.44,4.42,4.23,6.18,1.81,1.79,3.89,3.25,6.18,4.37,0,0-.34-.07-.34-.07,1.57,.5,3.06,1.35,4.72,1.64,.52,.12,1.05,.26,1.58,.4,.47,.11,.33,.83-.13,.79h0Z"/>
      <path class="cls-3" d="M79.34,131.4c.29-5.15,1.55-10.23,3.67-14.92"/>
      <path d="M42.69,84.18c4.22,9.67,3.26,21.86-1.56,31.17-.62,1.14-2.36,.26-1.77-.93,3.84-7.36,5.14-16.05,3.66-24.24-.34-1.85-.92-3.82-1.28-5.66-.14-.57,.71-.88,.96-.35h0Z"/>
      <path d="M87.25,93.76c5.25,2.99,11.5,3.19,17.06,.93,.53-.23,.96,.54,.5,.87-5.23,3.89-13.32,3.32-18.14-.99-.44-.38,.09-1.11,.59-.81h0Z"/>
      <path d="M74.17,58.66c5.18-3.66,13.17-3.48,17.89,.88,.39,.36-.03,1.04-.52,.85-5.49-1.95-11.3-2.47-16.93-.84-.52,.16-.89-.59-.44-.9h0Z"/>
      <path d="M106.04,58.85c2.76-2,6.35-2.81,9.75-2.52,.49,.02,1,.11,1.36,.81,.48,.96-.97,1.68-1.57,1.43-3.09-.3-6.11,.17-9.08,1.17-.53,.2-.93-.57-.46-.89h0Z"/>
      <path class="cls-3" d="M102.6,75.56c1.31,1.21,2.48,2.61,3.1,4.28s.63,3.62-.27,5.15c-.91,1.53-2.83,2.48-4.54,1.99"/>
      <ellipse cx="85.64" cy="69.37" rx="2.03" ry="3.18"/>
      <ellipse cx="110.17" cy="68.67" rx="1.42" ry="2.23"/>
    </g>
    <g>
      <g>
        <path d="M119.51,37.96c-.46,2.8-1.49,5.48-2.86,7.96-.9-2.32-1.82-4.65-2.87-6.91-.89-1.94-1.88-3.81-3.04-5.58-.74-1.13-1.55-2.22-2.45-3.24-3.93-4.5-9.93-7.65-15.81-6.6-4.45,.79-8.15,3.78-11.53,6.77-6.14,5.43-11.97,11.21-17.45,17.3-5.25,5.83-9.61,12.9-13.74,19.57-.33,.53-.68,1.07-1.17,1.42-.17,.11-.35,.21-.56,.27-.42,.12-.86,.07-1.26-.08-.42-.17-.8-.45-1.11-.77-.6-.65-.98-1.47-1.47-2.21-1.93-2.95-5.71-4.46-9.17-3.95-.94,.13-1.86,.42-2.7,.86-1.52,.8-2.75,2.07-3.57,3.57-.77,1.36-1.2,2.92-1.25,4.47-.01,.49,.02,.96,.09,1.41,.39,2.61,2.05,4.71,4.21,6.28,.29,.21,.59,.42,.9,.61,.8,.51,1.64,.97,2.49,1.41,1.3,.7,2.61,1.38,3.81,2.19,.15,.11,.31,.21,.46,.32,.37,.27,.74,.56,1.08,.87,.34,.3,.67,.62,.97,.96,.67,.76,1.22,1.6,1.64,2.49,.86,1.74,1.29,3.7,1.49,5.64,.29,2.83-.48,5.89,.81,8.48,2.43,4.87,7.69,7.39,10.56,11.93,2.4,3.81,2.75,8.55,2.59,13.05-.02,.54-.05,1.08-.07,1.62-.21,3.97-.57,7.96,.14,11.86,.81,4.43,3.37,8.87,7.58,10.45-1.11-.42-2.98,.05-4.22-.21-1.13-.24-1.66-.61-2.57-1.21-2.13-1.41-4.3-2.75-6.26-4.39-4.13-3.47-7.47-7.87-9.65-12.8-.93-2.1-3.6-4.34-3.76-.68-.27,5.87,3.41,12.05,6.68,16.7,3.73,5.31,8.62,9.82,14.28,13.01,2.02,1.14,.87,2.33-.66,2.77-1.91,.56-4.12,.64-6.1,.76-4.09,.25-8.21,0-12.25-.72-8.06-1.46-15.8-4.81-22.27-9.86C7.77,144.61,.44,130.11,.02,115.28c-.31-10.84,2.83-21.34,5.22-31.81,1.18-5.18,2.05-9.77,1.96-15.11-.1-5.71-.64-11.4-.86-17.1-.34-8.51,.04-17.28,3.37-25.13C15,13.69,27.33,5.14,40.49,2.06,56.31-1.65,73.84-.05,89.32,4.47c7.9,2.31,15.72,5.65,21.69,11.33,5.96,5.68,9.82,14.03,8.5,22.16Z"/>
        <path d="M92.01,130.21c-.66,.73-.71,1.85-.37,2.78,.33,.92,.98,1.68,1.61,2.43,3.63,4.24,7.25,8.49,10.87,12.73,.42,.49,.87,1.11,.67,1.72-.27,.82-1.39,.89-2.24,.77-6.57-.96-12.79-4.17-17.38-8.96-2.96-3.1-5.24-6.84-6.65-10.88-.78-2.22-1.31-4.53-1.54-6.88-.17-1.6-.2-3.25,.25-4.8,.35-1.22,1.43-3.47,2.87-3.73h.01c.73-.13,2.04,.53,2.78,.7,1.05,.23,2.12,.41,3.19,.55,3.05,.4,6.15,.42,9.2,.05,.24-.03,.5-.08,.76-.14h.01c.96-.21,1.96-.44,2.55,.42,.67,.99,.45,3.06,.7,4.21,1.16,5.4,3.71,10.5,7.37,14.63-1.84,.61-3.88-.12-5.45-1.24-1.58-1.12-2.85-2.62-4.37-3.81-.71-.56-1.49-1.06-2.37-1.23-.87-.18-1.87,.02-2.47,.68Z"/>
      </g>
      <g>
        <path class="cls-1" d="M90.55,14.87c-11.96-1.45-23.68,4.61-29.54,15.04-5.83,9.61-11.53,23.79-24.66,24.54,5.94-1.13,10.58-5.32,13.9-10.14,5.05-7.26,7.98-16.48,14.67-22.76,6.67-6.33,16.82-9.07,25.62-6.68h0Z"/>
        <path class="cls-1" d="M60.51,7.88c-4.14,1.13-7.81,3.39-10.57,6.42-5.75,6.28-5.84,15.97-11.14,22.69-2.52,3.57-5.71,6.64-9.38,8.88,6.32-5.86,10.52-13.09,12.88-21.34,2.51-8.8,8.66-16.02,18.22-16.66h0Z"/>
        <path class="cls-1" d="M44.47,58.88c-9.53,2.49-17.81,8.88-21.88,17.9-1.37,2.95-2.31,6.11-2.88,9.42-1.4-13.88,10.82-27.35,24.76-27.32h0Z"/>
      </g>
    </g>
    <g>
      <path d="M38.72,78.74c.61,.32,1.1,1.09,.75,1.69-.26,.44-.86,.57-1.36,.47s-.96-.36-1.45-.51-1.07-.19-1.47,.12c-.65,.51-.4,1.63,.26,2.12s1.54,.53,2.36,.55c.63,.02,1.28,.03,1.86-.23,.82-.37,1.32-1.21,1.56-2.07,.72-2.55-.67-5.11-3.42-5.3-.86-.06-1.97-.03-2.07,1.04-.15,1.58,2.03,1.63,2.98,2.12Z"/>
      <polygon class="cls-1" points="35.99 84.36 35.99 100.58 39.46 100.58 39.46 82.71 35.99 82.71 35.99 84.05 35.99 84.36"/>
    </g>
  </g>
  <path class="cls-2" d="M78.52,130.8c-6.58-1.41-13.27-2.33-19.99-2.73"/>
</svg>