<?xml version="1.0" encoding="UTF-8"?>
<svg id="Layer_1" data-name="Layer 1" xmlns="http://www.w3.org/2000/svg" viewBox="0 0 116.97 148.42">
  <defs>
    <style>
      .cls-1 {
        fill: #fff;
      }

      .cls-2, .cls-3 {
        fill: none;
      }

      .cls-3 {
        stroke: #000;
        stroke-linecap: round;
        stroke-linejoin: round;
        stroke-width: 2px;
      }
    </style>
  </defs>
  <path class="cls-1" d="M111.56,119.26c-.07,.13-.14,.26-.22,.39-1.09,2.53-2.55,4.92-3.78,6.65-2.97,4.18-7.01,7.63-11.67,9.81-4.1,1.91-8.65,2.83-13.17,2.75-.32-.01-.64-.01-.96-.03-1.45,2.6-2.33,5.53-2.49,8.51-7.59-1.03-15.19-2.69-22.37-5.2-4.12-1.45-8.05-3.97-11.76-6.24-3.85-2.36-7.6-4.9-11.29-7.52-2.97-2.11-5.93-4.31-8.4-6.99,4.81-3.38,6.5-10.59,3.72-15.76,.01,.65-.19,1.28-.66,1.74-1.9,1.85-6.46-1.65-8.17-2.75-2.95-1.91-5.6-4.28-7.8-7.03-6.14-7.65-9.01-17.34-10.84-26.75C-.32,60.39-.55,49.59,1.05,39.06,3.34,23.95,10.18,10.99,24.78,4.27,33.94,.05,44.4-.67,54.41,.51c26.49,3.13,62.14,15.61,55.26,48.91,.32-1.56-2.95-5.62-3.83-6.85-1.63-2.3-3.53-4.42-5.64-6.29-2.4-2.14-5.19-4.23-8.17-5.75,4.32,2.49,8.23,5.68,11.44,9.43,5.48,6.4,8.95,14.44,10.09,22.77,.33,2.44,.52,5.02,.42,7.47-.02,.48-.06,.97-.11,1.45-.2,1.97-.58,3.94-.63,5.93-.07,3.12,.2,6.24,.82,9.3,.59,2.95,1.49,5.59,1.73,8.6,.65,8.14-.34,16.6-4.23,23.78Z"/>
  <g>
    <path d="M109.67,49.42c.32-1.56-2.95-5.62-3.83-6.85-1.63-2.3-3.53-4.42-5.64-6.29-2.4-2.14-5.19-4.23-8.17-5.75-.03-.01-.05-.02-.08-.04-.67-.33-1.34-.64-2.02-.91-.89-.35-1.8-.65-2.72-.88-5.27-1.3-9.45-3.39-15.09-2.23-5.1,1.05-9.76,4.12-12.72,8.39-4.21,6.06-4.84,13.79-5.85,21.09-1.62,11.78-4.55,23.37-8.72,34.5-.51,1.37-1.13,2.84-2.41,3.55-.07,.04-.15,.08-.22,.1-.8,.38-1.65,.36-2.45,.09h-.01c-1.66-.56-3.16-2.21-3.83-3.93-.67-1.71-.95-3.6-1.53-5.33-.32-.95-.72-1.85-1.33-2.65-2.37-3.13-7.4-3.49-10.57-1.17-.7,.51-1.3,1.11-1.81,1.8-1.82,2.41-2.45,5.74-1.82,8.74,.54,2.55,1.87,4.85,3.64,6.78,.6,.66,1.26,1.28,1.96,1.85,.33,.28,.68,.54,1.03,.79,1.09,.78,2.29,1.49,3.05,2.6,.39,.56,.63,1.27,.64,1.96,.01,.65-.19,1.28-.66,1.74-1.9,1.85-6.46-1.65-8.17-2.75-2.95-1.91-5.6-4.28-7.8-7.03-6.14-7.65-9.01-17.34-10.84-26.75C-.32,60.39-.55,49.59,1.05,39.06,3.34,23.95,10.18,10.99,24.78,4.27,33.94,.05,44.4-.67,54.41,.51c26.49,3.13,62.14,15.61,55.26,48.91Z"/>
    <g>
      <g>
        <path d="M58.09,130.26c8.76,4.32,18.5,6.74,28.16,5.16,16.95-2.86,28.49-16.39,28.69-33.62,.07-3.22,.04-6.49-.68-9.64-1.24-4.85-2.25-9.91-2-14.98,3.35-19.17-5.4-37.96-22.22-46.6-7.5-3.91-16.26-5.77-24.66-4.57-14.51,2.38-23.79,13.78-22.6,28.56,.68,13.64,7.02,28.61-.62,41.45-.93,1.23-2.32-.56-3.08-1.19,0,0,.65,.28,.65,.28-.25,0-.5-.1-.66-.27-3.36-3.54-4.03-8.18-7.05-11.64-2.77-3.36-7.95-2.79-10.73,.33-2.84,3.07-2.56,8.22-.36,11.66,2.53,3.88,6.74,5.85,9,10.23,2.92,5.69,.69,13.57-4.94,16.66-.16,.09-.35,.03-.44-.13-.08-.15-.03-.33,.1-.42,4.9-3.36,6.46-10.39,3.85-15.39-1.58-3.07-5.39-5.49-7.57-8.14-3.9-4.11-4.93-11.19-.93-15.66,2.24-2.43,5.74-3.78,9.1-2.97,3.33,.8,5.45,3.79,6.85,6.62,1.4,2.74,2.49,5.58,4.42,7.58,0,0-.65-.27-.65-.27,.26,0,.5,.11,.66,.28,.44,.46,.94,.86,1.48,1.2l-1.25,.29c7.27-12.47,.86-27.03,.27-40.41-.74-9.8,2.76-19.4,11.01-25.19,11.58-8.51,27.8-6.83,39.85-.2,11.84,6.15,20.97,19.24,22.73,32.96,.47,3.34,.72,6.74,.3,10.17-.5,3.32-.75,6.4-.41,9.7,.29,4.97,2.35,9.7,2.5,14.71,.44,8.43-.77,17.16-5.29,24.54-7.17,11.82-21.54,18.31-35.16,16.76-6.78-.65-13.4-3.07-18.81-7.08-.44-.34,0-1,.47-.77h0Z"/>
        <path class="cls-3" d="M98.51,88.57c2.12,2.47,3.65,5.46,4.41,8.63,.55,2.29,.6,4.99-1.01,6.7-1.24,1.32-3.22,1.73-5.01,1.5s-3.47-1.01-5.11-1.79"/>
        <path d="M86.36,113.9c4.78,3.36,10.62,3.77,15.84,1.13,.49-.27,.99,.43,.59,.81-4.52,4.65-13.31,4.03-17.12-1.22-.35-.44,.25-1.05,.7-.72h0Z"/>
        <path d="M68.9,75.82c3.66-6.02,13.49-6.28,17.47-.46,.32,.45-.27,1.03-.71,.71-4.83-3.47-11.37-3.29-16.01,.42-.42,.35-1.05-.21-.75-.67h0Z"/>
        <path d="M99.27,75.91c1.93-3.93,6.35-6.44,10.72-6.2,1.45,.06,3.02,.27,4.07,1.48,.3,.33,.06,.9-.38,.92-2.66,.14-4.88-.75-7.42,.15-2.36,.67-4.54,2.14-6.14,4.17-.35,.48-1.12,0-.85-.53h0Z"/>
        <path class="cls-3" d="M82.9,137.02c-.41,.58-.8,1.19-1.14,1.81-1.45,2.6-2.33,5.53-2.49,8.51-.01,.03-.01,.05-.01,.08"/>
      </g>
      <g>
        <ellipse cx="80.79" cy="84.41" rx="2.66" ry="4.16"/>
        <ellipse cx="106.67" cy="82.26" rx="1.83" ry="2.87"/>
      </g>
    </g>
    <path d="M112.88,111.9c-.31-1.95-1.54-2.96-3.11-3.49-2.08-.69-4.74-.55-6.65-.65-4.94-.24-9.88-.49-14.81-.73-9.39-.46-19.97,3.09-28.08,7.69-3.77,2.14-7.55,8.57-5.95,12.87,1.6,4.29,8.19,6.57,12.07,8.07,5.31,2.06,9.82,3,15.41,3.17,.32,.02,.64,.02,.96,.03,4.52,.08,9.07-.84,13.17-2.75,4.66-2.18,8.7-5.63,11.67-9.81,1.23-1.73,2.69-4.12,3.78-6.65,1.16-2.64,1.9-5.44,1.54-7.75Zm-31.48,1.45c.14-.56,.82-.75,1.39-.84,6.58-1.02,14.18-2.01,20.24,1.36,1.12,.62,2.28,1.55,2.34,2.83,.04,.87-.47,1.69-1.15,2.22-.68,.53-1.52,.81-2.36,1.03-6.94,1.83-14.77-.27-19.86-5.32-.35-.35-.71-.8-.6-1.28Z"/>
  </g>
  <path class="cls-2" d="M25.45,121.39c2.47,2.68,5.43,4.88,8.4,6.99,3.69,2.62,7.44,5.16,11.29,7.52,3.71,2.27,7.64,4.79,11.76,6.24,7.18,2.51,14.78,4.17,22.37,5.2"/>
</svg>