<?xml version="1.0" encoding="UTF-8"?>
<svg id="Layer_1" data-name="Layer 1" xmlns="http://www.w3.org/2000/svg" viewBox="0 0 110.54 151.56">
  <defs>
    <style>
      .cls-1 {
        fill: #fff;
      }

      .cls-2, .cls-3, .cls-4, .cls-5 {
        fill: none;
      }

      .cls-3 {
        stroke-width: 2.13px;
      }

      .cls-3, .cls-4, .cls-5 {
        stroke: #000;
        stroke-linecap: round;
        stroke-linejoin: round;
      }

      .cls-4 {
        stroke-width: 1.94px;
      }

      .cls-5 {
        stroke-width: 2px;
      }
    </style>
  </defs>
  <path class="cls-1" d="M109.48,60.25v4.62c0,2.91-1.59,5.45-3.95,6.8-.98,7.47-2.85,14.82-5.55,21.86-1.45,3.79-3.23,7.61-6.26,10.3-2.24,1.98-5,3.21-7.94,3.79,.77-.03,1.55-.1,2.32-.19,1.06-.13,2.37-.76,3.06,.26,.63,.91,.42,2.82,.65,3.9,1.07,4.98,3.43,9.7,6.81,13.52-1.69,.56-3.58-.11-5.03-1.15-1.46-1.04-2.64-2.42-4.05-3.52-.65-.51-1.37-.98-2.18-1.14-.81-.16-1.73,.02-2.29,.63-.61,.68-.65,1.72-.34,2.57,.3,.85,.9,1.56,1.49,2.25,3.35,3.92,6.7,7.85,10.05,11.77,.39,.45,.8,1.02,.62,1.59-.25,.76-1.28,.82-2.07,.71-6.08-.89-11.83-3.85-16.07-8.28-2.74-2.86-4.83-6.32-6.14-10.04-6.07-1.37-12.34-1.88-18.55-1.49-.2,3.32-.42,6.65,.18,9.91,.75,4.09,3.12,8.2,7.02,9.66-1.03-.38-2.76,.05-3.91-.2-1.05-.21-1.53-.55-2.38-1.11-1.96-1.3-3.97-2.54-5.78-4.07-3.82-3.2-6.91-7.27-8.93-11.83-.86-1.94-3.32-4.01-3.47-.63-.25,5.43,3.15,11.15,6.18,15.44,3.45,4.91,7.97,9.09,13.2,12.04,1.87,1.05,.81,2.15-.61,2.56-1.77,.51-3.81,.59-5.64,.7-3.78,.23-7.59,0-11.32-.67-7.46-1.34-14.62-4.45-20.6-9.12C7.18,133.25,.41,119.84,.02,106.13c-.29-10.03,2.62-19.74,4.83-29.41,1.09-4.79,1.89-9.03,1.8-13.98-.09-5.27-.58-10.53-.79-15.8-.31-7.88,.04-15.98,3.12-23.24C13.87,12.2,25.27,4.3,37.44,1.45c12.17-2.85,25.01-1.18,37,2.34,9.21,2.72,18.38,6.69,25.01,13.64,4.9,5.13,8.22,12.14,8.26,19.31,.01,2.7-.21,7.92-4.2,5.72-.02-.01-.04-.02-.06-.04,2.01,4.96,2.77,10.4,2.89,15.84h1.16c1.09,0,1.98,.89,1.98,1.99Z"/>
  <g>
    <g>
      <g>
        <path d="M41.26,83.75c-.63-.61-1.39-1.57-2-2.21-.15-.16-.24-.22-.29-.21-.98-.09-2.07,.29-2.88,.23-3.47,.01-6.98-.87-9.88-2.84-6.71-4.28-8.7-14.29-1.84-19.51,6.67-4.53,14.86,.18,17.93,6.74,1.51,2.93,2.22,6.11,2.86,9.29,0,0-2.05,.2-2.05,.2-.35-18.4,10.05-36.7,26.32-45.42,5.46-2.77,11.84-4.98,18-3.51,8.25,1.94,14.66,8.74,17.37,16.55,5.81,15.37,1.01,45.26-7.91,58.93-7.92,10.77-24.52,7.97-33.85,.61-.27-.23-.02-.65,.3-.57,3.96,1,7.38,2.98,11.17,3.88,3.67,1.05,7.59,1.38,11.33,.55,8.38-1.53,11.74-8.89,14.23-16.29,2.6-7.46,4.31-15.25,4.95-23.14,.6-7.75,.55-15.9-2.15-23.26-2.52-7.22-8.4-13.46-15.92-15.23-5.68-1.33-11.5,.81-16.55,3.35-15.55,8.4-25.53,25.91-25.23,43.53,.01,1.23-1.77,1.43-2.04,.25-.6-3.01-1.26-6.06-2.67-8.79-2.42-5.39-9.44-9.78-14.91-6.03-5.66,4.3-3.86,12.66,1.76,16.24,2.39,1.64,5.31,2.39,8.18,2.66,0,0,1.16,.07,1.16,.07,0,0,.11,0,.11,0h.24c.28-.02,1.75-.21,2.51,.15,.79,.37,1.24,1.4,1.68,2.05,.21,.52,1.27,1.4,.65,1.87-.2,.12-.44,.05-.58-.12h0Z"/>
        <path class="cls-5" d="M76.25,107.46c-1.93,1.87-3.86,3.73-5.79,5.6"/>
        <path class="cls-5" d="M36.76,80.67c3.17,7.03,2.38,15.78-2.19,22.01"/>
        <path d="M71.65,56.68c3.62-2.35,8.43-2.75,12.51-1.33,1.36,.47,2.78,1.1,3.58,2.45,.25,.39-.14,.92-.59,.81-1.42-.26-2.45-.91-3.66-1.34-3.66-1.3-7.72-1.23-11.36,.29-.54,.25-.98-.57-.47-.88h0Z"/>
        <path d="M96.78,58.15c.38-1.95,2.2-3.2,3.88-3.99,1.78-.75,3.78-.85,5.56-.29,.26,.08,.41,.37,.33,.63-.07,.23-.3,.38-.54,.35-2.45-.28-4.85,.45-6.61,2.11-.57,.55-1.07,1.14-1.77,1.69-.36,.31-.94-.04-.85-.5h0Z"/>
        <path class="cls-5" d="M93.99,66.93c2.19,2.15,3.99,4.7,5.29,7.48,.72,1.55,1.28,3.39,.56,4.94-.58,1.25-1.9,2.03-3.25,2.32s-2.75,.14-4.12,0"/>
        <path d="M77.85,86.18c4.08,4.2,10.13,5.33,15.45,2.86,.51-.26,.98,.49,.54,.84-4.93,4.34-13.75,2.7-16.79-3.11-.29-.5,.42-1.01,.81-.59h0Z"/>
      </g>
      <ellipse cx="81.88" cy="64.36" rx="2.03" ry="3.18"/>
      <ellipse cx="100.17" cy="65.17" rx="1.39" ry="2.17"/>
    </g>
    <g>
      <path class="cls-4" d="M75.43,58.81h13.01c2.06,0,3.74,1.68,3.74,3.74v2.06c0,5.46-4.43,9.9-9.9,9.9h-.7c-5.46,0-9.9-4.43-9.9-9.9v-2.06c0-2.06,1.68-3.74,3.74-3.74Z"/>
      <path class="cls-3" d="M109.48,60.25v4.62c0,2.91-1.59,5.45-3.95,6.8-1.14,.65-2.47,1.03-3.88,1.03h-.11c-2.97,0-5.38-2.41-5.38-5.38v-5.9c0-1.74,1.41-3.16,3.15-3.16h8.19c1.09,0,1.98,.89,1.98,1.99Z"/>
      <line class="cls-4" x1="41.57" y1="54.22" x2="72.29" y2="60.51"/>
      <line class="cls-4" x1="92.19" y1="62.55" x2="96.16" y2="62.55"/>
    </g>
    <g>
      <g>
        <path d="M107.71,36.74c.01,2.7-.21,7.92-4.2,5.72-.02-.01-.04-.02-.06-.04-3.24-1.83-4.07-5.73-6.61-8.19-.2-.19-.4-.38-.62-.55-3.88-3.04-7.58-5.49-12.67-5.81-4.99-.32-9.97,1.22-14.28,3.74-1.83,1.06-3.54,2.3-5.16,3.65-1.26,1.05-2.73,1.87-3.95,2.93-2.93,2.55-5.26,6.56-7.25,9.87-1.49,2.47-2.82,5.03-3.97,7.67-2.09,4.71-3.64,9.65-4.61,14.71-.03,.18-.07,.35-.1,.53-.11,.65-.22,1.29-.32,1.94-.17-.29-.33-.57-.49-.86-1.9-3.27-3.79-6.56-5.68-9.83-.27-.48-.56-.97-.91-1.39-.17-.21-.36-.41-.58-.58-.38-.31-.81-.49-1.29-.56-.08-.02-.15-.03-.23-.03-2.94-.28-7.25,2.97-8.53,4.91-.02,.02-.03,.03-.04,.05-2.47,3.86-1.54,11.35,3.09,13.15,1,.39,2.03,.66,3.05,.92,.51,.12,1,.24,1.49,.37,.33,.08,.65,.17,.96,.27,.89,.25,1.73,.56,2.49,.99,.15,.08,.3,.17,.44,.26,1.26,.84,2.23,2.09,2.69,4.14,.58,2.54,.38,5.24,1.26,7.69,1.77,4.97,7.33,7.52,10.15,11.98,2.23,3.52,2.55,7.9,2.4,12.06-.03,.85-.08,1.71-.12,2.56-.2,3.32-.42,6.65,.18,9.91,.75,4.09,3.12,8.2,7.02,9.66-1.03-.38-2.76,.05-3.91-.2-1.05-.21-1.53-.55-2.38-1.11-1.96-1.3-3.97-2.54-5.78-4.07-3.82-3.2-6.91-7.27-8.93-11.83-.86-1.94-3.32-4.01-3.47-.63-.25,5.43,3.15,11.15,6.18,15.44,3.45,4.91,7.97,9.09,13.2,12.04,1.87,1.05,.81,2.15-.61,2.56-1.77,.51-3.81,.59-5.64,.7-3.78,.23-7.59,0-11.32-.67-7.46-1.34-14.62-4.45-20.6-9.12C7.18,133.25,.41,119.84,.02,106.13c-.29-10.03,2.62-19.74,4.83-29.41,1.09-4.79,1.89-9.03,1.8-13.98-.09-5.27-.58-10.53-.79-15.8-.31-7.88,.04-15.98,3.12-23.24C13.87,12.2,25.27,4.3,37.44,1.45c12.17-2.85,25.01-1.18,37,2.34,9.21,2.72,18.38,6.69,25.01,13.64,4.9,5.13,8.22,12.14,8.26,19.31Z"/>
        <path d="M85.07,119.93c-.61,.68-.65,1.72-.34,2.57,.3,.85,.9,1.56,1.49,2.25,3.35,3.92,6.7,7.85,10.05,11.77,.39,.45,.8,1.02,.62,1.59-.25,.76-1.28,.82-2.07,.71-6.08-.89-11.83-3.85-16.07-8.28-2.74-2.86-4.83-6.32-6.14-10.04-.73-2.06-1.22-4.21-1.44-6.38-.05-.55-.09-1.1-.09-1.66-.02-.94,.06-1.88,.32-2.78,.25-.87,.91-2.3,1.8-3.02,.27-.22,.56-.37,.87-.43,.67-.12,1.88,.49,2.57,.64,.97,.22,1.96,.39,2.95,.52,2.05,.26,4.12,.34,6.19,.23,.77-.03,1.55-.1,2.32-.19,1.06-.13,2.37-.76,3.06,.26,.63,.91,.42,2.82,.65,3.9,1.07,4.98,3.43,9.7,6.81,13.52-1.69,.56-3.58-.11-5.03-1.15-1.46-1.04-2.64-2.42-4.05-3.52-.65-.51-1.37-.98-2.18-1.14-.81-.16-1.73,.02-2.29,.63Z"/>
      </g>
      <g>
        <path class="cls-1" d="M83.72,13.29c-11.06-1.36-21.9,4.27-27.31,13.91-5.39,8.89-10.67,21.98-22.8,22.69,5.46-1.01,9.79-4.93,12.85-9.38,4.67-6.71,7.37-15.24,13.57-21.05,6.19-5.86,15.46-8.37,23.69-6.17h0Z"/>
        <path class="cls-1" d="M55.94,6.82c-3.83,1.04-7.22,3.14-9.77,5.94-5.31,5.81-5.4,14.77-10.3,20.98-2.33,3.3-5.28,6.14-8.68,8.21,2.88-2.73,5.38-5.75,7.37-9.07,3.22-4.97,4.18-10.94,6.81-16.27,2.73-5.45,8.54-9.48,14.58-9.79h0Z"/>
        <path class="cls-1" d="M39.9,58.41c-8.81,2.3-16.47,8.21-20.23,16.55-1.26,2.73-2.14,5.65-2.66,8.71-1.3-12.83,10.01-25.29,22.9-25.26h0Z"/>
      </g>
    </g>
    <g>
      <path d="M35.18,77.14c.61,.32,1.1,1.09,.75,1.69-.26,.44-.86,.57-1.36,.47s-.96-.36-1.45-.51-1.07-.19-1.47,.12c-.65,.51-.4,1.63,.26,2.12s1.54,.53,2.36,.55c.63,.02,1.28,.03,1.86-.23,.82-.37,1.32-1.21,1.56-2.07,.72-2.55-.67-5.11-3.42-5.3-.86-.06-1.97-.03-2.07,1.04-.15,1.58,2.03,1.63,2.98,2.12Z"/>
      <polygon class="cls-1" points="32.45 82.76 32.45 98.98 35.92 98.98 35.92 81.11 32.45 81.11 32.45 82.45 32.45 82.76"/>
    </g>
  </g>
  <path class="cls-2" d="M54.06,119.01c6.21-.39,12.48,.12,18.55,1.49"/>
</svg>