<?xml version="1.0" encoding="UTF-8"?>
<svg id="Layer_1" data-name="Layer 1" xmlns="http://www.w3.org/2000/svg" viewBox="0 0 118.4 141.93">
  <defs>
    <style>
      .cls-1 {
        fill: #fff;
      }

      .cls-2, .cls-3, .cls-4 {
        fill: none;
      }

      .cls-2, .cls-4 {
        stroke: #000;
        stroke-linecap: round;
        stroke-linejoin: round;
      }

      .cls-4 {
        stroke-width: 2px;
      }
    </style>
  </defs>
  <path class="cls-1" d="M110.03,67.46c-.16,1.21-.31,2.41-.34,3.63-.08,3.12,.2,6.24,.81,9.3,.6,2.95,1.5,5.59,1.74,8.59,.65,8.14-.34,16.61-4.24,23.79-.95,1.75-2.06,3.39-3.31,4.92-.73,.89-1.5,1.74-2.31,2.55-1.12,1.11-2.32,2.15-3.59,3.11-1.05,.77-2.13,1.5-3.25,2.16-.99,.59-2,1.13-3.03,1.62-2.78,1.31-5.73,2.28-8.75,2.84-1.46,.28-2.93,.46-4.41,.56-1.98,2.8-3.24,6.11-3.57,9.52-7.96-1.03-15.95-2.73-23.49-5.39-4.12-1.44-8.04-3.97-11.74-6.25-3.86-2.36-7.6-4.91-11.28-7.53-2.58-1.84-5.15-3.74-7.38-5.97,5.08-3.57,6.68-11.38,3.25-16.59-2.12-3.22-5.66-5.27-7.95-8.37-1.4-1.9-2.25-4.26-2.37-6.61C5.06,77.17-.92,65.33,.11,53.8c.46-5.2-.96-9.89,3.36-13.84,2.17-1.98,4.79-3.57,6.34-6.06,1.77-2.85,1.84-6.37,2.34-9.68,1.21-8.09,9.39-14.91,16.17-18.72C36.36,.98,45.91-.96,55.06,.45c4.71,.72,9.36,2.26,14.1,1.91,2.67-.2,5.25-1,7.89-1.36,8.44-1.16,17.09,2.23,23.52,7.82,6.43,5.59,10.83,13.19,13.94,21.11,2.48,6.3,4.22,13.02,3.83,19.77-.4,6.72-3.12,13.5-8.31,17.76Z"/>
  <g>
    <g>
      <path class="cls-2" d="M82.04,124.1c-1.58,2.56-3.16,5.12-4.74,7.67"/>
      <path class="cls-2" d="M86.02,123.01l-1.14,5.62"/>
      <path class="cls-2" d="M88.84,124.17l.22,3.27"/>
      <path class="cls-2" d="M91.78,123.48c.31,1.56,.63,3.12,.94,4.67"/>
      <path class="cls-2" d="M94.26,123.86c1.61,2.05,3.21,4.1,4.82,6.15"/>
      <path class="cls-2" d="M68.94,124.19l-1.4,3.04"/>
      <path class="cls-2" d="M75.91,125.8l-1.17,3.04"/>
      <path class="cls-2" d="M72.67,125.11l-1.39,2.34"/>
      <path class="cls-2" d="M97.19,120.82l2.47,3.89"/>
      <path class="cls-2" d="M100.99,118.97l2.09,1.89"/>
      <path class="cls-2" d="M103.32,116.18l2.79,3.05"/>
    </g>
    <g>
      <g>
        <path d="M54.54,123.77c12.17,6.16,27.25,8.21,39.46,1.23,7.22-3.84,12.96-10.43,15.45-18.26,2.07-6.47,2.53-13.64,1.41-20.38-.95-4.13-2.07-8.34-2.14-12.63-.14-2.77,.26-5.8,.6-8.56,.66-8.17-1.33-16.65-5.22-23.86-9.8-18.9-38.4-30.12-56.12-15.58-20.21,16.79,2.63,43.89-9.35,63.78-1.19,1.68-4.16-2.4-4.75-3.32-2.49-3.71-3.37-8.83-7.44-11.11-2.41-1.29-5.63-.66-7.8,1.12-4.78,3.82-3.26,11.5,.99,15.22,5.22,4.63,9.62,8.8,7.56,16.59-.84,3.15-2.89,6-5.73,7.57-.16,.09-.35,.03-.44-.13-.08-.15-.03-.34,.12-.43,5.02-3.44,6.54-10.82,3.6-15.81-2.3-3.83-7.18-6.22-9.31-10.48-2.37-4.41-2.05-10.65,2.11-13.9,4.29-3.58,10.51-2.68,13.42,2.13,2.53,3.66,3.63,8.96,7.37,11.31,0,0-1.25,.3-1.25,.3,5.84-9.78,2.81-21.72,1.14-32.4-.85-5.58-1.46-11.4-.32-17.14,1.06-5.77,4.36-11.04,8.82-14.78,13.77-11.64,34.91-7.67,48.1,2.95,12.55,9.97,18.57,26.62,16.01,42.37-.66,5.57,.7,11.02,1.98,16.42,1.18,7.11,.7,14.46-1.39,21.41-5.21,17.25-24.26,27.21-41.59,23.83-5.7-1.01-11.17-3.28-15.77-6.68-.44-.34-.01-1,.47-.77h0Z"/>
        <path class="cls-4" d="M94.95,82.08c2.12,2.47,3.65,5.46,4.41,8.63,.55,2.29,.6,4.99-1.01,6.7-1.24,1.32-3.22,1.73-5.01,1.5s-3.47-1.01-5.11-1.79"/>
        <path d="M78.93,106.28c4.78,3.36,10.63,3.77,15.84,1.13,.49-.27,.99,.43,.59,.81-4.52,4.65-13.31,4.03-17.12-1.22-.35-.44,.25-1.05,.7-.72h0Z"/>
        <path d="M65.35,69.33c2.72-4.41,9.03-5.94,13.62-3.65,1.54,.73,2.91,1.81,3.85,3.19,.16,.23,.1,.55-.13,.71-.18,.12-.41,.12-.58,0-4.83-3.47-11.37-3.29-16.01,.42-.42,.35-1.05-.21-.75-.67h0Z"/>
        <path d="M95.72,69.42c1.93-3.93,6.35-6.44,10.72-6.2,1.45,.06,3.02,.27,4.07,1.48,.3,.33,.06,.9-.38,.92-2.66,.14-4.88-.75-7.42,.15-2.36,.67-4.54,2.14-6.14,4.17-.35,.48-1.12,0-.85-.53h0Z"/>
        <path class="cls-4" d="M79.35,130.53c-1.98,2.8-3.24,6.11-3.57,9.52-.03,.29-.06,.59-.07,.88"/>
      </g>
      <g>
        <ellipse cx="77.23" cy="77.92" rx="2.66" ry="4.16"/>
        <ellipse cx="103.11" cy="75.77" rx="1.83" ry="2.87"/>
      </g>
    </g>
    <g>
      <path d="M118.34,49.7c-.4,6.72-3.12,13.5-8.31,17.76-.03,.03-.06,.05-.09,.08-.09-.87-.18-1.74-.28-2.62-.42-3.66-1.01-7.32-2.41-10.71-1.74-4.21-4.94-8.04-9.27-9.44-4.34-1.39-9.77,.3-11.69,4.42-2.12-3.13-4.49-6.2-7.64-8.29-3.15-2.1-7.23-3.1-10.79-1.81-3.56,1.28-6.21,5.23-5.28,8.9,1.03,4.05,5.64,6.3,7,10.25,.96,2.76,0,6.08-2.28,7.9-2.29,1.83-5.73,2.03-8.21,.49,2.22-.13,4.32-1.55,5.28-3.56,.95-2.02,.72-4.54-.58-6.35-2.62-3.62-8.6-3.92-10.53-7.95-1.18-2.45-.26-5.11,1.02-7.31,.55-.96,3.55-3.73,2.71-4.64-1.89-2.04-5.83,1.03-7.2,2.41-.88,.88-1.6,1.96-2.15,3.12-.7,1.47-1.13,3.09-1.26,4.67-.19,2.18,.04,4.37,.04,6.55,.01,3.06-.01,5.85-1.31,8.7-.97,2.14-2.26,4.14-3.1,6.34-.36,.94-.57,1.9-.69,2.88-.18,1.55-.11,3.14,.07,4.73,.25,2.37,.75,4.74,.98,7.01,.19,1.82,.03,3.77-.97,5.3-2.61,4-7.32,1.36-8.25-2.42-.36-1.46-.36-2.99-.67-4.47-.05-.25-.11-.5-.18-.75-.36-1.24-1.06-2.35-1.97-3.26-1.93-1.94-4.83-2.95-7.52-2.36-3.95,.88-6.84,5.1-6.23,9.1-.6-.32-1.19-.67-1.76-1.03C5.06,77.17-.92,65.33,.11,53.8c.46-5.2-.96-9.89,3.36-13.84,2.17-1.98,4.79-3.57,6.34-6.06,1.77-2.85,1.84-6.37,2.34-9.68,1.21-8.09,9.39-14.91,16.17-18.72C36.36,.98,45.91-.96,55.06,.45c4.71,.72,9.36,2.26,14.1,1.91,2.67-.2,5.25-1,7.89-1.36,8.44-1.16,17.09,2.23,23.52,7.82,6.43,5.59,10.83,13.19,13.94,21.11,2.48,6.3,4.22,13.02,3.83,19.77Z"/>
      <g>
        <path class="cls-1" d="M46.97,31.93c-4.27,2.09-7.67,5.44-9.22,9.95-.51,1.46-.85,3-1.07,4.67-2.54-6.62,3.2-14.76,10.28-14.62h0Z"/>
        <path class="cls-1" d="M36.52,28.78c-3.6,2.34-6.42,5.08-8.89,8.59-.29-4.62,4.28-9.03,8.89-8.59h0Z"/>
        <path class="cls-1" d="M97.14,29.86c7.44-2.76,16.44,3.78,16.1,11.72-.73-1.73-1.59-3.28-2.64-4.68-3.17-4.32-8.13-6.65-13.46-7.04h0Z"/>
      </g>
    </g>
  </g>
  <path class="cls-3" d="M21.89,114.91c2.23,2.23,4.8,4.13,7.38,5.97,3.68,2.62,7.42,5.17,11.28,7.53,3.7,2.28,7.62,4.81,11.74,6.25,7.54,2.66,15.53,4.36,23.49,5.39"/>
</svg>