<?xml version="1.0" encoding="UTF-8"?>
<svg id="Layer_1" data-name="Layer 1" xmlns="http://www.w3.org/2000/svg" viewBox="0 0 108.04 123.87">
  <defs>
    <style>
      .cls-1 {
        fill: #fff;
      }

      .cls-2 {
        stroke-width: 2.13px;
      }

      .cls-2, .cls-3, .cls-4 {
        fill: none;
        stroke: #000;
        stroke-linecap: round;
        stroke-linejoin: round;
      }

      .cls-3 {
        stroke-width: 1.94px;
      }

      .cls-4 {
        stroke-width: 2px;
      }
    </style>
  </defs>
  <path class="cls-1" d="M105.76,78.35c-.39,2.53-.97,5.07-1.75,7.54,.12,.31,.22,.65,.28,1.02,.71,4.52-2.81,10.86-5.32,14.4-2.97,4.19-7.01,7.63-11.67,9.81-4.1,1.92-8.65,2.84-13.17,2.75-4.84-.08-8.83-.69-13.12-2.05-2.87,2.84-5.18,6.26-6.72,9.99-6.55,.2-13.15-.07-19.57-1.01-4.32-.64-8.65-2.36-12.73-3.89-4.23-1.58-8.39-3.36-12.51-5.24-2.24-1.02-4.47-2.07-6.59-3.31,7.99-9.45,11.67-22.48,9.81-34.69-2.68-3.18-4.64-7.22-4.77-11.18-3.93-5.18-5.45-11.32-6.5-17.78-1.06-6.56-.13-13.32,2.62-19.36C9.59,13.15,21.69,4.69,34.71,2.31c21.38-3.91,49.27,1.19,61.95,20.55,3.07,4.68,5.36,9.97,6.99,15.59h0c3.76,12.91,4.03,27.46,2.11,39.9Z"/>
  <g>
    <g>
      <g>
        <g>
          <path d="M29.46,76.71c.03,1.6-.95,3.12-2.39,3.81-4.25,1.72-8.71-.54-12.07-3.04-4.27-3.53-7.53-8.42-8.19-14.05-.75-5.77,3.19-11.84,8.94-13.2,7.12-1.63,9.72,2.64,13.89,7.2,0,0-.54-.2-.54-.2,.47-.04,.94,.54,.89,.92,0,0-.35-.71-.35-.71,.43,.45,.88,.89,1.37,1.37,.33,.3,.05,.88-.38,.83-.76-.07-1.49-.37-2.12-.77l-.35-.71c-.05,.37,.42,.93,.88,.9-1.53-.52-2.51-2.02-3.5-3.06-5.9-8.31-17.49-2.16-16.37,7.2,.88,7.12,6.59,14.18,13.75,15.67,2.5,.49,4.07-.34,5.52-2.46,.28-.47,1.03-.23,1.01,.29h0Z"/>
          <path d="M46.94,102.5c16.4,11.82,39.57,11.68,51.2-6.53,5.4-8.24,7.08-18.26,7.53-27.97,.58-15.39-1.45-30.08-9.11-43.09-7.93-13.18-23.05-20.09-37.87-21.98C38.45,.23,16.5,4.54,5.99,23.83c-3.17,5.86-4.5,12.69-3.73,19.3,.96,6.66,2.36,13.38,6.04,19.08,.32,.47-.38,.98-.73,.56-3.51-3.96-5.41-9.12-6.47-14.23C-.99,39.96-.15,30.62,4.12,22.83,10.76,10.23,24.2,2.21,38.15,.65c20.38-2.53,43.95,2.01,57.4,18.69,11.9,15.77,13.89,36.85,11.72,56.3-1.36,12.54-7.01,25.53-18.19,32.28-11.06,6.74-25.61,6.32-36.73-.04-2.19-1.31-4.26-2.82-6.09-4.57-.21-.2-.22-.54-.02-.75,.18-.19,.48-.21,.69-.06h0Z"/>
          <path class="cls-4" d="M2.25,109.1c.22-.24,.43-.49,.64-.74,7.99-9.45,11.67-22.48,9.81-34.69,0-.02,0-.04,0-.06"/>
          <path class="cls-4" d="M61.99,110.89c-.33,.3-.66,.61-.98,.93-2.87,2.84-5.18,6.26-6.72,9.99-.15,.35-.29,.7-.42,1.06"/>
          <path class="cls-4" d="M90.52,56.5l5.01,9.53c1.25,2.37,2.53,5.08,1.71,7.63-.67,2.11-2.68,3.57-4.81,4.18s-4.38,.51-6.59,.41"/>
          <path d="M70.02,41.54c4-2.94,10.2-2.6,13.9,.68,.43,.37-.04,1.08-.55,.84-4.16-1.84-8.58-2.01-12.9-.63-.53,.19-.92-.57-.46-.89h0Z"/>
          <path d="M93.42,42.6c2.04-2.31,4.88-3.95,7.89-4.69,1.06-.17,2.09-.72,3.12-.02,.29,.21,.36,.61,.15,.9-.41,.5-.96,.67-1.45,.71-3.28,.49-6.35,1.85-9.03,3.84-.46,.37-1.08-.3-.68-.73h0Z"/>
        </g>
        <path d="M78.24,89.49c4.12,1.8,7.9,2.8,12.29,1.22,.55-.17,.9,.64,.4,.92-1.98,1.23-4.47,1.88-6.82,1.49-2.39-.38-4.48-1.48-6.34-2.75-.49-.32-.06-1.12,.48-.88h0Z"/>
      </g>
      <ellipse cx="77.76" cy="53.78" rx="2.03" ry="3.18"/>
      <ellipse cx="97.5" cy="52.15" rx="1.39" ry="2.19"/>
    </g>
    <g>
      <path class="cls-3" d="M71.05,46.21h13.01c2.06,0,3.74,1.68,3.74,3.74v2.06c0,5.46-4.43,9.9-9.9,9.9h-.7c-5.46,0-9.9-4.43-9.9-9.9v-2.06c0-2.06,1.68-3.74,3.74-3.74Z"/>
      <path class="cls-2" d="M94.94,45.66h8.18c1.1,0,1.99,.89,1.99,1.99v4.62c0,4.32-3.51,7.83-7.83,7.83h-.12c-2.97,0-5.38-2.41-5.38-5.38v-5.9c0-1.74,1.41-3.16,3.16-3.16Z"/>
      <line class="cls-3" x1="25.13" y1="53.6" x2="67.91" y2="47.91"/>
      <line class="cls-3" x1="87.81" y1="49.95" x2="91.78" y2="49.95"/>
    </g>
    <path d="M104.29,86.91c-.06-.37-.16-.71-.28-1.02-.51-1.3-1.56-2.04-2.84-2.46-2.07-.7-4.74-.56-6.64-.65-4.94-.25-9.88-.49-14.82-.73-7.21-.36-13.7,1.52-20.36,3.94-3.91-7.5-7.82-15.01-11.73-22.51-2.21-4.25-4.59-8.69-8.6-11.33-.18-.12-.36-.23-.54-.32-4-2.32-9.73-2.2-12.44,1.51,.03,.04,.07,.09,.09,.13,1.14,1.47,2.1,3.04,2.93,4.68,0,0,0,0,0,.01,3.2,6.25,4.52,13.49,5.94,20.44,2.97,14.55,8.35,26.5,22.74,32.08,1.12,.43,2.2,.81,3.26,1.14,4.29,1.36,8.28,1.97,13.12,2.05,4.52,.09,9.07-.83,13.17-2.75,4.66-2.18,8.7-5.62,11.67-9.81,2.51-3.54,6.03-9.88,5.32-14.4Zm-8.66,7.02c-.69,.53-1.53,.82-2.36,1.04-6.94,1.83-14.78-.27-19.86-5.33-.35-.35-.72-.8-.6-1.28,.14-.55,.82-.75,1.39-.84,6.57-1.02,14.17-2,20.23,1.36,1.13,.63,2.29,1.56,2.35,2.84,.04,.86-.47,1.68-1.15,2.21Z"/>
  </g>
</svg>