<?xml version="1.0" encoding="UTF-8"?>
<svg id="Layer_1" data-name="Layer 1" xmlns="http://www.w3.org/2000/svg" viewBox="0 0 124.6 155.78">
  <defs>
    <style>
      .cls-1 {
        fill: #fff;
      }

      .cls-2, .cls-3, .cls-4 {
        fill: none;
      }

      .cls-3 {
        stroke: #fff;
        stroke-miterlimit: 10;
        stroke-width: .98px;
      }

      .cls-4 {
        stroke: #000;
        stroke-linecap: round;
        stroke-linejoin: round;
        stroke-width: 2px;
      }
    </style>
  </defs>
  <path class="cls-1" d="M123.51,62.19c-.69,3.03-1.68,5.99-2.9,8.85-.6,1.39-1.22,2.82-1.95,4.15-.3,.55-1.79,1.93-2.29,2.67-.02,.38-.05,.76-.09,1.15-.2,1.96-.58,3.93-.63,5.93-.07,3.11,.2,6.24,.81,9.29,.6,2.96,1.5,5.6,1.74,8.6,.52,6.49-.01,13.19-2.22,19.29-.52,4.12-3.25,8.89-5.31,11.8-2.97,4.19-7.01,7.64-11.67,9.81-4.1,1.92-8.65,2.84-13.17,2.76-.6-.01-1.2-.03-1.79-.07-1.37,2.54-2.2,5.37-2.36,8.26-7.36-1.06-14.72-2.71-21.69-5.17-4.12-1.45-8.03-3.98-11.74-6.27-3.85-2.37-7.59-4.92-11.27-7.55-3.08-2.19-6.14-4.49-8.65-7.31,4.7-3.68,6.09-11.17,2.77-16.22-1.07-1.63-2.51-2.96-3.96-4.27-.17,.53-.33,1.06-.5,1.59,.11-.51-3.4-3.43-3.87-3.91-1.12-1.12-2.3-1.73-3.54-2.69-2.9-2.21-5.45-4.87-7.96-7.49-3.93-4.08-7.3-8.74-9.25-14.05-2.29-6.24-2.49-13.04-1.32-19.52,1.04-5.76,2.46-12.13,6.59-16.54,3.37-3.59,6.47-6.89,9.22-11.04,4.56-6.86,7.34-14.35,13.44-20.11,4.47-4.2,9.55-7.83,15.3-10.15C55.38-.09,67.38-.41,78.16,.3c8.25,.55,16.24,3.5,22.58,8.51,2.42,1.91,4.6,4.12,6.46,6.61,6.58,8.79,12.99,17.99,16.15,28.58,1.76,5.9,1.52,12.23,.16,18.19Z"/>
  <g>
    <g>
      <g>
        <path d="M60.5,137.61c9.79,4.83,21.08,7.33,31.72,4.36,17.32-4.76,26.25-19.67,25.1-37.21-.06-2.82-.63-5.36-1.33-8.08-1.42-5.5-1.74-11.41-.79-17.02,.83-8.11-1.06-16.56-4.77-23.8,0,0,.87,.53,.87,.53-.43,.05-1.02-.46-.99-.97,0,0,.11,.42,.11,.42-2.53-4.93-6.07-9.32-10.34-12.85-12.4-10.3-32.52-14.52-45.84-3.67-4.26,3.44-7.34,8.26-8.44,13.63-1.14,5.37-.64,11.03,.21,16.56,1.31,8.34,3.31,17.08,1.69,25.63-.56,2.87-1.58,5.68-3.11,8.22-1.22,1.79-4.53-2.85-5.06-3.81,0,0-.13-.46-.13-.46-.02,.2,.09,.47,.24,.61-2.07-3.33-3.12-7.42-6.12-10.03-3.4-2.84-8.81-1.07-10.82,2.61-2.72,5.01,.08,11.02,4.3,14.32,5.09,4.11,8.14,9.3,5.96,15.92-.91,2.89-2.91,5.45-5.53,6.9-.16,.09-.35,.03-.44-.13-.08-.15-.04-.33,.1-.42,4.7-3.21,6.32-9.79,4.17-14.74-1.04-2.5-3.27-4.31-5.41-6.26-2.23-1.96-4.4-4.37-5.3-7.3-2.23-6.3,1.36-13.51,8.39-14.07,5.1-.52,8.41,4.19,10.18,8.31,.68,1.53,1.88,3.32,2.1,4.29,0,0-.13-.46-.13-.46,.85,1.42,1.89,2.68,3.21,3.49,0,0-1.25,.3-1.25,.3,1.4-2.33,2.34-4.92,2.86-7.61,3.13-16.63-8.39-34.74,1.29-50.4,11.89-18.74,38.93-15.87,54.15-2.92,4.49,3.81,8.55,8.48,10.95,13.89,.03-.5-.56-1-.97-.95,0,0,.87,.53,.87,.53,3.91,7.64,5.87,16.36,4.99,24.95-.4,2.8-.69,5.39-.49,8.2,.12,4.19,1.33,8.15,2.18,12.26,1.04,7.09,.55,14.38-1.62,21.26-5.37,17.08-24.36,26.79-41.56,23.42-5.66-1.03-11.1-3.28-15.67-6.66-.44-.34,0-1,.47-.77h0Z"/>
        <path class="cls-4" d="M100.91,95.92c2.12,2.47,3.65,5.46,4.41,8.63,.55,2.29,.6,4.99-1.01,6.7-1.24,1.32-3.22,1.73-5.01,1.5s-3.47-1.01-5.11-1.79"/>
        <path d="M84.89,120.12c4.78,3.36,10.62,3.77,15.84,1.13,.49-.27,.99,.43,.59,.81-4.52,4.65-13.31,4.03-17.12-1.22-.35-.44,.25-1.05,.7-.72h0Z"/>
        <path d="M71.31,83.17c3.66-6.02,13.5-6.28,17.47-.46,.32,.45-.27,1.03-.71,.71-4.83-3.47-11.37-3.29-16.01,.42-.42,.35-1.05-.21-.75-.67h0Z"/>
        <path d="M101.67,83.26c1.93-3.93,6.35-6.44,10.72-6.2,1.45,.06,3.02,.27,4.07,1.48,.3,.33,.06,.9-.38,.92-2.66,.14-4.88-.75-7.42,.15-2.36,.67-4.54,2.14-6.14,4.17-.35,.48-1.12,0-.85-.53h0Z"/>
        <path class="cls-4" d="M85.31,144.38c-.46,.65-.88,1.33-1.27,2.04-1.37,2.54-2.2,5.37-2.36,8.26,0,.03,0,.07,0,.1"/>
      </g>
      <g>
        <ellipse cx="83.19" cy="91.76" rx="2.66" ry="4.16"/>
        <ellipse cx="109.07" cy="89.61" rx="1.83" ry="2.87"/>
      </g>
    </g>
    <path d="M115.99,119.53c-.31-1.96-1.54-2.96-3.12-3.49-2.07-.7-4.74-.56-6.64-.65-4.94-.25-9.88-.49-14.82-.73-4.13-.21-8.24,.35-12.25,1.36-2.59,.66-5.11,1.57-7.48,2.83-2.72,1.45-3.47,1.65-5.13-1.16-2.81-4.74-5.26-9.69-7.34-14.79-4.15-10.2-6.81-21.01-7.82-31.98-.11-1.29-.32-2.76-1.16-3.66-.07-.08-.14-.15-.22-.21-.13-.11-.27-.21-.43-.3-1-.53-2.28-.26-3.22,.37-.55,.37-1.02,.85-1.47,1.34-.53,.58-1.05,1.19-1.67,1.68-1.22,.99-2.43,1.95-3.52,3.08-2.1,2.17-3.85,4.69-5.13,7.43-.69,1.48-1.26,3.07-1.2,4.71,.04,1.01,.3,1.97,.7,2.89-.01,0,0,.01,0,.01,.04,.1,.09,.19,.13,.29,.16,.34,.34,.69,.53,1.02,.59,1.06,1.3,2.08,1.96,3.08s1.27,2.03,1.86,3.07c.61,1.1,1.19,2.21,1.73,3.34,.01,.01,.02,.02,.02,.03,1.89,3.91,3.45,8.01,4.98,12.09,2.4,6.38,4.79,12.83,8.44,18.59,2.5,3.94,5.54,7.13,9,9.63,6.05,4.38,13.38,6.62,21.32,7.02,.59,.04,1.19,.06,1.79,.07,4.52,.08,9.07-.84,13.17-2.76,4.66-2.17,8.7-5.62,11.67-9.81,2.06-2.91,4.79-7.68,5.31-11.8,.13-.9,.14-1.78,.01-2.59Zm-36.02,1.64c1.01-.91,2.31-1.4,3.61-1.79,4.01-1.21,8.26-1.6,12.43-1.18,2.36,.24,14.71,2.15,9.94,7.01-.01,.02-.03,.03-.04,.04-.9,.91-2.21,1.24-3.45,1.5-5.94,1.25-12.05,1.65-18.1,1.21-1.16-.09-2.35-.21-3.41-.68-1.07-.47-2.02-1.35-2.3-2.48-.33-1.31,.32-2.72,1.32-3.63Z"/>
    <g>
      <path d="M123.51,62.19c-.69,3.03-1.68,5.99-2.9,8.85-.6,1.39-1.22,2.82-1.95,4.15-.3,.55-1.79,1.93-2.29,2.67-.11,.16-.18,.28-.18,.37,.06-1.93,.09-3.9,.03-5.88-.14-4.63-.8-9.29-2.77-13.53-.59-1.28-1.34-2.37-2.14-3.41-.01,0-.01,0-.01,0-1.04-1.33-2.17-2.58-3.17-4.03-.73-1.07-1.39-2.13-2.46-2.81-1.05-.67-2.36-1.01-3.44-1.71-2.23-1.44-4.12-3.4-5.43-5.69-.91-1.58-1.86-3.54-3.69-3.75-.4-.05-.79,0-1.17,.11-.91,.27-1.73,.92-2.47,1.54-3.42,2.85-6.59,5.62-10.5,7.76-2.01,1.1-4.02,2.2-6.03,3.3-.64,.35-5.69,2.59-5.69,3.11,0-.13-1.81,1.86-1.91,1.99-.67,.89-1.43,1.72-2.22,2.5-1.69,1.65-3.59,3.06-5.54,4.39-2.48,1.69-5.09,3.23-7.57,4.94-1.48,1.02-2.92,2.09-4.27,3.29-.17,.15-.33,.29-.49,.46-5.17,4.77-8.5,11.02-11.18,17.45-.01,0,0,.01,0,.01-.08,.18-.16,.36-.23,.54-.6,1.47-1.18,2.94-1.73,4.4-.71,1.88-1.75,3.51-2.22,5.47-.76,3.11-1.77,6.17-2.75,9.22-.17,.53-.33,1.06-.5,1.59,.11-.51-3.4-3.43-3.87-3.91-1.12-1.12-2.3-1.73-3.54-2.69-2.9-2.21-5.45-4.87-7.96-7.49-3.93-4.08-7.3-8.74-9.25-14.05-2.29-6.24-2.49-13.04-1.32-19.52,1.04-5.76,2.46-12.13,6.59-16.54,3.37-3.59,6.47-6.89,9.22-11.04,4.56-6.86,7.34-14.35,13.44-20.11,4.47-4.2,9.55-7.83,15.3-10.15C55.38-.09,67.38-.41,78.16,.3c8.25,.55,16.24,3.5,22.58,8.51,2.42,1.91,4.6,4.12,6.46,6.61,6.58,8.79,12.99,17.99,16.15,28.58,1.76,5.9,1.52,12.23,.16,18.19Z"/>
      <path class="cls-3" d="M88.49,40.44l4.38-3.7c.72-.61,1.52-1.18,2.19-1.85,.42-.42,.71-.94,1.12-1.38,2.14-2.33,3.85-5.01,4.92-7.98,1.16-3.23,1.57-6.71,1.22-10.11-.17-1.7-.55-3.34-1.11-4.95-.51-1.47-.53-2.8-1.8-3.94"/>
      <path class="cls-3" d="M33.42,91.2c.18-1.17,.62-2.32,1.1-3.39,1.65-3.68,3.68-7.2,6.04-10.48,1.21-1.68,2.5-3.29,3.87-4.84,.67-.76,1.36-1.51,2.08-2.22,.71-.7,1.47-1.33,2.25-1.94,.34-.27,.6-.58,.97-.81,.42-.26,.88-.46,1.35-.6"/>
    </g>
  </g>
  <path class="cls-2" d="M28.33,128.38c2.51,2.82,5.57,5.12,8.65,7.31,3.68,2.63,7.42,5.18,11.27,7.55,3.71,2.29,7.62,4.82,11.74,6.27,6.97,2.46,14.33,4.11,21.69,5.17"/>
</svg>