<?xml version="1.0" encoding="UTF-8"?>
<svg id="Layer_1" data-name="Layer 1" xmlns="http://www.w3.org/2000/svg" viewBox="0 0 118.95 129.91">
  <defs>
    <style>
      .cls-1 {
        fill: #fff;
      }

      .cls-2, .cls-3 {
        fill: none;
      }

      .cls-3 {
        stroke: #000;
        stroke-linecap: round;
        stroke-linejoin: round;
        stroke-width: 2px;
      }
    </style>
  </defs>
  <path class="cls-1" d="M118.77,56.28c-.23,2.51-.73,5.12-2.3,7.09-.98,1.22-2.47,2.1-3.98,2.31-.01,.19-.01,.37-.02,.56-.37,10.61-2.51,21.15-6.31,31.06-1.46,3.79-3.23,7.6-6.27,10.3-4.06,3.61-9.9,4.7-15.29,4-.73-.1-1.45-.22-2.17-.37-1.83,1.77-3.66,3.54-5.49,5.31-11.22-5.36-23.19-9.14-35.45-11.18,3.91-6.13,4.44-14.29,1.45-20.92-.08,.01-.15,.01-.22,.01-1.05,0-2.1-.08-3.13-.24-2.04-.32-4.02-.97-5.81-2-3.42-1.97-6.06-5.47-6.49-9.4-.33-2.98,.76-6.14,2.88-8.21-.36,.2-.71,.42-1.05,.69-3.06,2.4-3.74,7.06-2.18,10.63,1.36,3.08,4.12,3.83,5.94,6.2,1.91,2.48-2.42,3.37-2.96,6.18-.5,2.62,.72,5.29,2.35,7.4,1.64,2.11,3.7,3.86,5.29,6,4.85,6.5,4.41,16.4-1,22.44-5.4,6.04-15.18,7.57-22.17,3.48,3.31-.73,6.77-1.53,9.38-3.71,2.61-2.18,4.02-6.21,2.19-9.08-2.48-3.91-8.27-3-12.83-3.81-6.56-1.16-11.74-7.08-12.87-13.64-1.12-6.57,1.45-13.46,5.99-18.33,4.54-4.87,10.86-7.85,17.38-9.21-6.2-7.82-9.38-17.96-8.77-27.91,.99-16.15,12.14-30.9,26.88-37.54,14.75-6.64,32.45-5.49,46.92,1.74,18.54,9.25,32.03,29.51,30.11,50.15Z"/>
  <g>
    <g>
      <g>
        <path d="M47.44,87.53c-.65-.63-1.45-1.61-2.07-2.28-.11-.11-.15-.14-.3-.16-.75-.07-1.68,.21-2.37,.23-1.24,.04-2.49-.03-3.71-.24-9.93-1.29-17.3-13.04-9.52-21.21,0,0,.5-.49,.5-.49,.14-.13,.34,.08,.21,.21,0,0-.03-.01-.24,.03-.1,.03-.31,.09-.51,.32-.2,.23-.24,.51-.23,.64l.3-.71c4.2-4.29,11.28-2.94,15.29,.84,4.04,3.72,5.62,9.14,6.58,14.3,0,0-2.06,.2-2.06,.2-.31-16.39,7.85-32.56,21.1-42.18,4.98-3.62,10.75-6.23,16.89-7.14,10.75-1.26,20.46,7.28,23.68,16.93,1.41,3.87,2.13,7.95,2.41,12,.69,12.13-1.25,24.32-5.11,35.81-1.95,5.64-4.38,12.16-9.88,15.46-8.85,5.4-21.44,2.33-29.18-3.73-.27-.23-.02-.66,.3-.57,3.96,1.01,7.39,2.94,11.17,3.91,3.68,1.01,7.61,1.34,11.34,.52,8.37-1.53,11.76-8.89,14.24-16.29,2.6-7.46,4.3-15.26,4.94-23.14,.63-7.79,.54-15.88-2.15-23.26-2.52-7.21-8.39-13.48-15.92-15.23-7.49-1.65-15.46,2.23-21.5,6.45-12.67,9.24-20.55,24.73-20.27,40.43,.01,1.26-1.83,1.43-2.06,.2-.87-4.76-2.3-9.83-5.91-13.16-3.28-3.09-9.08-4.38-12.49-.93,0,0,.3-.7,.3-.7,0,.13-.04,.41-.24,.65-.28,.3-.59,.37-.79,.36,0,0,.7-.29,.7-.29-6.57,7.03,.1,16.68,8.46,17.87,1.13,.22,2.34,.35,3.5,.39,1.09-.03,2.81-.38,3.61,.77,.52,.77,1.23,1.92,1.71,2.7,.28,.46-.39,.91-.72,.48h0Z"/>
        <path class="cls-3" d="M76.64,116.83c.1-.1,.2-.19,.3-.29,1.83-1.77,3.66-3.54,5.49-5.31"/>
        <path class="cls-3" d="M40.75,106.45c.26-.35,.51-.72,.74-1.09,3.91-6.13,4.44-14.29,1.45-20.92"/>
        <path d="M77.82,60.45c3.62-2.35,8.43-2.75,12.51-1.33,1.36,.47,2.78,1.1,3.58,2.45,.25,.39-.14,.92-.59,.81-1.42-.26-2.45-.91-3.66-1.34-3.66-1.3-7.72-1.23-11.36,.29-.54,.25-.98-.57-.47-.88h0Z"/>
        <path d="M102.96,61.91c.38-1.95,2.2-3.2,3.88-3.99,1.78-.75,3.78-.85,5.56-.29,.26,.08,.41,.37,.33,.63-.07,.23-.3,.38-.54,.35-2.45-.28-4.85,.45-6.61,2.11-.57,.55-1.07,1.14-1.77,1.69-.36,.31-.94-.04-.85-.5h0Z"/>
        <path class="cls-3" d="M100.16,70.7c2.19,2.15,3.99,4.7,5.29,7.48,.72,1.55,1.28,3.39,.56,4.94-.58,1.25-1.9,2.03-3.25,2.32-1.35,.28-2.75,.14-4.12,0"/>
        <path d="M84.02,89.94c4.08,4.2,10.13,5.33,15.45,2.86,.51-.26,.98,.49,.54,.84-4.93,4.34-13.75,2.7-16.79-3.11-.29-.5,.42-1.01,.81-.59h0Z"/>
      </g>
      <ellipse cx="88.05" cy="68.13" rx="2.03" ry="3.18"/>
      <ellipse cx="106.35" cy="68.94" rx="1.39" ry="2.17"/>
    </g>
    <g>
      <path d="M118.77,56.28c-.23,2.51-.73,5.12-2.3,7.09-.98,1.22-2.47,2.1-3.98,2.31-.94,.12-1.89-.01-2.73-.48,.94-2.3,1.52-4.73,1.75-7.2,.19-2,.15-4.02-.12-6.01-.43-3.17-1.43-6.26-3-9.05-3.75-6.71-10.67-11.56-18.26-12.79-.03,.22-.07,.45-.11,.67-1.96,11.29-9.06,21.61-18.93,27.44-5.31,3.14-11.53,5.19-15.42,9.98-3.57,4.4-4.52,10.49-3.74,16.11s3.11,10.89,5.52,16.02c-5.34-2.23-7.91-8.32-9.06-14-.64-3.18-1.04-6.48-1.79-9.64-.6-2.47-1.41-4.85-2.75-7.01-2.82-4.56-9.12-7.53-13.66-5.13,0,.01-.01,.01-.02,.01-.36,.2-.71,.42-1.05,.69-3.06,2.4-3.74,7.06-2.18,10.63,1.36,3.08,4.12,3.83,5.94,6.2,1.91,2.48-2.42,3.37-2.96,6.18-.5,2.62,.72,5.29,2.35,7.4,1.64,2.11,3.7,3.86,5.29,6,4.85,6.5,4.41,16.4-1,22.44-5.4,6.04-15.18,7.57-22.17,3.48,3.31-.73,6.77-1.53,9.38-3.71,2.61-2.18,4.02-6.21,2.19-9.08-2.48-3.91-8.27-3-12.83-3.81-6.56-1.16-11.74-7.08-12.87-13.64-1.12-6.57,1.45-13.46,5.99-18.33,4.54-4.87,10.86-7.85,17.38-9.21-6.2-7.82-9.38-17.96-8.77-27.91,.99-16.15,12.14-30.9,26.88-37.54,14.75-6.64,32.45-5.49,46.92,1.74,18.54,9.25,32.03,29.51,30.11,50.15Z"/>
      <path class="cls-1" d="M55.45,68.46c8.93-12.31,15.17-26.35,16.8-41.55,.15-1.16,1.9-.98,1.78,.2-2.03,14.99-8.28,30.15-18.58,41.35h0Z"/>
      <path class="cls-1" d="M46.54,76.92c2.97-12.58,5.61-25.76,6.61-38.63,.11-1.16,1.86-1.04,1.79,.15-.56,6.57-1.51,13.1-2.91,19.55-1.38,6.43-3.05,12.82-5.49,18.94h0Z"/>
    </g>
  </g>
  <path class="cls-2" d="M41.49,105.36c12.26,2.04,24.23,5.82,35.45,11.18"/>
</svg>