<?xml version="1.0" encoding="UTF-8"?>
<svg id="Layer_1" data-name="Layer 1" xmlns="http://www.w3.org/2000/svg" viewBox="0 0 136.17 159.19">
  <defs>
    <style>
      .cls-1 {
        fill: #fff;
      }

      .cls-2, .cls-3, .cls-4, .cls-5, .cls-6 {
        fill: none;
      }

      .cls-3 {
        stroke-width: 2.13px;
      }

      .cls-3, .cls-4, .cls-5, .cls-6 {
        stroke: #000;
        stroke-linecap: round;
        stroke-linejoin: round;
      }

      .cls-4 {
        stroke-width: 1.94px;
      }

      .cls-5 {
        stroke-width: 2.39px;
      }

      .cls-6 {
        stroke-width: 2px;
      }
    </style>
  </defs>
  <path class="cls-1" d="M122.29,89.34c.08,2.87,.12,5.74,.13,8.61,.59,.61,1.14,1.27,1.26,2.09,.11,.79-.21,1.6-.73,2.21-.16,.19-.34,.36-.54,.52-.01,1.68-.03,3.36-.06,5.03,.63,.33,1.14,.75,1.37,1.33,.05,.13,.1,.27,.14,.41,.62,1.98,.38,4.91,.31,6.85-.18,5.54-1.57,11.03-3.74,16.11-1.94,4.54-4.91,8.76-9.05,11.44-6.54,4.24-14.14,3.99-21.36,2.33-2.69,3.6-5.07,7.42-7.11,11.43-8.64-.18-17.44-1.1-25.82-3.17-4.24-1.05-8.38-3.19-12.29-5.1-4.06-1.99-8.03-4.16-11.94-6.43-3.5-2.02-6.99-4.13-9.88-6.95-.23-.23-.45-.45-.67-.69,4.33-4.47,7.23-10.32,8.16-16.48,.03-.2,.06-.4,.08-.6-.82,.64-1.78,1.07-2.83,1.15-3.29,.27-5.93-2.52-7.91-5.12-7.39-9.67-13.69-20.35-16.73-32.07C.04,70.52,.47,57.65,5.97,46.84c4.72-9.3,12.95-16.61,22.33-21.4s19.87-7.19,30.39-8.19c14.42-1.37,29.67-.01,42.03,7.43s20.98,22.01,18.05,35.96c-1.69-3.95-4.15-7.58-7.16-10.7,3.58,4.11,6.1,9.19,7.67,14.45,1.19,3.97,1.88,8.06,2.3,12.19h1.7c1.1,0,1.99,.89,1.99,1.99v4.61c0,2.5-1.17,4.72-2.98,6.16Z"/>
  <g>
    <g>
      <path class="cls-6" d="M92.71,142.86c-.93,1.11-1.83,2.25-2.69,3.41-2.69,3.6-5.07,7.42-7.11,11.43-.08,.16-.17,.33-.25,.49"/>
      <path d="M102.35,114.18c3.67,1.33,7.3,1.8,11.19,1.94,.55,.01,.65,.84,.13,.99-1.96,.65-4.09,.67-6.12,.3-2.03-.37-4-1.14-5.66-2.34-.23-.16-.28-.48-.11-.71,.13-.18,.37-.25,.58-.18h0Z"/>
      <path d="M92.51,67.9c3.94-1.02,8.42-.26,11.73,2.12,.45,.33,.55,.96,.22,1.41-.28,.38-.76,.5-1.18,.34-1.71-.63-3.4-1.16-5.15-1.48-1.75-.33-3.53-.43-5.35-.42-1.16,.02-1.39-1.69-.27-1.98h0Z"/>
      <path d="M114.32,72.05c1.52-.59,3.17-.85,4.8-.83,.54,.01,1.11-.05,1.6,.42,.6,.55,.49,1.56-.2,1.99-.52,.37-.97,.25-1.45,.24-1.45-.04-2.86,.02-4.32,.13-1.13,.09-1.49-1.55-.44-1.95h0Z"/>
      <path class="cls-6" d="M112.99,104.92c2.72,.41,5.57-.04,8.04-1.28,.49-.24,.96-.52,1.38-.87,.2-.16,.38-.33,.54-.52,.52-.61,.84-1.42,.73-2.21-.12-.82-.67-1.48-1.26-2.09l-.31-.31c-2.3-2.24-4.6-4.49-6.89-6.74"/>
      <path d="M122.8,102.77c.74,28.14,1.46,41.01-31.33,41.2-6.92-.03-13.83-1.12-20.45-3.12-.53-.16-.83-.72-.67-1.25,.16-.53,.71-.82,1.24-.67,6.46,1.88,13.18,2.78,19.89,2.83,32.84-.36,28.37-12.23,30.53-38.99,.02-.46,.77-.5,.79,0h0Z"/>
      <path d="M36.92,103.25c-6.52,3.73-15.28,.42-18.24-6.33,0,0,.94,.6,.94,.6-.14,0-.43-.04-.67-.25-.34-.26-.37-.64-.38-.82-5.43-10.69,6.3-26.73,20.05-19.95,6.54,3.31,10.75,9.98,12.57,16.9,.3,1.13,.45,2.51,.66,3.31,.22,.77,1.07,.95,1.79,1.14,1.6,.46,3.35-.96,4.19-2.69,.88-1.79,.75-4.21,.56-6.2-.18-2.22-.38-4.63-.39-6.95-.05-5.79,.6-11.86,2.79-17.32,0,0,1.2-3.24,1.2-3.24,1.19-3.22,3.62-9.74,4.82-12.96,.75-1.84,1.6-4.49,2.15-6.47,.97-3.59,3.02-4.15,6.3-4,2.26,.01,4.62-.17,6.89-.14,25.79-.39,38.43,14.5,40.46,39.31,.19,4.06,.74,9.85,.6,13.86-.06,2.31-.17,4.62-.47,6.92-.08,.37-.57,.38-.64,0-1.29-9.16-.68-18.4-2.36-27.34-1.59-8.76-5.32-17.55-12.28-23.29-8.41-6.86-19.95-7.66-30.44-7.12-1.39,.11-3.62-.15-4.69,.32-1.27,.88-1.54,3.82-2.17,5.48,0,0-1.21,3.29-1.21,3.29-2.13,5.97-5.09,13.36-7.08,19.33-1.5,5.36-1.77,11.13-1.44,16.72,.14,3.57,1.11,7.15-.53,10.79-.89,1.81-2.47,3.45-4.53,3.94-2.14,.43-5.01-.43-5.71-2.71-1.29-9.2-7.83-20.31-18.15-20.24-8.73,.24-14.83,11.13-10.95,18.84,0,0,.19,.39,.19,.39,.03,.05-.05,.11-.09,.06,0,0,.02-.03-.03-.25-.03-.11-.1-.33-.34-.53-.24-.21-.53-.25-.66-.24l.94,.6c.66,1.39,1.56,2.66,2.67,3.72,3.28,3.19,8.7,4,12.69,1.77,1.17-.63,2.1,1.09,.98,1.75h0Z"/>
      <path d="M21.59,135.24c-.07-.54,.29-.68,.5-.97,.24-.26,.47-.52,.7-.79,6.87-7.99,8.83-19.67,5.1-29.5-.46-1.22,1.38-1.96,1.87-.72,4.31,10.83,1.74,23.83-6.34,32.23-.27,.24-.41,.63-.98,.6-.47-.02-.82-.4-.85-.85h0Z"/>
      <ellipse cx="98.21" cy="83.5" rx="2.03" ry="3.18"/>
      <ellipse cx="117.58" cy="83.5" rx="1.63" ry="2.56"/>
    </g>
    <path d="M118.77,60.64c-1.69-3.95-4.15-7.58-7.16-10.7-2.94-3.06-6.42-5.62-10.24-7.51-.02-.01-.04-.02-.06-.03-.78-.38-1.57-.73-2.38-1.06,0-2.23-14.51-2.69-16.19-2.59-1.05,.07-2.42,.14-3.88,.29-2.97,.31-6.3,.95-8.03,2.46-.33,.29-.61,.65-.85,1.06-.63,1.06-.99,2.47-1.22,3.98-.42,2.82-.37,6-.63,7.93-.9,6.57-1.8,13.15-2.7,19.73-.59,4.31-1.18,8.61-1.77,12.92-.19,1.39-.39,2.8-.72,4.18-.4,1.85-1.03,3.62-2.12,5.17-1.89,2.71-5.64,4.46-8.66,3.06-.55-.26-1.04-.59-1.46-.98-2.21-2.01-2.86-5.57-3.93-8.52-1.72-4.77-5.45-8.9-10.27-10.69-4.81-1.78-10.64-.99-14.48,2.38-.99,.87-1.81,1.9-2.45,3.04-1.87,3.29-2.21,7.42-.48,10.78,.16,.31,.34,.62,.53,.91,0,.01,0,.02,.01,.02,1.69,2.64,4.38,4.52,6.92,6.54,1.03,.81,2.03,1.65,2.93,2.57,.68,.69,1.31,1.42,1.84,2.23,1.35,2.05,2.07,4.59,1.5,6.96-.33,1.37-1.16,2.64-2.27,3.51-.82,.64-1.78,1.07-2.83,1.15-3.29,.27-5.93-2.52-7.91-5.12-7.39-9.67-13.69-20.35-16.73-32.07C.04,70.52,.47,57.65,5.97,46.84c4.72-9.3,12.95-16.61,22.33-21.4s19.87-7.19,30.39-8.19c14.42-1.37,29.67-.01,42.03,7.43s20.98,22.01,18.05,35.96Z"/>
    <g>
      <g>
        <path class="cls-1" d="M133.97,21.91c2.15,6.99,.63,14.71-2.6,21.27-3.23,6.57-8.04,12.19-12.8,17.75-3.25-5.55-9.07-9.27-15.23-11.07-6.17-1.8-12.73-1.84-19.15-1.39-7.35,.51-14.66,1.69-21.82,3.47-6.79,1.69-13.16,4.14-19.63,6.74-1.83,.74-3.65,1.53-5.44,2.36-1.82,.84-3.61,1.71-5.39,2.64-1.76,.92-3.52,1.9-5.23,2.91-1.72,1.02-3.42,2.08-5.1,3.18-1.59,1.05-3.24,2.09-4.7,3.34-.06,.04-.11,.08-.17,.13,.2-.35,.37-.68,.51-1.05,.11-.29,.19-.59,.32-.86,.32-.74,.57-1.52,.87-2.27,.59-1.51,1.24-3,1.94-4.46,1.46-3.08,3.11-6.04,4.86-8.95,3.49-5.79,7.41-11.31,11.43-16.74,.59-.81,1.18-1.62,1.78-2.42,6-8.04,12.97-15.5,20.99-21.48,3.65-2.73,7.5-5.15,11.6-7.18C84.1,1.31,99.64-.95,113.53,3.54c9.06,2.93,17.63,9.27,20.44,18.37Z"/>
        <path class="cls-1" d="M59.43,15c-8.02,5.98-14.99,13.44-20.99,21.48-.6,.8-1.2,1.6-1.78,2.42-4.02,5.43-7.93,10.95-11.43,16.74-1.75,2.91-3.4,5.88-4.86,8.95-.69,1.46-1.35,2.96-1.94,4.46-.3,.75-.55,1.53-.87,2.27-.13,.28-.22,.57-.32,.86-.14,.37-.31,.71-.51,1.05,.06-.05,.11-.1,.17-.13-3.59,3.45-6.5,6.37-11.13,9.24-3.17-7.83-5.22-16.29-4.37-24.69,1.4-13.98,10.93-26.34,23.05-33.45,10.52-6.19,22.76-8.78,34.99-9.21Z"/>
      </g>
      <g>
        <path class="cls-5" d="M16.89,73.11c-.06,.04-.11,.08-.17,.13,.2-.35,.37-.68,.51-1.05,.11-.29,.19-.59,.32-.86,.32-.74,.57-1.52,.87-2.27,.59-1.51,1.24-3,1.94-4.46,1.46-3.08,3.11-6.04,4.86-8.95,3.49-5.79,7.41-11.31,11.43-16.74,.59-.81,1.18-1.62,1.78-2.42,6-8.04,12.97-15.5,20.99-21.48,3.65-2.73,7.5-5.15,11.6-7.18C84.1,1.31,99.64-.95,113.53,3.54c9.06,2.93,17.63,9.27,20.44,18.37,2.15,6.99,.63,14.71-2.6,21.27-3.23,6.57-8.04,12.19-12.8,17.75-3.25-5.55-9.07-9.27-15.23-11.07-6.17-1.8-12.73-1.84-19.15-1.39-7.35,.51-14.66,1.69-21.82,3.47-6.79,1.69-13.16,4.14-19.63,6.74-1.83,.74-3.65,1.53-5.44,2.36-1.82,.84-3.61,1.71-5.39,2.64-1.76,.92-3.52,1.9-5.23,2.91-1.72,1.02-3.42,2.08-5.1,3.18-1.59,1.05-3.24,2.09-4.7,3.34Z"/>
        <path class="cls-5" d="M16.89,73.11c-3.59,3.45-6.5,6.37-11.13,9.24-3.17-7.83-5.22-16.29-4.37-24.69,1.4-13.98,10.93-26.34,23.05-33.45,10.52-6.19,22.76-8.78,34.99-9.21"/>
      </g>
    </g>
    <g>
      <path class="cls-4" d="M91.22,77.12h13.01c2.06,0,3.74,1.68,3.74,3.74v2.06c0,5.46-4.43,9.9-9.9,9.9h-.7c-5.46,0-9.9-4.43-9.9-9.9v-2.06c0-2.06,1.68-3.74,3.74-3.74Z"/>
      <path class="cls-3" d="M125.27,78.57v4.61c0,2.5-1.17,4.72-2.98,6.16-1.33,1.05-3.02,1.68-4.85,1.68h-.12c-2.97,0-5.38-2.41-5.38-5.38v-5.9c0-1.75,1.42-3.16,3.16-3.16h8.18c1.1,0,1.99,.89,1.99,1.99Z"/>
      <line class="cls-4" x1="57.35" y1="72.54" x2="88.08" y2="78.83"/>
      <line class="cls-4" x1="107.97" y1="80.86" x2="111.95" y2="80.86"/>
    </g>
    <path d="M123.86,109.54c-.04-.14-.09-.28-.14-.41-.23-.58-.74-1-1.37-1.33-1.43-.72-3.51-.91-4.72-1.08-6.14-.88-12.44-.57-18.47,.89-2.54,.61-6.12,1.26-8.23,2.89-1.53,1.18-2.92,3.57-3.63,5.32-.36,.89-.62,1.82-.75,2.77-.07,.51-.09,.98-.05,1.49,.01,.21-.01,2.63,.02,2.63-.12,0-.17-.07-.28-.12-12.11-5.97-21.03-17.99-23.3-31.29-.08-.48-.16-.95-.22-1.43-.98,.14-2.03,.43-3.05,.62-.59,.11-1.17,.19-1.73,.18-1.56-.02-2.75-.28-4.18,.65-1.4,.93-2.83,2.97-3.2,4.83-.1,.47-.13,.93-.08,1.36,.04,.35,.12,.7,.22,1.04,.24,.86,.63,1.69,1.02,2.5,0,1.2,1.59,3.35,2.12,4.46,.79,1.66,1.58,3.32,2.37,4.98,1.54,3.23,3.08,6.47,4.62,9.7,2.19,4.6,3.42,9.62,5.94,14.07,1.82,3.2,4.04,6.17,7.64,7.25,3.69,1.1,7.32,2.42,11.02,3.53,1.5,.46,3.04,.88,4.59,1.23,7.22,1.66,14.82,1.91,21.36-2.33,4.14-2.68,7.11-6.9,9.05-11.44,2.17-5.08,3.56-10.57,3.74-16.11,.07-1.94,.31-4.87-.31-6.85Zm-28.58,4.56c.14-.56,.82-.75,1.39-.84,6.58-1.03,14.18-2.01,20.24,1.36,1.12,.62,2.28,1.55,2.34,2.83,.04,.86-.47,1.69-1.15,2.22-.68,.53-1.53,.81-2.36,1.03-6.94,1.83-14.77-.27-19.86-5.32-.35-.35-.72-.81-.6-1.28Z"/>
  </g>
  <path class="cls-2" d="M22.31,135.36c.22,.24,.44,.46,.67,.69,2.89,2.82,6.38,4.93,9.88,6.95,3.91,2.27,7.88,4.44,11.94,6.43,3.91,1.91,8.05,4.05,12.29,5.1,8.38,2.07,17.18,2.99,25.82,3.17"/>
</svg>