<?xml version="1.0" encoding="UTF-8"?>
<svg id="Layer_1" data-name="Layer 1" xmlns="http://www.w3.org/2000/svg" viewBox="0 0 104.32 148.4">
  <defs>
    <style>
      .cls-1 {
        fill: #fff;
      }

      .cls-2, .cls-3 {
        fill: none;
      }

      .cls-3 {
        stroke: #000;
        stroke-linecap: round;
        stroke-linejoin: round;
        stroke-width: 2px;
      }
    </style>
  </defs>
  <path class="cls-1" d="M99.49,96.71c-1.8,4.78-4.55,9.58-9.13,11.83-1.51,.74-3.14,1.16-4.82,1.32,1.27-.01,2.53-.16,3.77-.44-3.07,2.3-3.19,7.04-2.56,10.46,.71,3.82,2.21,7.64,1.59,11.47-.48,2.98-2.19,5.61-3.15,8.47-.96,2.86-.94,6.49,1.41,8.38-7.19,1.24-14.68-3.32-17.84-9.9-1.21-2.53-1.84-5.28-1.94-8.07-9.92-1.92-19.84-3.85-29.75-5.77,.38,3.91,1.29,7.76,2.75,11.4,.56,1.41,1.21,2.8,1.44,4.3,.24,1.5,0,3.15-1.02,4.27-1.46,1.6-3.98,1.61-6.1,1.15-4.62-1.01-7.97-3.92-11.73-6.52-3.8-2.63-7.23-5.82-10.2-9.35-6.03-7.16-10.72-16.21-11.5-25.57-.48-5.63-1.06-10.76-.43-16.44,.61-5.58,1.7-11.08,2.43-16.64,.84-6.4,1.17-12.86,.99-19.31-.08-3.26-.74-6.62-.66-9.86,.06-2.67,1.1-5.62,1.88-8.2,1.06-3.5,2.43-6.92,4.2-10.13C14.19,14.31,22.59,6.94,32.42,3.11,41.54-.44,51.96-.63,61.51,.95c9.21,1.54,19.02,10.02,25.08,16.68,6.02,6.62,10.74,15.44,9.99,24.15-.03,.33-.06,.65-.11,.98,2.96,7.16,5.15,14.63,6.18,22.31,1.44,10.61,.63,21.62-3.16,31.64Z"/>
  <g>
    <g>
      <path class="cls-3" d="M75.19,134.66c-3.32-4.28-4.67-10.04-3.6-15.36,.81-3.97,2.96-7.65,5.98-10.36"/>
      <g>
        <path d="M41.37,103.14c-3.81-5.99-7.22-15.65-10.2-22.16,0,0,.74,.59,.74,.59,0,0-1.26-.31-1.26-.31-3.34-.96-7.65-3.44-9.04-7.16-.01,.24,.12,.55,.29,.7-2.32-3.8-1.97-9.2,1.3-12.4,3.35-3.15,9.33-2.98,12.01,.99,0,0-1.93,.49-1.93,.49,.81-10.71,4.93-21.13,11.67-29.51l.84-.4c-.1,0-.21,.01-.36,.07-.4,.16-.7,.54-.7,.98,0,0,.24-.65,.24-.65,7.38-9.21,18.35-19.76,31.23-17.42,9.54,2.28,14.96,11.46,18.69,19.76,4,8.26,7.02,17.06,8.47,26.13,1.92,12.12,1.17,24.87-3.68,36.29-2.36,5.77-7.37,11.35-14.04,11.58,0,0,.52-.25,.52-.25,0,0-.04,.03-.04,.03-.15,.11-.24,.21-.58,.22-.36-.02-.45-.11-.62-.26,0,0,.69,.25,.69,.25-6.41,.38-11.14-2.13-16.69-5.1-.23-.13-.05-.46,.18-.37,3.68,1.51,7.28,2.92,10.64,3.55,1.88,.32,3.83,.44,5.71,.22,0,0,.69,.25,.69,.25l-.03-.03c-.28-.3-.91-.27-1.17,.03,0,0,.53-.25,.53-.25,2.85-.3,5.47-1.54,7.52-3.53,2.06-1.96,3.53-4.53,4.71-7.21,7.73-18.05,4.97-38.92-2.79-56.54-1.87-3.9-3.76-8.45-6.09-12.03-4.5-7.54-12.56-13.32-21.53-10.11-8.62,2.58-15.04,9.28-20.64,16.14,0,0,.24-.65,.24-.65,0,.56-.54,1.09-1.09,1.06,0,0,.84-.4,.84-.4-6.47,8.01-10.46,18.03-11.25,28.31-.04,.58-.55,1.02-1.13,.98-.34-.03-.63-.22-.81-.48-1.78-2.8-6.52-2.89-8.8-.63-2.51,2.39-2.75,6.69-1.11,9.68,0,0-.17-.23-.17-.23,.18,.17,.32,.49,.31,.74l-.12-.49c1.51,2.82,4.63,4.83,7.66,5.69,.57,.19,1.61,.2,1.84,.87,1.73,3.91,5.56,13.03,7.11,16.86,.71,1.91,1.38,3.83,1.87,5.83,.12,.37-.46,.63-.65,.28h0Z"/>
        <path d="M74.29,86.57c5.7,2.19,11.95,2.64,17.91,1.35,.59-.13,.85,.75,.28,.96-4.51,1.67-9.57,1.72-14.18,.42-1.54-.44-3.04-1.04-4.43-1.82-.24-.14-.33-.44-.19-.68,.12-.22,.39-.31,.61-.23h0Z"/>
        <path d="M53.34,44.12c5.24-4.45,13.4-5.36,19.5-2.19,.49,.25,.23,1.04-.31,.95-6.36-.94-12.69-.23-18.67,2.1-.51,.21-.93-.51-.51-.86h0Z"/>
        <path d="M86.25,42.16c2.37-1.44,5.27-2.01,8.04-1.77,.92,.09,1.91,.12,2.64,.95,.28,.31,.14,.84-.26,.97-.97,.38-1.72,.09-2.56,.02-.82-.08-1.65-.12-2.48-.08-1.66,.06-3.32,.33-4.96,.82-.55,.19-.91-.63-.41-.91h0Z"/>
        <path class="cls-3" d="M85.47,56.87c.88,4.25,3.1,8.21,6.26,11.18,.66,.61,1.41,1.31,1.41,2.2,0,.56-.3,1.07-.62,1.53-1.47,2.08-3.6,3.69-6.01,4.52"/>
      </g>
    </g>
    <g>
      <ellipse cx="73.8" cy="56.67" rx="2.03" ry="3.18" transform="translate(-5.51 8.01) rotate(-5.99)"/>
      <ellipse cx="94.02" cy="54.51" rx="1.39" ry="2.19" transform="translate(-5.18 10.11) rotate(-5.99)"/>
    </g>
    <g>
      <g>
        <path d="M96.58,41.78c-.03,.33-.06,.65-.11,.98-.11,.9-.29,1.8-.54,2.7,.3-1.1,.35-2.3,.19-3.56-.01-.08-.03-.16-.04-.24-.68-4.59-4.01-9.92-7.3-13.93-1.52-1.86-3.03-3.43-4.27-4.52-1.24-1.1-3.55-3.48-5.25-3.71-1.82-.24-4.04,1.3-5.87,1.74-4.49,1.07-9.21,.64-13.67,1.9-1.49,.42-2.9,1.03-4.22,1.78-4.06,2.3-7.35,5.98-9.7,10.13,0,0,0,.01-.01,.01-.44,.78-.85,1.58-1.22,2.39-1.35,2.89-2.73,6.26-3.23,9.39-.62,3.9-.38,8.14-.57,12.09-.12,2.62-2.16,8.88-6.03,6.68-2.65-1.51-2.89-4.64-6.63-4.23-2.69,.28-5.15,2.29-6.11,4.8-.07,.17-.13,.34-.18,.52-.06,.2-.11,.4-.15,.61-.46,2.19-.02,4.66,.96,6.77t.01,.02c.36,.76,.78,1.46,1.26,2.09,.58,.76,1.37,1.38,2.27,1.93,.55,.34,1.14,.66,1.74,.96,.02,.01,.03,.02,.05,.03,.62,.32,1.24,.63,1.85,.96,.23,.12,.46,.24,.68,.38,.06,.03,.11,.06,.16,.09,.64,.38,1.24,.79,1.76,1.25,.13,.11,.25,.23,.37,.36,3.4,3.24,4.48,7.49,5.96,11.81,.46,1.36,.73,2.72,.84,4.09,.47,5.46-1.44,10.93-2.24,16.33-.49,3.33-.58,6.73-.27,10.08,.38,3.91,1.29,7.76,2.75,11.4,.56,1.41,1.21,2.8,1.44,4.3,.24,1.5,0,3.15-1.02,4.27-1.46,1.6-3.98,1.61-6.1,1.15-4.62-1.01-7.97-3.92-11.73-6.52-3.8-2.63-7.23-5.82-10.2-9.35-6.03-7.16-10.72-16.21-11.5-25.57-.48-5.63-1.06-10.76-.43-16.44,.61-5.58,1.7-11.08,2.43-16.64,.84-6.4,1.17-12.86,.99-19.31-.08-3.26-.74-6.62-.66-9.86,.06-2.67,1.1-5.62,1.88-8.2,1.06-3.5,2.43-6.92,4.2-10.13C14.19,14.31,22.59,6.94,32.42,3.11,41.54-.44,51.96-.63,61.51,.95c9.21,1.54,19.02,10.02,25.08,16.68,6.02,6.62,10.74,15.44,9.99,24.15Z"/>
        <path d="M86.75,119.88c.71,3.82,2.21,7.64,1.59,11.47-.48,2.98-2.19,5.61-3.15,8.47-.96,2.86-.94,6.49,1.41,8.38-7.19,1.24-14.68-3.32-17.84-9.9-1.21-2.53-1.84-5.28-1.94-8.07-.17-4.47,.98-9.04,3.14-12.98,.74-1.37,1.61-2.67,2.62-3.86,1.09-1.29,2.26-3.15,3.76-4,.37-.21,.77-.34,1.18-.4,.04-.01,.08-.01,.13-.02,1.1-.12,2.28,.16,3.31,.41,1.49,.35,3.03,.51,4.56,.48t.02,0c1.27-.01,2.53-.16,3.77-.44-3.07,2.3-3.19,7.04-2.56,10.46Z"/>
      </g>
      <g>
        <path class="cls-1" d="M38.89,25.68c-1.78,3.9-4.35,8.4-6.34,12.2-.72,1.34-1.45,2.69-2.31,4.04,.17-3.17,1.24-6.2,2.7-8.99,1.51-2.76,3.42-5.34,5.96-7.25h0Z"/>
        <path class="cls-1" d="M44.27,25.81c-4.25,6.61-7.32,13.63-9.33,21.23-.83-7.97,2.91-16.44,9.33-21.23h0Z"/>
      </g>
    </g>
    <g>
      <path d="M29.91,76.1c.61,.32,1.1,1.09,.75,1.69-.26,.44-.86,.57-1.36,.47s-.96-.36-1.45-.51-1.07-.19-1.47,.12c-.65,.51-.4,1.63,.26,2.12s1.54,.53,2.36,.55c.63,.02,1.28,.03,1.86-.23,.82-.37,1.32-1.21,1.56-2.07,.72-2.55-.67-5.11-3.42-5.3-.86-.06-1.97-.03-2.07,1.04-.15,1.58,2.03,1.63,2.98,2.12Z"/>
      <polygon class="cls-1" points="27.18 81.72 27.18 97.94 30.65 97.94 30.65 80.07 27.18 80.07 27.18 81.41 27.18 81.72"/>
    </g>
  </g>
  <path class="cls-2" d="M66.82,130.23c-9.92-1.92-19.84-3.85-29.75-5.77"/>
</svg>