<?xml version="1.0" encoding="UTF-8"?>
<svg id="Layer_1" data-name="Layer 1" xmlns="http://www.w3.org/2000/svg" viewBox="0 0 126.48 142.21">
  <defs>
    <style>
      .cls-1 {
        fill: #fff;
      }

      .cls-2, .cls-3, .cls-4, .cls-5 {
        fill: none;
      }

      .cls-3 {
        stroke-width: 2.13px;
      }

      .cls-3, .cls-4, .cls-5 {
        stroke: #000;
        stroke-linecap: round;
        stroke-linejoin: round;
      }

      .cls-4 {
        stroke-width: 1.94px;
      }

      .cls-5 {
        stroke-width: 2px;
      }
    </style>
  </defs>
  <path class="cls-1" d="M125.42,62.41v4.62c0,3.05-1.74,5.69-4.29,6.98,.05,2.32,.08,4.65,.09,6.97h0c.6,.6,1.14,1.27,1.26,2.09,.11,.79-.21,1.59-.73,2.2-.16,.19-.34,.37-.54,.52-.03,5.34-.18,10.68-.44,16.02-.32,6.33-1.04,13.23-5.52,17.71-3.29,3.28-8.02,4.62-12.6,5.38-3.68,.62-7.41,.94-11.14,.98-3.86,4.61-7.18,9.65-9.89,15.02-8.23-.12-16.58-.92-24.58-2.78-4.25-.98-8.42-3.06-12.36-4.91-4.09-1.92-8.09-4.04-12.04-6.24-3.53-1.97-7.05-4.03-9.99-6.81-.57-.54-1.11-1.1-1.62-1.7,4.38-4.48,7.31-10.37,8.24-16.56,.02-.13,.04-.25,.05-.38-.81,.63-1.76,1.05-2.8,1.13-3.29,.27-5.93-2.52-7.91-5.12-7.39-9.67-13.68-20.36-16.73-32.07C-1.16,53.74-.73,40.87,4.77,30.06c4.73-9.3,12.95-16.61,22.33-21.4C36.48,3.87,46.97,1.47,57.49,.47c14.42-1.37,29.67-.01,42.03,7.43,12.36,7.44,20.98,22.01,18.05,35.96-1.41-3.3-3.36-6.37-5.71-9.11,2.82,3.76,4.87,8.14,6.22,12.66,1.27,4.24,1.97,8.6,2.38,13.02h2.97c1.1,0,1.99,.89,1.99,1.98Z"/>
  <g>
    <g>
      <path class="cls-5" d="M91.51,125.88c-3.86,4.61-7.18,9.65-9.89,15.02-.06,.1-.11,.21-.16,.31"/>
      <path d="M101.15,97.21c3.67,1.33,7.3,1.8,11.19,1.94,.55,.01,.65,.84,.13,.99-1.96,.65-4.09,.67-6.12,.3-2.03-.37-4-1.14-5.66-2.34-.23-.16-.28-.48-.11-.71,.13-.18,.37-.25,.58-.18h0Z"/>
      <path d="M91.32,50.93c3.94-1.02,8.42-.26,11.73,2.12,.45,.33,.55,.96,.22,1.41-.28,.38-.76,.5-1.18,.34-1.71-.63-3.4-1.16-5.15-1.48-1.75-.33-3.53-.43-5.35-.42-1.16,.02-1.39-1.69-.27-1.98h0Z"/>
      <path d="M113.12,55.07c1.52-.59,3.17-.85,4.8-.83,.54,.01,1.11-.05,1.6,.42,.6,.55,.49,1.56-.2,1.99-.52,.37-.97,.25-1.45,.24-1.45-.04-2.86,.02-4.32,.13-1.13,.09-1.49-1.55-.44-1.95h0Z"/>
      <path class="cls-5" d="M111.79,87.95c2.73,.41,5.58-.05,8.04-1.28,.48-.25,.96-.52,1.38-.88,.2-.15,.38-.33,.54-.52,.52-.61,.84-1.41,.73-2.2-.12-.82-.66-1.49-1.26-2.08h0c-.1-.12-.21-.22-.31-.32-2.3-2.25-4.59-4.5-6.89-6.74"/>
      <path d="M121.6,85.79c.68,28.01,1.49,41.07-31.33,41.2-6.92-.03-13.83-1.12-20.45-3.12-.53-.16-.83-.72-.67-1.25,.16-.53,.71-.82,1.24-.67,6.46,1.88,13.18,2.78,19.89,2.83,33.01-.39,28.24-12.26,30.53-38.99,.01-.47,.78-.5,.79,0h0Z"/>
      <path d="M35.72,86.27c-7.66,4.27-17.23-.65-19.2-8.96-2.9-10.98,7.87-22.73,19.11-18.56,8.15,3.07,13.28,11.39,14.77,19.65,.1,.63,.19,1.24,.33,1.52,.14,.43,.99,.79,1.52,.89,2.07,.7,4.17-1.43,4.77-3.65,.59-2.13,.25-4.55,.03-7.08-.21-2.54-.29-5.09-.21-7.65,.14-4.48,.73-9.03,2.23-13.29,.1-.17,5.57-15.07,5.91-15.89,.39-1.06,1.59-4.2,1.94-5.23,.32-1.06,.7-2.6,1.09-3.66,.34-.99,1.07-2.41,2.21-2.85,2.23-.86,4.69-.32,6.97-.53,8.9-.35,18.18,.39,26.14,4.82,11.61,6.43,16.65,19.97,17.93,32.52,.6,7.51,1.24,15.15,.3,22.66-.08,.36-.56,.38-.64,.01-.89-6.21-.83-12.52-1.32-18.73-.72-13.1-5.16-27.87-17.3-34.6-7.52-4.17-16.55-4.84-25.04-4.46-1.12,.02-2.74,.09-3.8,.06-1.17-.03-2.41,.14-2.66,.55-.59,.77-.9,2.02-1.2,3.04-.51,2.13-1.73,5.14-2.48,7.2-.34,.91-5.78,15.6-5.88,15.86-1.42,4.04-1.96,8.31-2.1,12.59-.07,2.46,0,4.93,.2,7.39,.19,2.43,.63,5.11-.11,7.88-.85,3.19-3.98,6.32-7.57,5.27-3.51-.77-3.26-3.24-3.88-6.02-1.77-6.79-6.18-13.58-12.91-16.13-9.52-3.65-18.75,6.61-16.31,15.91,1.6,7.01,9.71,11.32,16.18,7.74,1.17-.63,2.1,1.1,.98,1.75h0Z"/>
      <path d="M20.39,118.27c-.08-.52,.28-.69,.5-.97,.25-.26,.47-.53,.7-.79,6.88-7.99,8.83-19.68,5.1-29.51-.45-1.22,1.38-1.94,1.87-.71,4.31,10.83,1.74,23.84-6.34,32.22-.28,.24-.4,.61-.98,.6-.48,0-.82-.39-.85-.85h0Z"/>
      <ellipse cx="97.87" cy="67.34" rx="2.03" ry="3.18"/>
      <ellipse cx="115.8" cy="67.34" rx="1.63" ry="2.56"/>
    </g>
    <path d="M117.57,43.86c-1.41-3.3-3.36-6.37-5.71-9.11-3.79-4.44-8.66-7.99-14.12-10.19,0-.03,0-.05-.02-.08-.33-2.16-14.52-2.61-16.18-2.51-.2,.01-.41,.03-.63,.04h-.09c-3.34,.2-8.8,.62-11.18,2.71-.4,.35-.72,.79-.99,1.31-.5,.93-.81,2.09-1.02,3.34-.49,2.91-.42,6.3-.7,8.31-.92,6.69-1.83,13.38-2.75,20.07-.57,4.2-1.15,8.4-1.72,12.59-.44,3.26-.94,6.65-2.83,9.35-1.9,2.71-5.65,4.46-8.67,3.06-3.44-1.6-4.11-5.98-5.38-9.5-1.72-4.77-5.46-8.9-10.27-10.69-4.82-1.78-10.65-.99-14.49,2.38-1.17,1.03-2.11,2.29-2.79,3.69-1.56,3.16-1.75,6.99-.14,10.12,.27,.52,.57,1.01,.91,1.47,1.57,2.2,3.83,3.87,6.04,5.61,1.24,.96,2.46,1.95,3.53,3.06,.65,.66,1.24,1.37,1.75,2.14,1.35,2.05,2.07,4.59,1.5,6.96-.34,1.38-1.17,2.66-2.3,3.53-.81,.63-1.76,1.05-2.8,1.13-3.29,.27-5.93-2.52-7.91-5.12-7.39-9.67-13.68-20.36-16.73-32.07C-1.16,53.74-.73,40.87,4.77,30.06c4.73-9.3,12.95-16.61,22.33-21.4C36.48,3.87,46.97,1.47,57.49,.47c14.42-1.37,29.67-.01,42.03,7.43,12.36,7.44,20.98,22.01,18.05,35.96Z"/>
    <g>
      <path class="cls-4" d="M91.37,60.97h13.01c2.06,0,3.74,1.68,3.74,3.74v2.06c0,5.46-4.43,9.9-9.9,9.9h-.7c-5.46,0-9.9-4.43-9.9-9.9v-2.06c0-2.06,1.68-3.74,3.74-3.74Z"/>
      <path class="cls-3" d="M125.42,62.41v4.62c0,3.05-1.74,5.69-4.29,6.98-1.06,.54-2.27,.85-3.54,.85h-.12c-2.97,0-5.38-2.41-5.38-5.38v-5.9c0-1.74,1.42-3.15,3.16-3.15h8.18c1.1,0,1.99,.89,1.99,1.98Z"/>
      <line class="cls-4" x1="57.5" y1="56.39" x2="88.23" y2="62.68"/>
      <line class="cls-4" x1="108.12" y1="64.71" x2="112.09" y2="64.71"/>
    </g>
  </g>
  <path class="cls-2" d="M21.03,118.46c.51,.6,1.05,1.16,1.62,1.7,2.94,2.78,6.46,4.84,9.99,6.81,3.95,2.2,7.95,4.32,12.04,6.24,3.94,1.85,8.11,3.93,12.36,4.91,8,1.86,16.35,2.66,24.58,2.78"/>
</svg>