<?xml version="1.0" encoding="UTF-8"?>
<svg id="Layer_1" data-name="Layer 1" xmlns="http://www.w3.org/2000/svg" viewBox="0 0 125.32 180.29">
  <defs>
    <style>
      .cls-1, .cls-2 {
        fill: #fff;
      }

      .cls-2 {
        stroke-width: 1.92px;
      }

      .cls-2, .cls-3, .cls-4, .cls-5, .cls-6 {
        stroke: #000;
        stroke-linecap: round;
        stroke-linejoin: round;
      }

      .cls-3 {
        stroke-width: 2.07px;
      }

      .cls-3, .cls-4, .cls-7, .cls-5, .cls-6 {
        fill: none;
      }

      .cls-4 {
        stroke-width: 2.27px;
      }

      .cls-5 {
        stroke-width: 1.72px;
      }

      .cls-6 {
        stroke-width: 2px;
      }
    </style>
  </defs>
  <path class="cls-1" d="M123.96,84.54c-.78,3.5-1.87,7.01-3.38,10.27-1.58,3.43-1.85,6.43-2.09,10.22-.51,8.17-2.54,16.62-6.6,23.86-4.38,7.79-10.67,12.4-18.95,15.36-4.24,1.52-12.08,2.27-15.3-1.68-1.22-1.48-1.83-3.37-2.01-5.29-6.77,.73-13.72-.17-20.08-2.58,.73,.75,1.42,1.53,2.04,2.35,6.17,8.14,7.59,19.94,2.78,29.07-5.94,11.26-20.63,17.02-32.64,12.77-.47-2.7-.86-5.74-1.87-8.31-1.28-3.26-1.47-2.44-4.9-2.42-5.08,.03-10.15-1.73-13.99-5.1-4.96-4.37-7.6-11.25-6.84-17.82,.73-6.25,4.23-11.77,6.48-17.65,7.96-20.88-.39-44.27,1.58-66.52C10.22,38.13,24.09,16.57,44.11,5.2,52.47,.46,63.29-2.42,71.4,2.72c7.06-4.35,16-2.28,22.99,2.19,6.99,4.47,11.87,11.57,15.85,18.85,6.76,12.39,12.69,25.67,14.53,39.79,.91,6.98,.74,14.11-.81,20.99Z"/>
  <g>
    <g>
      <path class="cls-3" d="M71.93,58.51h14.43c2.06,0,3.74,1.68,3.74,3.74v3.15c0,5.46-4.43,9.9-9.9,9.9h-2.12c-5.46,0-9.9-4.43-9.9-9.9v-3.15c0-2.06,1.68-3.74,3.74-3.74Z"/>
      <path class="cls-4" d="M97.5,57.93h9.1c1.1,0,1.99,.89,1.99,1.99v5.62c0,4.32-3.51,7.83-7.83,7.83h-1.04c-2.97,0-5.38-2.41-5.38-5.38v-6.9c0-1.74,1.41-3.16,3.16-3.16Z"/>
      <line class="cls-3" x1="35.98" y1="53.61" x2="68.83" y2="60.34"/>
      <line class="cls-3" x1="90.1" y1="62.51" x2="94.35" y2="62.51"/>
    </g>
    <g>
      <path d="M123.96,84.54c-.78,3.5-1.87,7.01-3.38,10.27-1.58,3.43-1.85,6.43-2.09,10.22-.51,8.17-2.54,16.62-6.6,23.86-4.38,7.79-10.67,12.4-18.95,15.36-4.24,1.52-12.08,2.27-15.3-1.68-1.22-1.48-1.83-3.37-2.01-5.29-.04-.53-.06-1.07-.04-1.6,.09-3.29,.86-7.96,2.93-10.58,.81-1.02,1.83-2.37,2.97-3.55,1.01-1.06,2.11-1.98,3.2-2.42,1-.4,2.05-.5,3.12-.49,1.32,.02,2.69,.21,4.02,.24h.13c9.01,.12,12.49-6.67,15.21-13.89,4.83-12.84,4.9-27.27,1.43-40.91-.52-2.07-1.12-4.12-1.81-6.14-3.65-10.84-9.49-20.92-16.87-28.98-.16,.33-.31,.66-.46,.98-1.87,3.91-3.45,7.12-7.13,10.01-2.38,1.88-5.01,3.41-7.65,4.92-1.54,.88-3.08,1.76-4.58,2.7-2.07,1.29-4.06,2.71-5.96,4.25-2.37,1.89-4.59,3.97-6.65,6.19-.45,.48-.9,.97-1.33,1.46-3.23,3.71-9.15,10-9.93,14.76-.22,1.36-.94,2.99-2.32,3.01-.99,.02-1.75-.84-2.35-1.63-1.89-2.51-2.86-5.21-6.35-4.87-.47,.05-.94,.14-1.4,.27-1.59,.44-3.06,1.38-4.08,2.68-.32,.4-.6,.83-.82,1.29-.91,1.9-1.05,3.48-.67,4.87,.17,.67,.47,1.29,.87,1.88,1.56,2.38,4.59,4.19,7.08,6.25,.42,.35,.82,.7,1.2,1.07,.01,.01,.02,.02,.03,.02,1.04,1.01,1.88,2.09,2.35,3.34,.75,2,.66,4.15,.46,6.29-.07,.8-.16,1.59-.23,2.38-.63,7.32,.74,15.25,4.27,21.74,2.51,4.63,7.47,7.92,11.28,11.88,.73,.75,1.42,1.53,2.04,2.35,6.17,8.14,7.59,19.94,2.78,29.07-5.94,11.26-20.63,17.02-32.64,12.77-.47-2.7-.86-5.74-1.87-8.31-1.28-3.26-1.47-2.44-4.9-2.42-5.08,.03-10.15-1.73-13.99-5.1-4.96-4.37-7.6-11.25-6.84-17.82,.73-6.25,4.23-11.77,6.48-17.65,7.96-20.88-.39-44.27,1.58-66.52C10.22,38.13,24.09,16.57,44.11,5.2,52.47,.46,63.29-2.42,71.4,2.72c7.06-4.35,16-2.28,22.99,2.19,6.99,4.47,11.87,11.57,15.85,18.85,6.76,12.39,12.69,25.67,14.53,39.79,.91,6.98,.74,14.11-.81,20.99Z"/>
      <path class="cls-1" d="M56.13,12.4c-5.27,3.49-10.36,7.6-12.95,13.47-2.09,4.27-1.99,9.32-3.45,13.9-1.58,4.8-5.25,8.4-8.83,11.79-4.78,4.27-10.59,7.27-14.29,12.55-1.81,2.52-3.12,5.42-3.33,8.67-.66-3.22,.43-6.67,2.22-9.41,3.55-5.56,9.46-8.89,14.27-13.07,3.36-3.17,6.91-6.58,8.42-11.02,1-3.02,1.26-6.21,2.01-9.35,2.01-7.92,8.24-14.78,15.91-17.53h0Z"/>
      <path class="cls-1" d="M59.76,45.88c-6.04,10.21-17.08,15.93-24.59,24.77-7.58,8.31-11.82,21.3-5.17,31.41-.99-1.07-1.85-2.29-2.54-3.61-2.7-5.4-2.54-11.89-.51-17.49,3.71-9.82,12.1-16.86,19.8-23.47,4.45-3.78,8.84-7.47,13.01-11.6h0Z"/>
    </g>
    <g>
      <path class="cls-6" d="M82.25,143.63c-3.32-4.28-4.67-10.04-3.6-15.36,.81-3.97,2.96-7.65,5.98-10.36"/>
      <g>
        <path d="M76.22,114.07c3.93,1.15,7.56,2.84,11.38,3.52,14.02,2.79,18.72-11.53,20.78-22.61,2.78-15.83-.84-32.15-7.49-46.61-3.95-8.53-9.03-18.76-19.15-20.5-9.97-.97-18.57,6.15-24.88,13.16-8.18,8.73-13.55,19.98-14.47,31.95,0,.96-1.37,1.3-1.84,.49-1.3-2.06-4.35-2.73-6.75-1.89-3.84,1.19-5.12,6.25-3.76,9.8,1.44,3.88,5.31,6.34,9.29,7.16,.35,.05,.64,.29,.76,.6,0,0,8.86,22.74,8.86,22.74,.04,.11-.01,.23-.12,.27-.1,.04-.22,0-.26-.11,0,0-10.32-22.11-10.32-22.11l.72,.59c-4.59-.92-9.14-3.87-10.81-8.45-1.73-4.57,.02-10.76,5-12.37,3.18-1.09,7.15-.22,9.07,2.7,0,0-1.84,.47-1.84,.47,0,0,0-.03,0-.03,.85-12.39,6.4-24.23,14.79-33.28,7.68-8.99,21.08-18.55,32.97-11.75,7.48,4.25,11.27,12.27,14.73,19.67,6.79,14.84,10.45,31.61,7.55,47.88-2.25,12.33-7.83,27.21-23.19,24.23-4.19-.74-7.97-2.57-11.33-4.87-.34-.24-.07-.75,.3-.64h0Z"/>
        <path d="M83.65,95.63c4.97,2.1,10.28,1.89,15.43,.63,.27-.05,.54,.12,.59,.4,.05,.24-.09,.48-.31,.56-1.27,.5-2.59,.9-3.95,1.19-2.72,.6-5.67,.59-8.35-.24-1.35-.4-2.63-.96-3.83-1.64-.24-.14-.32-.44-.19-.68,.12-.21,.38-.3,.61-.22h0Z"/>
        <path d="M60.41,53.09c5.24-4.44,13.4-5.36,19.5-2.19,.49,.25,.23,1.04-.31,.95-6.36-.94-12.69-.23-18.67,2.1-.51,.21-.93-.51-.51-.86h0Z"/>
        <path d="M93.94,54.43c2.37-1.44,5.27-2.01,8.04-1.77,.92,.09,1.91,.12,2.64,.95,.28,.31,.14,.84-.26,.97-.97,.38-1.72,.09-2.56,.02-.82-.08-1.65-.12-2.48-.08-1.66,.06-3.32,.33-4.96,.82-.55,.19-.91-.63-.41-.91h0Z"/>
        <path class="cls-6" d="M92.54,65.84c.88,4.25,3.1,8.21,6.26,11.18,.66,.61,1.41,1.31,1.41,2.2,0,.56-.3,1.07-.62,1.53-1.47,2.08-4.17,2.07-6.58,2.9"/>
      </g>
    </g>
    <g>
      <ellipse cx="80.56" cy="65.69" rx="2.03" ry="3.18"/>
      <ellipse cx="100.89" cy="65.65" rx="1.39" ry="2.19"/>
    </g>
    <g>
      <path class="cls-5" d="M33.66,81.91c.99,.08,2,.21,2.92,.57s1.78,.99,2.25,1.87c.72,1.34,.37,3.14-.73,4.2s-2.82,1.37-4.26,.87-2.57-1.74-3.06-3.18"/>
      <g>
        <ellipse class="cls-2" cx="35.98" cy="93.82" rx="7.75" ry="5.84"/>
        <ellipse cx="35.98" cy="93.82" rx="3.42" ry="2.58"/>
      </g>
    </g>
  </g>
  <path class="cls-7" d="M55.55,134.7c6.36,2.41,13.31,3.31,20.08,2.58"/>
</svg>