<?xml version="1.0" encoding="UTF-8"?>
<svg id="Layer_1" data-name="Layer 1" xmlns="http://www.w3.org/2000/svg" viewBox="0 0 107.11 155.67">
  <defs>
    <style>
      .cls-1, .cls-2 {
        fill: #fff;
      }

      .cls-2 {
        stroke-width: 1.92px;
      }

      .cls-2, .cls-3, .cls-4 {
        stroke: #000;
        stroke-linecap: round;
        stroke-linejoin: round;
      }

      .cls-3 {
        stroke-width: 1.72px;
      }

      .cls-3, .cls-4 {
        fill: none;
      }

      .cls-4 {
        stroke-width: 2px;
      }
    </style>
  </defs>
  <path class="cls-1" d="M75.94,135.26h.01l.49,.03c2.27,3.31,6.24,5.5,10.24,5.23,1.38-.1,2.99-.73,3.2-2.09,.22-1.44-1.25-2.5-2.43-3.37-4.93-3.64-7.46-10.27-6.21-16.27,.31-1.53,1.1-3.42,.78-4.99-.05-.23-.11-.4-.17-.54,.12,.04,.25,.07,.38,.1,3.64,.81,7.59,.75,10.94-.89,4.58-2.25,7.33-7.06,9.13-11.83,3.79-10.02,4.6-21.03,3.16-31.65-.93-6.83-2.76-13.5-5.23-19.94h-.01c-1.36-3.56-2.93-7.06-4.65-10.47-.47-.94-.96-1.88-1.47-2.81,1.41,1.66,3.16,4.21,4.85,4.58,4.61,1.01,.59-11.89-.44-14.1-2.6-5.59-6.93-10.23-11.82-13.97C77.81,5.5,66.93,1.5,55.82,.34c-9.16-.95-18.62,.03-27.08,3.68-8.47,3.64-15.85,10.07-19.87,18.36-2.87,5.92-4.84,13.73-4.92,20.34-.04,3.04,1.45,6.17,1.77,9.29,.36,3.47,.17,6.99-.59,10.39C3.41,70.12-.31,77.86,.02,86.05c.32,8.07,2.61,17.21,7.09,24.02,5.27,8.01,13.65,13.34,20.57,19.99,4.64,4.47,8.77,10.03,10.33,16.38,.36,1.5,.58,3.05,.59,4.6,.01,1.02-.75,3.54,.08,4.31,1.75,1.62,6.69-3.31,7.66-4.56,2.01-2.59,3.09-5.88,3.01-9.16-.03-.89-.06-1.94,.65-2.48,.56-.42,1.38-.31,1.96,.08,.58,.38,.98,.98,1.36,1.56,1.19,1.8,2.37,3.6,3.56,5.41,.45,.68,1.12,1.46,1.91,1.26,.95-.24,1.02-1.55,.84-2.51-.73-3.83-1.7-7.43-3.11-10.89l19.42,1.2Z"/>
  <g>
    <g>
      <path class="cls-4" d="M78,138.6c-3.32-4.28-4.67-10.04-3.6-15.36,.81-3.97,2.96-7.65,5.98-10.36"/>
      <g>
        <path d="M44.18,107.06c-3.81-5.98-7.22-15.68-10.21-22.18,0,0,.74,.62,.74,.62-6.17-1.1-12.21-6.5-11.43-13.24,.23-3.29,2.34-6.62,5.6-7.66,3.21-1.08,7.19-.28,9.14,2.72,0,0-1.94,.49-1.94,.49,.86-11.01,5.19-21.72,12.26-30.21,6.82-8.42,15.97-16.92,27.46-17.14,14.54,.92,20.57,16.68,25.38,28.22,0,0-.96-.66-.96-.66,.44,0,.82,.27,.97,.66,2.39,6.26,4.2,12.77,5.16,19.43,1.75,13.25,.8,27.65-6.26,39.33-4.53,7.23-12.65,8.66-19.89,6.03-3.01-.98-5.77-2.45-8.48-3.94-.1-.06-.14-.18-.08-.28,.05-.09,.16-.13,.26-.09,3.1,1.26,6.16,2.54,9.37,3.28,3.27,.76,6.95,.94,10.11-.23,6.11-2.28,8.98-8.84,10.88-14.73,5.1-15.7,2.92-32.88-2.99-48.06,0,0,.96,.66,.96,.66-.44,0-.82-.28-.97-.66-1.54-4-3.32-7.91-5.32-11.7-3.6-7.25-9.58-14.81-18.19-15.11-12.97,.58-22.52,11.56-29.5,21.5-4.58,7.13-7.38,15.41-8.07,23.86-.02,1-1.46,1.34-1.94,.49-1.27-2.03-4.31-2.7-6.69-1.87-2.43,.76-4,3.24-4.21,5.86-.63,5.7,4.52,10.07,9.79,11.05,.35,.07,.61,.31,.74,.62,1.64,3.92,5.62,12.98,7.1,16.83,.71,1.91,1.39,3.83,1.87,5.83,.12,.37-.46,.63-.65,.28h0Z"/>
        <path d="M95.29,92.8c-6.06,2.05-12.94,1.59-18.72-1.15,0,0,.85-1.28,.85-1.28,1.46,1.33,3.11,2.46,4.87,3.37,1.77,.9,3.66,1.57,5.62,1.97,.27,.05,.45,.32,.39,.59-.05,.25-.29,.42-.54,.4-4.21-.45-8.23-2.35-11.38-5.17-.66-.58,.06-1.67,.85-1.28,2.76,1.23,5.71,2.04,8.74,2.28,3.02,.28,6.08,.04,9.06-.68,.6-.15,.88,.76,.28,.96h0Z"/>
        <path d="M56.15,48.05c5.24-4.44,13.4-5.36,19.5-2.19,.49,.25,.23,1.04-.31,.95-6.36-.94-12.69-.23-18.67,2.1-.51,.21-.93-.51-.51-.86h0Z"/>
        <path d="M100.23,49.55c-2.58-.35-5.13-.27-7.61,.37-.81,.19-1.51,.59-2.52,.37-.42-.06-.64-.56-.41-.91,.59-.94,1.57-1.12,2.46-1.35,2.7-.66,5.64-.5,8.2,.53,0,0-.13-.02-.13-.02,.58,.05,.58,.94,0,1h0Z"/>
        <path class="cls-4" d="M88.28,60.8c.88,4.25,3.1,8.21,6.26,11.18,.66,.61,1.41,1.31,1.41,2.2,0,.56-.3,1.07-.62,1.53-1.47,2.08-3.6,3.69-6.01,4.52"/>
      </g>
    </g>
    <g>
      <ellipse cx="76.23" cy="61.39" rx="2.03" ry="3.18" transform="translate(-5.99 8.29) rotate(-5.99)"/>
      <ellipse cx="96.45" cy="59.22" rx="1.39" ry="2.19" transform="translate(-5.66 10.39) rotate(-5.99)"/>
    </g>
    <g>
      <g>
        <path d="M98.95,40.35c-1.69-.37-3.44-2.92-4.85-4.58-.3-.36-.59-.68-.86-.92-2.1-1.94-4.41-3.67-6.92-5.05-2.02-1.12-4.17-2-6.4-2.6-.97-.27-1.69-.6-2.69-.54-1.11,.06-2.22,.18-3.32,.33-2.17,.31-4.39,.79-6.33,1.83-3.72,1.98-6.96,4.8-9.68,8-2.36,2.76-4.36,5.81-6.16,8.96-1.72,3.03-3.53,6.03-4.32,9.42-.63,2.71-1.06,5.47-1.28,8.24-.12,1.24-.13,2.48-.19,3.71-.02,.64,.08,1.3,.12,1.94,.05,.66,.09,1.32,.14,1.98,.01,.09,.01,.17-.02,.25-.19,.52-.57-.32-.63-.44-.21-.45-.37-.91-.53-1.37-.23-.61-.39-1.24-.52-1.88-.27-1.28-.4-2.6-.5-3.9-.22-2.72-.04-5.46,.46-8.13,1-5.36,3.25-10.46,6.24-15,.29-.43,1.96-3.08,.8-3.33-.39-.08-.98,.82-1.22,1.07-.42,.45-.83,.91-1.23,1.38-.82,.96-1.59,1.96-2.31,2.99-1.43,2.05-2.67,4.23-3.69,6.51-.96,2.16-1.13,4.69-1.34,7.05-.26,2.78-.25,5.59,.02,8.38,.11,1.18,.27,2.41-.15,3.52-1.33,3.55-4.83,.81-6.16-1.05-.46-.64-.93-1.2-1.5-1.59-.55-.38-1.2-.6-2.01-.57-1.86,.09-3.68,.74-5.08,1.99-1.68,1.52-2.61,3.81-2.57,6.07,0,.8,.14,1.6,.4,2.36,.9,2.6,3.09,4.54,5.36,6.1,.26,.18,.53,.36,.8,.54,.66,.44,1.34,.87,2.01,1.31,.51,.33,1.02,.68,1.51,1.04,.26,.18,.51,.37,.76,.57,.55,.43,1.08,.9,1.57,1.4,1.03,1.06,1.87,2.26,2.56,3.56,1.46,2.74,2.23,5.89,2.71,8.99,.15,.99,.28,1.99,.4,2.99,.46,3.59,.83,7.19,1.99,10.61,1.76,5.18,5.2,9.6,8.25,14.15,1.61,2.41,2.89,4.87,3.93,7.42,1.41,3.46,2.38,7.06,3.11,10.89,.18,.96,.11,2.27-.84,2.51-.79,.2-1.46-.58-1.91-1.26-1.19-1.81-2.37-3.61-3.56-5.41-.38-.58-.78-1.18-1.36-1.56-.58-.39-1.4-.5-1.96-.08-.71,.54-.68,1.59-.65,2.48,.08,3.28-1,6.57-3.01,9.16-.97,1.25-5.91,6.18-7.66,4.56-.83-.77-.07-3.29-.08-4.31-.01-1.55-.23-3.1-.59-4.6-1.56-6.35-5.69-11.91-10.33-16.38-6.92-6.65-15.3-11.98-20.57-19.99C2.63,103.26,.34,94.12,.02,86.05c-.33-8.19,3.39-15.93,5.11-23.65,.76-3.4,.95-6.92,.59-10.39-.32-3.12-1.81-6.25-1.77-9.29,.08-6.61,2.05-14.42,4.92-20.34C12.89,14.09,20.27,7.66,28.74,4.02,37.2,.37,46.66-.61,55.82,.34c11.11,1.16,21.99,5.16,30.87,11.94,4.89,3.74,9.22,8.38,11.82,13.97,1.03,2.21,5.05,15.11,.44,14.1Z"/>
        <g>
          <path class="cls-1" d="M47.21,29.66c-3.4,6.34-5.64,12.94-6.83,20.04-1.68-7.17,1.13-15.38,6.83-20.04h0Z"/>
          <path class="cls-1" d="M41.05,26.68c-.66,1.4-1.61,2.93-2.34,4.24-.76,1.3-1.6,2.88-2.48,4.16-1.01-3.43,1.35-7.54,4.82-8.4h0Z"/>
        </g>
      </g>
      <path d="M89.88,138.43c-.21,1.36-1.82,1.99-3.2,2.09-4,.27-7.97-1.92-10.24-5.23-.1-.13-.19-.27-.28-.41-.89-1.42-1.49-2.99-1.82-4.63-.02-.09-.03-.19-.05-.29-.09-.5-.16-1-.19-1.51-.04-.47-.06-.93-.06-1.39,.01-1.44,.21-2.88,.59-4.25,.86-3.14,2.59-5.98,4.78-8.37,.42-.46,.98-1.13,1.48-1.42,.38-.22,.72-.22,.96,.24,.06,.14,.12,.31,.17,.54,.32,1.57-.47,3.46-.78,4.99-1.25,6,1.28,12.63,6.21,16.27,1.18,.87,2.65,1.93,2.43,3.37Z"/>
    </g>
    <g>
      <path class="cls-3" d="M29.7,75.87c.99,.08,2,.21,2.92,.57s1.78,.99,2.25,1.87c.72,1.34,.37,3.14-.73,4.2s-2.82,1.37-4.26,.87-2.57-1.74-3.06-3.18"/>
      <g>
        <ellipse class="cls-2" cx="32.01" cy="87.78" rx="7.75" ry="5.84"/>
        <ellipse cx="32.01" cy="87.78" rx="3.42" ry="2.58"/>
      </g>
    </g>
  </g>
</svg>