<?xml version="1.0" encoding="UTF-8"?>
<svg id="Layer_1" data-name="Layer 1" xmlns="http://www.w3.org/2000/svg" viewBox="0 0 121.89 158.67">
  <defs>
    <style>
      .cls-1 {
        fill: #fff;
      }

      .cls-2, .cls-3 {
        fill: none;
      }

      .cls-3 {
        stroke: #000;
        stroke-linecap: round;
        stroke-linejoin: round;
        stroke-width: 2px;
      }
    </style>
  </defs>
  <path class="cls-1" d="M115.37,67.47c-.31,.14-.62,.25-.93,.33,.57,1.44,1.07,2.9,1.52,4.37,.11,.37,.23,.75,.33,1.13,2.78,9.67,3.4,19.87,2.93,29.92-.45,9.33-1.93,18.91-6.81,26.86-5.31,8.66-14.6,14.77-24.65,16.22-4.27,.62-8.64,.39-12.83-.61-3.48,3.16-6.24,7.14-7.95,11.53-7.07,.12-14.2-.29-21.1-1.48-4.3-.74-8.59-2.57-12.62-4.2-4.2-1.69-8.31-3.58-12.38-5.55-1.74-.85-3.49-1.71-5.17-2.68,8.08-9.48,11.63-22.61,9.74-34.9-1.69-1.92-3.04-4.13-3.82-6.57-1.06-3.35-.9-7.16,.64-10.27-.13,.08-.27,.14-.41,.19-3,1.1-7.25-3.71-6.94-7.41-2.72,1.21-6.11-.51-7.26-3.68-1.15-3.17,.14-7.28,2.76-8.78-5.02-.86-9.34-5.8-10.24-11.72-.91-5.91,1.68-12.34,6.13-15.23-1.88-4.37-.97-10.19,2.1-13.48,3.08-3.29,8.05-3.76,11.52-1.09,.65-6.24,3.83-12.05,8.37-15.3,4.54-3.25,10.35-3.87,15.31-1.64C46.77,5.34,54.48,.85,61.97,.13c7.49-.71,14.92,1.71,22.16,4.11,5.46,1.81,10.99,3.66,15.82,7.18,4.83,3.52,8.93,9,9.95,15.61,2.6-.58,5.43,1.04,6.66,3.81,1.24,2.76,.78,6.45-1.08,8.67,2.61,.19,5.05,2.32,5.98,5.22,.93,2.9,.3,6.41-1.54,8.61,2.19,5.06-.07,12.1-4.55,14.13Z"/>
  <g>
    <g>
      <g>
        <g>
          <path d="M42.4,111.52c-.38,1.87-1.97,3.27-3.67,3.89-7.57,2.59-17.54-8.05-18.56-15.09-1.52-7.16,2.84-15.25,10.71-15.59,1.81-.12,3.69,.26,5.33,1.17,3,1.7,4.58,4.95,7.21,6.7,4.65,2.69,7.08-3.45,7.69-7.23,.56-3.33,2.48-6.94,5.43-8.81,4.58-3.33,12.85-5.74,11.68-12.47-.91-2.98-3.89-4.85-5.57-7.64-2.32-3.28-.99-7.98,2.1-10.23,2.96-2.33,6.63-2.76,9.76-3.29,8.05-1.34,17.57-3.54,24.77,1.66,14.75,11.54,20.7,30.95,21.15,49.07,.61,20.35-2.73,42.23-23.69,51.17-12.31,5.45-28.07,2.97-37.51-6.78-.4-.42,.18-1.03,.62-.68,9.99,7.89,24.23,10.85,36.06,5.53,20.02-8.61,22.86-29.68,22.28-49.16-.45-15.97-5.11-32.64-16.73-44.11-3.23-3.48-7.35-5.81-12.16-5.88-6.34-.23-12.88,1.2-19.09,2.42-4.04,.83-8.3,4.95-5.58,9.09,1.73,2.76,4.83,4.74,5.81,8.24,1.48,5.77-4.01,10.14-8.47,12.43-4.5,2.33-7.82,4.67-8.68,9.97-.38,1.57-.71,3.27-1.51,4.93-1.59,3.62-5.79,6.15-9.52,3.65-3.97-2.68-5.87-8.12-11.26-7.57-6.48,.23-10.02,7.11-8.74,13.03,.84,4.56,4.06,8.48,7.75,11.25,2.35,1.75,5.26,3.52,8.22,2.7,1.38-.38,2.65-1.29,3.16-2.64,.22-.62,1.14-.34,1.01,.28h0Z"/>
          <path class="cls-3" d="M15.19,143.9c.17-.19,.34-.39,.52-.59,8.08-9.48,11.63-22.61,9.74-34.9"/>
          <path class="cls-3" d="M74.93,145.69c-3.48,3.16-6.24,7.14-7.95,11.53-.06,.15-.11,.3-.17,.45"/>
          <path class="cls-3" d="M103.46,91.3c1.67,3.18,3.34,6.36,5.01,9.53,1.25,2.37,2.53,5.08,1.71,7.63-.67,2.11-2.68,3.57-4.81,4.18-2.13,.61-4.38,.51-6.59,.41"/>
          <path d="M82.95,76.34c4-2.94,10.2-2.6,13.9,.68,.43,.37-.04,1.08-.55,.84-4.16-1.84-8.58-2.01-12.9-.63-.53,.19-.92-.57-.46-.89h0Z"/>
          <path d="M106.36,77.4c2.04-2.31,4.88-3.95,7.89-4.69,1.06-.17,2.09-.72,3.12-.02,.29,.21,.36,.61,.15,.9-.41,.5-.96,.67-1.45,.71-3.28,.49-6.35,1.85-9.03,3.84-.46,.37-1.08-.3-.68-.73h0Z"/>
        </g>
        <path d="M91.18,124.29c4.12,1.8,7.9,2.8,12.29,1.22,.55-.17,.9,.64,.4,.92-1.98,1.23-4.47,1.88-6.82,1.49-2.39-.38-4.48-1.48-6.34-2.75-.49-.32-.06-1.12,.48-.88h0Z"/>
      </g>
      <ellipse cx="90.7" cy="88.58" rx="2.03" ry="3.18"/>
      <ellipse cx="110.43" cy="86.95" rx="1.39" ry="2.19"/>
    </g>
    <path d="M119.92,53.34c2.19,5.06-.07,12.1-4.55,14.13-.31,.14-.62,.25-.93,.33-4.3,1.23-9.28-2.11-10.41-7.23-1.93,3.2-5.31,5.08-8.62,4.79-3.31-.3-6.42-2.75-7.92-6.26-2.33,2.95-5.83,4.54-9.22,4.19-4.21-.45-6.43-3.01-8.51-6.98-.66,1.29-1.56,2.61-2.6,3.79-1.13,1.3-2.4,2.44-3.64,3.2-1.7,1.03-3.6,1.62-5.52,1.63-4.86,.02-9.59-3.69-11.48-9.01-.58,3.7-1.17,7.44-2.55,10.82s-3.66,6.42-6.66,7.61c-2.71,1.06-6.01,.29-7.86-2.2,1.15,2.05,1.75,4.91,.67,6.86-1.25,2.25-3.45,3.79-5.61,2.96,1.13,1.6,1.1,4.15,.32,6.26-.53,1.48-1.43,2.75-2.56,3.34-.13,.08-.27,.14-.41,.19-3,1.1-7.25-3.71-6.94-7.41-2.72,1.21-6.11-.51-7.26-3.68-1.15-3.17,.14-7.28,2.76-8.78-5.02-.86-9.34-5.8-10.24-11.72-.91-5.91,1.68-12.34,6.13-15.23-1.88-4.37-.97-10.19,2.1-13.48,3.08-3.29,8.05-3.76,11.52-1.09,.65-6.24,3.83-12.05,8.37-15.3,4.54-3.25,10.35-3.87,15.31-1.64C46.77,5.34,54.48,.85,61.97,.13c7.49-.71,14.92,1.71,22.16,4.11,5.46,1.81,10.99,3.66,15.82,7.18,4.83,3.52,8.93,9,9.95,15.61,2.6-.58,5.43,1.04,6.66,3.81,1.24,2.76,.78,6.45-1.08,8.67,2.61,.19,5.05,2.32,5.98,5.22,.93,2.9,.3,6.41-1.54,8.61Z"/>
  </g>
  <path class="cls-2" d="M15.71,143.31c1.68,.97,3.43,1.83,5.17,2.68,4.07,1.97,8.18,3.86,12.38,5.55,4.03,1.63,8.32,3.46,12.62,4.2,6.9,1.19,14.03,1.6,21.1,1.48"/>
</svg>