<?xml version="1.0" encoding="UTF-8"?>
<svg id="Layer_1" data-name="Layer 1" xmlns="http://www.w3.org/2000/svg" viewBox="0 0 131.95 143.67">
  <defs>
    <style>
      .cls-1 {
        fill: #fff;
      }

      .cls-2, .cls-3 {
        fill: none;
      }

      .cls-3 {
        stroke: #000;
        stroke-linecap: round;
        stroke-linejoin: round;
        stroke-width: 2px;
      }
    </style>
  </defs>
  <path class="cls-1" d="M128.08,101.52c-1.43,6.17-3.44,12.34-7.15,17.48-3.7,5.14-9.31,9.18-15.61,9.81-2.97,.3-5.87-.16-8.68-1.06-2.1,4.64-3.35,9.67-3.66,14.76-12.96-5.64-26-11.1-39.1-16.39,.72-1.37,1.34-2.78,1.88-4.23-2.6,.86-5.36,1.28-8.08,1.28-7.19-.01-14.13-2.66-20.49-6.02-8.8-4.64-17.01-10.92-22.17-19.43C-.13,89.21-1.82,78.22,2.32,69.17c4.89-10.69,16.7-16.91,21.73-27.53,2.07-4.37,2.86-9.24,4.52-13.79C34.25,12.19,50.35,1.6,66.95,.19c16.6-1.42,33.22,5.43,45.84,16.3,4.8,4.13,9.17,8.92,11.87,14.65,2.48,5.27,3.43,11.41,1.91,17,1.8,4.21,2.73,8.79,3.35,13.35,.39,2.89,.67,5.8,.83,8.71,.59,10.49-.31,21.07-2.67,31.32Z"/>
  <g>
    <g>
      <path d="M58.42,96.43c-9.94,.06-19.95-9.12-19.28-19.4,.58-6.06,7.35-8.43,12.48-6.47,4.93,1.8,7.88,6.28,10.58,10.38,0,0-1.79,.08-1.79,.08,7.81-14.64,27.91-42.81,44.21-47.32,9.2-2.65,18.42,4.16,22.08,12.33,3.07,6.01,4.05,12.65,4.63,19.23,1.23,10.88,.61,21.96-1.45,32.7-2.33,12.7-7.66,27.73-21.51,31.57-8.98,2.36-18.12-2.44-24.75-8.07-.31-.27,.01-.76,.37-.6,7.55,3.32,15.33,8.48,23.74,6.22,17.4-5.09,20.32-26.77,21.88-42.29,.49-6.4,.42-12.94-.33-19.32-.54-6.3-1.54-12.88-4.44-18.5-2.57-5.55-7.56-10.37-13.69-11.52-4.07-.74-8.17,.72-11.73,2.72-1.83,1.02-3.54,2.25-5.19,3.6-12.95,11.26-23.78,25.11-31.97,40.25-.35,.69-1.39,.73-1.8,.08-1.31-2.01-2.61-3.98-4.15-5.69-2.84-3.36-7.47-5.58-11.66-3.83-6.8,3.4-2.45,12.75,1.75,16.69,3.26,3.23,7.46,5.46,12.1,6.36,.49,.07,.39,.82-.07,.81h0Z"/>
      <path class="cls-3" d="M96.64,127.75c-2.1,4.64-3.35,9.67-3.66,14.76,0,.05,0,.11,0,.16"/>
      <path d="M53.51,125.79c-.09,.07-.15,.22-.14,.33,.84-2.53,1.97-4.92,2.6-7.51,1.28-4.96,1.56-10.18,.79-15.23-.37-2.52-.98-5.01-1.85-7.41-.19-.52,.07-1.1,.6-1.29,.52-.19,1.1,.08,1.28,.6,2.74,7.59,2.92,16.01,.73,23.75-.78,2.55-1.62,5.13-3.18,7.33l.06-.24c0,.13-.07,.3-.16,.39-.47,.46-1.19-.24-.72-.72h0Z"/>
      <path d="M100.88,105.02c5.25,2.99,11.5,3.19,17.06,.93,.53-.23,.96,.54,.5,.87-5.23,3.89-13.32,3.32-18.14-.99-.44-.38,.09-1.11,.59-.81h0Z"/>
      <path d="M90.22,71.68c3.86-5.04,11.53-7.25,17.34-4.48,.48,.23,.28,1-.25,.97-5.82-.23-11.52,1-16.41,4.24-.45,.31-1.02-.3-.68-.73h0Z"/>
      <path d="M120.85,68.32c3.26-1.02,6.92-.65,10.04,.7,.46,.18,.91,.42,1.03,1.2,.15,1.06-1.45,1.28-1.94,.86-2.83-1.26-5.85-1.77-8.98-1.77-.57,.02-.7-.84-.16-.99h0Z"/>
      <path class="cls-3" d="M116.23,86.82c1.31,1.21,2.48,2.61,3.1,4.28s.63,3.62-.27,5.15-2.83,2.48-4.54,1.99"/>
      <ellipse cx="103.96" cy="81.48" rx="2.03" ry="3.18"/>
      <ellipse cx="124.06" cy="81.48" rx="1.42" ry="2.23"/>
    </g>
    <g>
      <path d="M126.57,48.14c-.13,.49-.29,.98-.46,1.46-.81-2.77-1.77-5.4-3.25-7.79-.63-1.02-1.36-2-2.2-2.92-.75-.82-9.31-6.27-9.31-5.89-.06,.46-.13,.92-.21,1.38-2.27,12.87-12.75,22.83-23.11,30.98-10.74,8.44-22.55,16.83-27.75,29.46-1.48,3.59-2.37,7.59-1.52,11.38,.85,3.8,3.75,7.3,7.58,7.99-2.47,3.72-6.31,6.29-10.58,7.7-2.6,.86-5.36,1.28-8.08,1.28-7.19-.01-14.13-2.66-20.49-6.02-8.8-4.64-17.01-10.92-22.17-19.43C-.13,89.21-1.82,78.22,2.32,69.17c4.89-10.69,16.7-16.91,21.73-27.53,2.07-4.37,2.86-9.24,4.52-13.79C34.25,12.19,50.35,1.6,66.95,.19c16.6-1.42,33.22,5.43,45.84,16.3,4.8,4.13,9.17,8.92,11.87,14.65,2.48,5.27,3.43,11.41,1.91,17Z"/>
      <path class="cls-1" d="M60.03,16.67c-5.27,3.49-10.36,7.6-12.95,13.47-2.09,4.27-1.99,9.32-3.45,13.9-1.58,4.8-5.25,8.4-8.83,11.79-4.78,4.27-10.59,7.27-14.29,12.55-1.81,2.52-3.12,5.42-3.33,8.67-.66-3.22,.43-6.67,2.22-9.41,3.55-5.56,9.46-8.89,14.27-13.07,3.36-3.17,6.91-6.58,8.42-11.02,1-3.02,1.26-6.21,2.01-9.35,2.01-7.92,8.24-14.78,15.91-17.53h0Z"/>
      <path class="cls-1" d="M63.66,50.15c-6.04,10.21-17.08,15.93-24.59,24.77-7.58,8.31-11.82,21.3-5.17,31.41-.99-1.07-1.85-2.29-2.54-3.61-2.7-5.4-2.54-11.89-.51-17.49,3.71-9.82,12.1-16.86,19.8-23.47,4.45-3.78,8.84-7.47,13.01-11.6h0Z"/>
    </g>
  </g>
  <path class="cls-2" d="M92.98,142.51c-12.96-5.64-26-11.1-39.1-16.39"/>
</svg>