<?xml version="1.0" encoding="UTF-8"?>
<svg id="Layer_1" data-name="Layer 1" xmlns="http://www.w3.org/2000/svg" viewBox="0 0 137.71 162.44">
  <defs>
    <style>
      .cls-1 {
        fill: #fff;
      }

      .cls-2 {
        stroke-width: 2.42px;
      }

      .cls-2, .cls-3, .cls-4 {
        fill: none;
      }

      .cls-2, .cls-4 {
        stroke: #000;
        stroke-linecap: round;
        stroke-linejoin: round;
      }

      .cls-4 {
        stroke-width: 2px;
      }
    </style>
  </defs>
  <path class="cls-1" d="M126.04,105.51c-.16,.19-.34,.36-.54,.51-.03,5.34-.18,10.68-.44,16.02-.32,6.33-1.04,13.23-5.52,17.71-3.29,3.28-8.02,4.62-12.6,5.38-3.68,.62-7.41,.94-11.14,.98-3.67,4.38-6.85,9.16-9.48,14.23-7.53,.22-15.16-.17-22.53-1.44-4.3-.74-8.58-2.58-12.62-4.2-4.2-1.69-8.31-3.58-12.38-5.55-3.63-1.76-7.27-3.62-10.35-6.23-1.42-1.2-2.28-2.76-2.88-4.48,4.25-4.45,7.08-10.23,8-16.31,.01-.04,.01-.07,.01-.11-.77,.55-1.65,.9-2.6,.98-3.29,.28-5.93-2.52-7.91-5.11-7.39-9.67-13.69-20.36-16.73-32.08-3.04-11.71-2.61-24.58,2.89-35.4,4.72-9.29,12.95-16.61,22.33-21.4,9.37-4.79,19.87-7.18,30.39-8.18,14.42-1.38,29.67-.01,42.03,7.42,12.36,7.44,20.98,22.02,18.05,35.97-1.5-3.51-3.61-6.76-6.16-9.63,2.97,3.84,5.12,8.38,6.51,13.05,2.19,7.33,2.69,15.06,2.94,22.71,.12,3.62,.19,7.24,.2,10.86h0c.59,.61,1.14,1.28,1.26,2.09,.11,.79-.21,1.6-.73,2.21Z"/>
  <g>
    <g>
      <path class="cls-4" d="M95.8,146.11c-3.67,4.38-6.85,9.16-9.48,14.23-.2,.36-.39,.73-.57,1.1"/>
      <path d="M105.44,117.44c3.67,1.33,7.3,1.8,11.19,1.94,.55,.01,.65,.84,.13,.99-1.96,.65-4.09,.67-6.12,.3-2.03-.37-4-1.14-5.66-2.34-.23-.16-.28-.48-.11-.71,.13-.18,.37-.25,.58-.18h0Z"/>
      <path d="M95.6,71.16c3.94-1.02,8.42-.26,11.73,2.12,.45,.33,.55,.96,.22,1.41-.28,.38-.76,.5-1.18,.34-1.71-.63-3.4-1.16-5.15-1.48-1.75-.33-3.53-.43-5.35-.42-1.16,.02-1.39-1.69-.27-1.98h0Z"/>
      <path d="M117.4,75.31c1.52-.59,3.17-.85,4.8-.83,.54,.01,1.11-.05,1.6,.42,.6,.55,.49,1.56-.2,1.99-.52,.37-.97,.25-1.45,.24-1.45-.04-2.86,.02-4.32,.13-1.13,.08-1.49-1.55-.44-1.95h0Z"/>
      <path class="cls-4" d="M116.08,108.18c2.72,.41,5.57-.04,8.04-1.28,.49-.25,.96-.53,1.38-.88,.2-.15,.38-.32,.54-.51,.52-.61,.84-1.42,.73-2.21-.12-.81-.67-1.48-1.26-2.08h0c-.1-.12-.21-.22-.31-.32-2.3-2.24-4.6-4.49-6.9-6.74"/>
      <path d="M125.89,106.03c.68,28.01,1.49,41.07-31.33,41.2-6.92-.03-13.83-1.12-20.45-3.12-.53-.16-.83-.72-.67-1.25,.16-.53,.71-.82,1.24-.67,6.46,1.88,13.18,2.78,19.89,2.83,33.01-.39,28.24-12.26,30.53-38.99,.01-.47,.78-.5,.79,0h0Z"/>
      <path d="M40.01,106.51c-6.39,3.65-14.98,.57-18.06-5.97,0,0-.11-.47-.11-.47-.02,.23,.11,.54,.29,.7-3.35-6.01-1.77-13.19,2.77-18.05,12.56-12.28,27.95,2.36,29.83,16.14,.23,1.43,.23,1.7,1.58,2.15,1.67,.58,3.08-.29,4.12-1.73,1.51-2.16,1.27-4.77,1.06-7.32-.57-5.61-.58-11.36,.42-17.01,.79-4.91,3.72-11.34,5.35-16.06,.51-1.36,3.21-8.59,3.67-9.82,.78-2.05,.95-4.22,2.22-6.16,1.39-2.01,4.22-1.56,6.29-1.62,3.55-.17,7.8-.21,11.04,.07,15.69,.95,26.9,8.77,32.07,23.55,2.75,7.77,3.42,16.04,3.7,24.18,.11,4.05,.08,8.11-.41,12.16-.08,.37-.57,.39-.64,0-1.23-8-.63-16.11-1.84-24.07-2.38-18.31-11.78-31.79-31.19-33.47-3.98-.41-8.08-.39-12.1-.2-.59,.05-1.55,.03-2.15,.03-1.34-.02-2.66,.1-2.92,.68-1,1.65-1.21,3.81-1.93,5.66-.43,1.19-3.13,8.45-3.63,9.82-1.58,4.6-4.47,10.94-5.25,15.69-.95,5.36-.95,10.89-.4,16.39,.29,2.89,.37,6.36-1.48,8.86-.93,1.29-2.26,2.48-4.08,2.81-1.79,.25-3.75-.27-4.95-1.71-.94-1.38-.75-2.96-1.2-4.45-2.11-8.42-9.35-18.15-18.98-16.68-5.25,.74-9.58,6.3-10.29,10.46-1.32,6.15,1.6,12.21,7.56,14.41,2.82,.96,6.09,.77,8.68-.67,1.17-.63,2.1,1.1,.98,1.75h0Z"/>
      <path d="M24.67,138.5c-.08-.51,.33-.74,.58-1.06,7.44-8.23,9.54-19.89,5.72-30.22-.49-1.26,1.41-1.99,1.87-.7,4.24,11.12,1.9,23.36-6.26,32.14-.31,.26-.45,.71-1.06,.69-.47-.02-.82-.4-.85-.85h0Z"/>
      <ellipse cx="97.77" cy="86.77" rx="2.03" ry="3.18"/>
      <ellipse cx="118.45" cy="87.57" rx="1.63" ry="2.56"/>
    </g>
    <path d="M122.02,64.22c-1.5-3.51-3.61-6.76-6.16-9.63-.03-.03-.05-.06-.07-.08-3.72-4.16-8.4-7.49-13.61-9.6,0-.05,0-.1-.03-.15-.41-1.41-6.82-2.07-11.48-2.32-.07-.01-.14-.01-.2-.01-2.19-.12-3.96-.14-4.48-.11-3.21,.2-9.34,.51-11.91,2.76-2.74,2.41-2.25,9.6-2.71,12.96-1.48,10.89-2.97,21.77-4.46,32.66-.45,3.25-.94,6.64-2.84,9.35-1.89,2.7-5.64,4.46-8.66,3.06-3.44-1.6-4.11-5.98-5.39-9.5-1.72-4.77-5.45-8.91-10.27-10.69-4.81-1.79-10.64-1-14.48,2.37-1.65,1.45-2.86,3.38-3.51,5.47,0,.01-.01,.02-.01,.03-.85,2.75-.73,5.76,.59,8.32,.16,.31,.33,.61,.52,.91,.01,0,.02,.02,.02,.04,1.54,2.4,3.91,4.17,6.24,5.99,1.23,.96,2.45,1.93,3.52,3.02,.72,.71,1.37,1.48,1.93,2.32,1.35,2.04,2.07,4.59,1.5,6.96-.36,1.46-1.27,2.81-2.5,3.67-.77,.55-1.65,.9-2.6,.98-3.29,.28-5.93-2.52-7.91-5.11-7.39-9.67-13.69-20.36-16.73-32.08-3.04-11.71-2.61-24.58,2.89-35.4,4.72-9.29,12.95-16.61,22.33-21.4,9.37-4.79,19.87-7.18,30.39-8.18,14.42-1.38,29.67-.01,42.03,7.42,12.36,7.44,20.98,22.02,18.05,35.97Z"/>
    <g>
      <g>
        <path class="cls-1" d="M135.48,22.16c2.18,7.07,.63,14.86-2.63,21.51-3.27,6.63-8.14,12.33-12.96,17.94-3.28-5.6-9.16-9.37-15.41-11.18s-12.86-1.86-19.35-1.42c-7.44,.53-14.83,1.71-22.06,3.52-6.87,1.71-13.31,4.19-19.85,6.81-1.85,.75-3.69,1.54-5.51,2.38-1.84,.84-3.65,1.73-5.45,2.67-1.79,.93-3.56,1.91-5.3,2.94s-3.45,2.09-5.14,3.21c-1.61,1.08-3.28,2.13-4.76,3.39-.06,.04-.11,.08-.17,.13,.19-.35,.38-.69,.52-1.06,.11-.29,.19-.59,.31-.88,.34-.74,.59-1.52,.88-2.29,.61-1.52,1.27-3.04,1.97-4.53,1.48-3.1,3.15-6.1,4.91-9.04,3.53-5.86,7.49-11.44,11.55-16.94l1.82-2.43c6.06-8.13,13.12-15.67,21.23-21.72,3.69-2.76,7.59-5.2,11.73-7.26C85.04,1.32,100.76-.97,114.81,3.58c9.16,2.95,17.83,9.37,20.67,18.58Z"/>
        <path class="cls-1" d="M60.1,15.17c-8.11,6.05-15.16,13.59-21.23,21.72l-1.82,2.43c-4.05,5.51-8.01,11.09-11.55,16.94-1.77,2.94-3.44,5.94-4.91,9.04-.7,1.49-1.37,3-1.97,4.53-.29,.76-.54,1.55-.88,2.29-.12,.29-.21,.59-.31,.88-.15,.38-.33,.71-.52,1.06,.06-.05,.11-.1,.17-.13-3.63,3.49-6.57,6.44-11.25,9.34-3.21-7.91-5.28-16.47-4.42-24.97,1.42-14.14,11.05-26.64,23.31-33.83,10.64-6.26,23.02-8.88,35.39-9.32Z"/>
      </g>
      <g>
        <path class="cls-2" d="M17.08,73.93c-.06,.04-.11,.08-.17,.13,.19-.35,.38-.69,.52-1.06,.11-.29,.19-.59,.31-.88,.34-.74,.59-1.52,.88-2.29,.61-1.52,1.27-3.04,1.97-4.53,1.48-3.1,3.15-6.1,4.91-9.04,3.53-5.86,7.49-11.44,11.55-16.94l1.82-2.43c6.06-8.13,13.12-15.67,21.23-21.72,3.69-2.76,7.59-5.2,11.73-7.26C85.04,1.32,100.76-.97,114.81,3.58c9.16,2.95,17.83,9.37,20.67,18.58,2.18,7.07,.63,14.86-2.63,21.51-3.27,6.63-8.14,12.33-12.96,17.94-3.28-5.6-9.16-9.37-15.41-11.18s-12.86-1.86-19.35-1.42c-7.44,.53-14.83,1.71-22.06,3.52-6.87,1.71-13.31,4.19-19.85,6.81-1.85,.75-3.69,1.54-5.51,2.38-1.84,.84-3.65,1.73-5.45,2.67-1.79,.93-3.56,1.91-5.3,2.94s-3.45,2.09-5.14,3.21c-1.61,1.08-3.28,2.13-4.76,3.39Z"/>
        <path class="cls-2" d="M17.08,73.93c-3.63,3.49-6.57,6.44-11.25,9.34-3.21-7.91-5.28-16.47-4.42-24.97,1.42-14.14,11.05-26.64,23.31-33.83,10.64-6.26,23.02-8.88,35.39-9.32"/>
      </g>
    </g>
  </g>
  <path class="cls-3" d="M25.56,138.44c.6,1.72,1.46,3.28,2.88,4.48,3.08,2.61,6.72,4.47,10.35,6.23,4.07,1.97,8.18,3.86,12.38,5.55,4.04,1.62,8.32,3.46,12.62,4.2,7.37,1.27,15,1.66,22.53,1.44"/>
</svg>