<?xml version="1.0" encoding="UTF-8"?>
<svg id="Layer_1" data-name="Layer 1" xmlns="http://www.w3.org/2000/svg" viewBox="0 0 118.4 143.18">
  <defs>
    <style>
      .cls-1 {
        fill: #fff;
      }

      .cls-2 {
        stroke-width: 2.47px;
      }

      .cls-2, .cls-3, .cls-4, .cls-5 {
        fill: none;
      }

      .cls-2, .cls-3, .cls-5 {
        stroke: #000;
        stroke-linecap: round;
        stroke-linejoin: round;
      }

      .cls-3 {
        stroke-width: 2.25px;
      }

      .cls-5 {
        stroke-width: 2px;
      }
    </style>
  </defs>
  <path class="cls-1" d="M110.71,66.87c-.2,1.72-.5,3.45-.57,5.19h.73c1.1,0,1.99,.89,1.99,1.99v6.98c0,1.48-.41,2.86-1.13,4.04,.42,1.69,.8,3.36,.95,5.16,.65,8.14-.35,16.61-4.24,23.79-4.88,9-14.17,15.31-24.24,17.2-1.46,.28-2.94,.46-4.42,.56-2.04,2.88-3.31,6.3-3.6,9.82-8.25-1.17-16.55-3.04-24.34-5.92-4.09-1.51-7.97-4.1-11.64-6.43-3.82-2.43-7.52-5.04-11.15-7.72-2.3-1.7-4.59-3.44-6.64-5.43,5.02-3.59,6.58-11.35,3.17-16.53-2.12-3.22-5.66-5.27-7.95-8.37-1.6-2.17-2.48-4.92-2.38-7.59C5.24,77.51-.93,65.5,.11,53.8c.46-5.2-.96-9.9,3.36-13.84,2.17-1.98,4.79-3.57,6.34-6.07,1.77-2.84,1.84-6.36,2.34-9.67,1.21-8.09,9.39-14.91,16.17-18.72C36.36,.98,45.91-.96,55.06,.45c4.71,.72,9.36,2.26,14.1,1.9,2.67-.2,5.25-.99,7.89-1.35,8.44-1.16,17.09,2.23,23.52,7.82,6.43,5.59,10.83,13.19,13.94,21.11,2.48,6.3,4.22,13.02,3.83,19.77-.38,6.41-2.88,12.89-7.63,17.17Z"/>
  <g>
    <g>
      <path class="cls-3" d="M72.62,72.7h16.37c2.06,0,3.74,1.68,3.74,3.74v4.64c0,5.46-4.43,9.9-9.9,9.9h-4.06c-5.46,0-9.9-4.43-9.9-9.9v-4.64c0-2.06,1.68-3.74,3.74-3.74Z"/>
      <path class="cls-2" d="M112.86,74.05v6.98c0,1.48-.41,2.86-1.13,4.04-1.36,2.27-3.86,3.79-6.7,3.79h-2.3c-2.97,0-5.38-2.4-5.38-5.37v-8.27c0-1.74,1.42-3.16,3.16-3.16h10.36c1.1,0,1.99,.89,1.99,1.99Z"/>
      <line class="cls-3" x1="33.82" y1="67.36" x2="69.58" y2="74.69"/>
      <line class="cls-3" x1="92.73" y1="77.05" x2="97.36" y2="77.05"/>
    </g>
    <g>
      <path d="M85.09,104.27c-4.53-.73-9.38,.05-13.67,2.17-.47,.25-.89-.48-.44-.76,4.13-2.73,9.19-4.27,14.36-4.09,.75,.02,1.34,.64,1.31,1.39-.02,.8-.77,1.42-1.56,1.28h0Z"/>
      <path d="M92.11,102.5c4.7,1.29,8.72,4.23,11.48,7.94,.26,.33-.23,.76-.52,.45-3.16-3.19-7.26-5.3-11.49-5.85-1.82-.28-1.25-3.01,.53-2.54h0Z"/>
    </g>
    <g>
      <g>
        <path d="M54.98,125.02c9.84,4.86,21.23,7.36,31.91,4.31,17.28-4.69,26.3-20.25,24.89-37.66-.08-2.83-.79-5.38-1.43-8.15-1.02-4.18-1.46-8.56-1.11-12.89,3.7-21.12-9.12-42.2-29.74-48.34-5.25-1.66-10.84-2.23-16.29-1.66-10.73,1.17-21,9.12-22.98,20.02-1.09,5.36-.54,10.97,.29,16.48,1.71,11.02,4.73,23.42-1.46,33.64-.26,.43-.82,.56-1.25,.3-3.11-1.94-4.55-5.39-6.04-8.47,0,0,.17-1.02,.17-1.02-.5,.47-.21,1.51,.63,1.51,0,0-.8-.5-.8-.5-1.16-2.38-2.42-4.75-4.49-6-1.99-1.29-4.7-1.17-6.85-.02-4.74,2.3-5.37,8.68-2.89,12.92,2.58,4.55,8.66,7.18,10.06,12.65,1.61,5.44-.7,11.95-5.71,14.7-.16,.08-.35,.03-.44-.13-.08-.15-.03-.33,.1-.42,4.36-2.98,6.09-8.91,4.56-13.69-1.61-5.26-7.44-7.4-10.08-12.26-3.96-6.79-.67-16.13,7.86-16.44,4.72-.22,7.79,4.09,9.49,7.91,0,0-.8-.5-.8-.5,.11,0,.41,.01,.69,.32,.27,.33,.22,.66,.18,.79-.08,.29-.18,.35-.24,.44,0,0,.17-1.02,.17-1.02,1.39,2.84,2.68,6.01,5.38,7.71,0,0-1.25,.3-1.25,.3,8.85-15.44-2.55-33.1,.83-49.54,2.12-11.74,13.08-20.34,24.64-21.6,5.75-.61,11.6,0,17.1,1.73,16.86,5.01,29.47,20.1,31.43,37.58,.34,2.84,.54,5.73,.21,8.65-.33,2.85-.76,5.43-.59,8.28,0,5.65,2.37,11.01,2.63,16.65,.31,5.71-.17,11.54-1.91,17.08-3.4,11.23-13.1,19.94-24.31,23.05-11.23,3.1-23.81,.93-33.04-5.89-.44-.34,0-1,.47-.77h0Z"/>
        <path class="cls-5" d="M95.39,83.33c2.12,2.47,3.65,5.46,4.41,8.63,.55,2.29,.6,4.99-1.01,6.7-1.24,1.32-3.22,1.73-5.01,1.5s-3.47-1.01-5.11-1.79"/>
        <path d="M79.27,109.39c4.29,3.97,10.02,5.17,15.54,3.25,.52-.2,.93,.56,.47,.88-5.11,4-13.73,2.2-16.8-3.51-.28-.48,.39-1.01,.79-.62h0Z"/>
        <path d="M65.79,70.58c3.66-6.02,13.49-6.28,17.47-.46,.32,.45-.27,1.03-.71,.71-4.83-3.47-11.37-3.29-16.01,.42-.42,.35-1.05-.21-.75-.67h0Z"/>
        <path d="M96.15,70.67c1.93-3.93,6.35-6.44,10.72-6.2,1.45,.06,3.02,.27,4.07,1.48,.3,.33,.06,.9-.38,.92-2.66,.14-4.88-.75-7.42,.15-2.36,.67-4.54,2.14-6.14,4.17-.35,.48-1.12,0-.85-.53h0Z"/>
        <path class="cls-5" d="M79.78,131.78c-2.04,2.88-3.31,6.3-3.6,9.82-.02,.19-.03,.39-.04,.58"/>
      </g>
      <g>
        <ellipse cx="80.33" cy="79.17" rx="2.66" ry="4.16"/>
        <ellipse cx="103.55" cy="79.17" rx="1.83" ry="2.87"/>
      </g>
    </g>
    <g>
      <path d="M118.34,49.7c-.38,6.41-2.88,12.89-7.63,17.17-.25,.24-.51,.46-.77,.67-.05-.49-.1-.98-.16-1.47-.42-4.05-.98-8.12-2.53-11.87-1.74-4.2-4.94-8.03-9.27-9.43-4.34-1.39-9.77,.3-11.69,4.42-2.12-3.13-4.49-6.2-7.64-8.29-3.15-2.1-7.23-3.1-10.79-1.82-3.56,1.28-6.21,5.24-5.28,8.9,1.03,4.05,5.64,6.31,7,10.26,.96,2.76,0,6.08-2.28,7.9-2.29,1.83-5.73,2.03-8.21,.48,2.22-.13,4.32-1.54,5.28-3.56,.95-2.01,.72-4.53-.58-6.34-2.62-3.62-8.6-3.92-10.53-7.95-1.18-2.46-.26-5.11,1.02-7.31,.55-.96,3.55-3.73,2.71-4.64-1.89-2.05-5.83,1.02-7.2,2.4-.88,.89-1.6,1.96-2.15,3.13-.7,1.47-1.13,3.09-1.26,4.67-.19,2.18,.04,4.36,.04,6.55,.01,3.06-.01,5.85-1.31,8.7-.97,2.14-2.26,4.14-3.1,6.34-.05,.13-.1,.26-.14,.4-.13,.38-.24,.77-.32,1.16-.63,2.81-.26,5.76,.19,8.67,.23,1.49,.49,2.96,.63,4.39,.19,1.82,.03,3.77-.97,5.3-2.61,4-7.32,1.36-8.25-2.43-.31-1.28-.35-2.61-.57-3.9,.01-.01,.01-.02,0-.02-.07-.44-.16-.87-.28-1.29-.63-2.18-2.29-3.95-4.32-4.94-1.59-.78-3.42-1.07-5.17-.68-3.95,.87-6.84,5.1-6.23,9.1-.45-.24-.9-.5-1.33-.76C5.24,77.51-.93,65.5,.11,53.8c.46-5.2-.96-9.9,3.36-13.84,2.17-1.98,4.79-3.57,6.34-6.07,1.77-2.84,1.84-6.36,2.34-9.67,1.21-8.09,9.39-14.91,16.17-18.72C36.36,.98,45.91-.96,55.06,.45c4.71,.72,9.36,2.26,14.1,1.9,2.67-.2,5.25-.99,7.89-1.35,8.44-1.16,17.09,2.23,23.52,7.82,6.43,5.59,10.83,13.19,13.94,21.11,2.48,6.3,4.22,13.02,3.83,19.77Z"/>
      <g>
        <path class="cls-1" d="M46.96,31.93c-4.27,2.09-7.67,5.44-9.22,9.95-.51,1.46-.85,3-1.07,4.67-2.54-6.62,3.2-14.76,10.28-14.62h0Z"/>
        <path class="cls-1" d="M36.51,28.78c-3.6,2.34-6.42,5.08-8.89,8.59-.29-4.62,4.28-9.03,8.89-8.59h0Z"/>
        <path class="cls-1" d="M97.14,29.86c7.44-2.76,16.44,3.78,16.1,11.72-.73-1.73-1.59-3.28-2.64-4.68-3.17-4.32-8.13-6.65-13.46-7.04h0Z"/>
      </g>
    </g>
  </g>
  <path class="cls-4" d="M22.41,116.1c2.05,1.99,4.34,3.73,6.64,5.43,3.63,2.68,7.33,5.29,11.15,7.72,3.67,2.33,7.55,4.92,11.64,6.43,7.79,2.88,16.09,4.75,24.34,5.92"/>
</svg>