<?xml version="1.0" encoding="UTF-8"?>
<svg id="Layer_1" data-name="Layer 1" xmlns="http://www.w3.org/2000/svg" viewBox="0 0 132.63 123.17">
  <defs>
    <style>
      .cls-1 {
        fill: #fff;
      }

      .cls-2, .cls-3, .cls-4, .cls-5 {
        fill: none;
      }

      .cls-3 {
        stroke-width: 2.13px;
      }

      .cls-3, .cls-4, .cls-5 {
        stroke: #000;
        stroke-linecap: round;
        stroke-linejoin: round;
      }

      .cls-4 {
        stroke-width: 1.94px;
      }

      .cls-5 {
        stroke-width: 2px;
      }
    </style>
  </defs>
  <path class="cls-1" d="M131.57,65.56v4.61c0,2.72-1.38,5.11-3.48,6.52-.97,7.57-2.85,15.02-5.58,22.14-1.45,3.8-3.23,7.61-6.27,10.31-4.06,3.61-9.9,4.7-15.29,4-.73-.1-1.45-.22-2.17-.38-1.74,1.68-3.47,3.36-5.21,5.04-8.95-2.21-18.16-3.36-27.37-3.41-4.01,5.85-11.4,8.79-18.51,8.78-7.19-.01-14.14-2.66-20.5-6.02-8.79-4.64-17.01-10.92-22.16-19.43C-.13,89.21-1.81,78.22,2.33,69.17c4.89-10.69,16.69-16.91,21.72-27.53,2.08-4.37,2.87-9.24,4.52-13.79C34.26,12.19,50.36,1.6,66.95,.19c16.6-1.42,33.22,5.43,45.85,16.3,4.8,4.13,9.16,8.92,11.86,14.65,2.58,5.48,3.52,11.91,1.73,17.67,1.26,3.45,1.95,7.12,2.26,10.85,.12,1.3,.18,2.61,.21,3.91h.72c1.1,0,1.99,.89,1.99,1.99Z"/>
  <g>
    <g>
      <g>
        <path d="M63.79,89.07l-1.66-1.83c-.6-.71-.58-.67-1.45-.59-10.65,1.99-22.61-8.57-16.4-19.29,2.27-3.96,7.33-5.55,11.54-4.14,4.9,1.39,8.38,5.75,10.04,10.36,.86,2.27,1.41,4.62,1.84,6.95,0,0-2.06,.2-2.06,.2-.24-14.02,5.64-27.88,15.7-37.6,7.16-6.89,18.19-13.44,28.49-11.36,6.25,1.59,10.74,5.07,14.29,10.18,6.5,9.98,6.31,22.54,5.09,33.93-1.12,9.2-3.38,18.2-7.1,26.74-.98,2.13-2.19,4.23-3.83,6.05-8.49,9.22-23.79,6.19-32.71-.77-1.1-1.76,6.19,1.58,6.73,1.71,5.99,2.54,13.06,3.74,19.16,1.2,8.45-3.51,10.62-13.91,13.16-21.85,3.91-15.57,6.91-39.09-6.58-50.73-3.42-3.09-10.25-5.99-15.85-4.4-20.63,4.69-34.84,26.24-34.48,46.88,0,.57-.45,1.04-1.02,1.05-.51,0-.94-.36-1.03-.85-.41-2.26-.94-4.49-1.73-6.6-1.9-5.94-8.36-11.63-14.72-8.84-5.77,2.9-5.89,10.94-1.39,15.22,2.89,3.05,7.36,4.33,11.51,4.42,.98-.02,1.76-.25,2.83,.21,.66,.38,.81,.86,1.04,1.18,.44,.69,.87,1.31,1.31,2.08,.28,.44-.42,.91-.72,.48h0Z"/>
        <path class="cls-5" d="M92.99,118.36c.19-.19,.39-.37,.58-.56,1.74-1.68,3.47-3.36,5.21-5.04"/>
        <path class="cls-5" d="M59.29,85.97c3.17,7.03,2.38,15.78-2.19,22.01"/>
        <path d="M94.17,61.99c3.62-2.35,8.43-2.75,12.51-1.33,1.36,.47,2.78,1.1,3.58,2.45,.25,.39-.14,.92-.59,.81-1.42-.26-2.45-.91-3.66-1.34-3.66-1.3-7.72-1.23-11.36,.29-.54,.25-.98-.57-.47-.88h0Z"/>
        <path d="M119.31,63.45c.38-1.95,2.2-3.2,3.88-3.99,1.78-.75,3.78-.85,5.56-.29,.26,.08,.41,.37,.33,.63-.07,.23-.3,.38-.54,.35-2.45-.28-4.85,.45-6.61,2.11-.57,.55-1.07,1.14-1.77,1.69-.36,.31-.94-.04-.85-.5h0Z"/>
        <path class="cls-5" d="M116.51,72.23c2.19,2.15,3.99,4.7,5.29,7.48,.72,1.55,1.28,3.39,.56,4.94-.58,1.25-1.9,2.03-3.25,2.32s-2.75,.14-4.12,0"/>
        <path d="M100.37,91.48c4.08,4.2,10.13,5.33,15.45,2.86,.51-.26,.98,.49,.54,.84-4.93,4.34-13.75,2.7-16.79-3.11-.29-.5,.42-1.01,.8-.59h0Z"/>
      </g>
      <ellipse cx="104.4" cy="69.67" rx="2.03" ry="3.18"/>
      <ellipse cx="122.7" cy="70.47" rx="1.39" ry="2.17"/>
    </g>
    <g>
      <path d="M126.39,48.81c-.09,.27-.18,.53-.27,.79-.69-2.39-1.5-4.66-2.66-6.77-.77-1.4-1.68-2.72-2.8-3.94-.2-.22-.96-.77-1.96-1.45-.02,0-.03-.02-.05-.03-1.52-1.03-3.59-2.36-5.13-3.28-1.26-.76-2.17-1.25-2.17-1.13-.01,.09-.02,.17-.04,.26-1.78,13.06-12.06,23.17-22.44,31.43-.28,.23-.56,.45-.84,.67-8.77,6.89-18.26,13.76-24.28,22.93-.98,1.5-1.88,3.06-2.65,4.7-.29,.6-.56,1.21-.82,1.83-1.39,3.38-2.26,7.13-1.65,10.71,.04,.23,.08,.45,.13,.67,.85,3.8,3.75,7.3,7.58,7.99-.05,.07-.09,.14-.14,.2-4.01,5.85-11.4,8.79-18.51,8.78-7.19-.01-14.14-2.66-20.5-6.02-8.79-4.64-17.01-10.92-22.16-19.43C-.13,89.21-1.81,78.22,2.33,69.17c4.89-10.69,16.69-16.91,21.72-27.53,2.08-4.37,2.87-9.24,4.52-13.79C34.26,12.19,50.36,1.6,66.95,.19c16.6-1.42,33.22,5.43,45.85,16.3,4.8,4.13,9.16,8.92,11.86,14.65,2.58,5.48,3.52,11.91,1.73,17.67Z"/>
      <path class="cls-1" d="M60.03,16.67c-5.27,3.49-10.36,7.6-12.95,13.47-2.09,4.27-1.99,9.32-3.45,13.9-1.58,4.8-5.25,8.4-8.83,11.79-4.78,4.27-10.59,7.27-14.29,12.55-1.81,2.52-3.12,5.42-3.33,8.67-.66-3.22,.43-6.67,2.22-9.41,3.55-5.56,9.46-8.89,14.27-13.07,3.36-3.17,6.91-6.58,8.42-11.02,1-3.02,1.26-6.21,2.01-9.35,2.01-7.92,8.24-14.78,15.91-17.53h0Z"/>
      <path class="cls-1" d="M63.65,50.15c-6.04,10.21-17.08,15.93-24.59,24.77-7.58,8.31-11.82,21.3-5.17,31.41-.99-1.07-1.85-2.29-2.54-3.61-2.7-5.4-2.54-11.89-.51-17.49,3.71-9.82,12.1-16.86,19.8-23.47,4.45-3.78,8.84-7.47,13.01-11.6h0Z"/>
    </g>
    <g>
      <path class="cls-4" d="M97.52,64.11h13.01c2.06,0,3.74,1.68,3.74,3.74v2.06c0,5.46-4.43,9.9-9.9,9.9h-.7c-5.46,0-9.9-4.43-9.9-9.9v-2.06c0-2.06,1.68-3.74,3.74-3.74Z"/>
      <path class="cls-3" d="M131.57,65.56v4.61c0,2.72-1.38,5.11-3.48,6.52-1.24,.83-2.74,1.31-4.35,1.31h-.12c-1.32,0-2.52-.47-3.45-1.24-.68-.59-1.22-1.33-1.55-2.18-.24-.6-.37-1.26-.37-1.95v-5.91c0-1.74,1.41-3.15,3.15-3.15h8.18c1.1,0,1.99,.89,1.99,1.99Z"/>
      <line class="cls-4" x1="63.65" y1="59.52" x2="94.38" y2="65.82"/>
      <line class="cls-4" x1="114.27" y1="67.85" x2="118.24" y2="67.85"/>
    </g>
  </g>
  <path class="cls-2" d="M66.2,114.39c9.21,.05,18.42,1.2,27.37,3.41"/>
</svg>