<?xml version="1.0" encoding="UTF-8"?>
<svg id="Layer_1" data-name="Layer 1" xmlns="http://www.w3.org/2000/svg" viewBox="0 0 128.73 136.83">
  <defs>
    <style>
      .cls-1 {
        fill: #fff;
      }

      .cls-2 {
        stroke: #fff;
        stroke-width: 1.07px;
      }

      .cls-2, .cls-3, .cls-4, .cls-5, .cls-6 {
        fill: none;
      }

      .cls-2, .cls-4, .cls-5, .cls-6 {
        stroke-linecap: round;
        stroke-linejoin: round;
      }

      .cls-4 {
        stroke-width: 2.13px;
      }

      .cls-4, .cls-5, .cls-6 {
        stroke: #000;
      }

      .cls-5 {
        stroke-width: 1.94px;
      }

      .cls-6 {
        stroke-width: 2px;
      }
    </style>
  </defs>
  <path class="cls-1" d="M121.84,72.17c-1.51,1.47-2.79,3.48-2.69,5.66,.09,2.19,2.11,4.3,4.07,3.67,.17-.05,.48-.11,.65-.17-.16,.68-.49,1.15-1.06,1.49-2.76,1.62-6.43-.15-8.05-3.05-.03-.05-.06-.11-.08-.16-.46,5.07-1.26,10.11-2.41,15.07-1.42,6.18-3.44,12.34-7.14,17.48-3.7,5.15-9.31,9.19-15.62,9.81-2.97,.3-5.86-.15-8.68-1.06-1.88,4.16-3.08,8.62-3.54,13.17-13.05-4.98-26.1-9.97-39.14-14.95,4.38-8.5,5.3-18.68,2.68-27.86,.07,5.01-1.89,10.07-5.42,13.38-.69-3.79-1.38-7.59-2.07-11.39-2.27,.41-4.53,.83-6.8,1.24-.08,.02-.17,.03-.25,.05,5.36,6.87,3.35,18.7-3.83,23.26-7.19,4.56-17.68,.92-21.19-7.2-3.5-8.13,.57-18.93,8.28-22.35,1.65-.74,3.59-1.33,4.83-2.58,.4-.41,.73-.88,.96-1.46,.89-2.3-.33-4.22-1.51-5.97C-.07,57.71,13.73,24.41,31.4,11.09,41.88,3.18,55.23-.55,68.3,.06c6.53,.3,13.03,1.67,19.07,4.17,6.11,2.52,8.97,4.86,15.7,3.88,3.35-.49,6.89,.77,9.31,3.31,2.79,2.94,3.81,7.79,4.94,11.64,1.42,4.84,1.4,10.53,.73,15.49-.62,4.62-3.62,10.34-.59,14.66,1.45,2.04,3.9,2.88,6.11,3.86,2.22,.98,4.55,2.52,5.07,5.03,.43,2.14-.64,4.33-2.07,5.89-1.43,1.57-3.22,2.7-4.73,4.18Z"/>
  <g>
    <g>
      <path d="M42.61,89.6c-8.24-.06-15.23-5.42-18.33-12.97-2.86-6.74,.27-13.98,8.29-13.53,6.49,.3,10.66,6.07,13.82,11.03,0,0-1.79,.08-1.79,.08,4.14-7.7,8.95-15.04,14.38-21.9,5.48-6.86,11.37-13.3,18.08-19.02,7-5.87,16.61-9.86,25.04-4.22,9.86,6.24,12.52,18.56,13.45,29.37,1.83,16.2-.44,44.46-11.6,57-10.79,12.13-25,8.85-36.17-.78-.32-.27,.01-.76,.37-.6,7.57,3.31,15.33,8.47,23.75,6.21,12.88-3.41,18.04-17.58,20.17-29.51,2.02-10.54,2.61-21.43,1.42-32.11-.59-6.29-1.63-12.88-4.44-18.53-3.47-7.27-11.38-13.57-19.73-11.17-8.29,2.31-14.37,8.92-20.24,14.91-2.96,3.13-5.79,6.39-8.46,9.77-5.36,6.76-10.11,13.99-14.2,21.58-.27,.51-.91,.7-1.42,.42-2.45-3.11-4.36-6.74-7.64-8.77-2.79-1.92-6.96-2.41-9.76-.41-6.02,5.12,.85,15.01,5.3,18.05,2.87,2.18,6.22,3.61,9.75,4.31,.51,.08,.43,.83-.07,.81h0Z"/>
      <path class="cls-6" d="M80.83,120.91c-1.88,4.16-3.08,8.62-3.54,13.17-.05,.58-.1,1.17-.13,1.75"/>
      <path d="M37.6,119.09c.35-1.07,.97-2.56,1.37-3.63,3.18-8.4,3.15-17.9,.11-26.33-.46-1.24,1.41-1.96,1.88-.69,3.39,9.48,2.92,20.31-1.41,29.4-.33,.58-.66,1.17-1.04,1.71-.16,.23-.48,.29-.72,.13-.19-.13-.26-.37-.19-.58h0Z"/>
      <path d="M85.07,98.19c5.25,2.99,11.5,3.19,17.06,.93,.53-.23,.96,.54,.5,.87-5.23,3.89-13.32,3.32-18.14-.99-.44-.38,.09-1.11,.59-.81h0Z"/>
      <path d="M71.99,63.09c5.18-3.66,13.17-3.48,17.89,.88,.39,.36-.03,1.04-.52,.85-5.49-1.95-11.3-2.47-16.93-.84-.52,.16-.89-.59-.44-.9h0Z"/>
      <path d="M103.86,63.28c2.76-2,6.35-2.81,9.75-2.52,.49,.02,1,.11,1.36,.81,.48,.96-.97,1.68-1.57,1.43-3.09-.3-6.11,.17-9.08,1.17-.53,.2-.93-.57-.46-.89h0Z"/>
      <path class="cls-6" d="M100.42,80c1.31,1.21,2.48,2.61,3.1,4.28s.63,3.62-.27,5.15c-.91,1.53-2.83,2.48-4.54,1.99"/>
      <ellipse cx="88.88" cy="73.1" rx="2.03" ry="3.18"/>
      <ellipse cx="106.56" cy="73.1" rx="1.42" ry="2.23"/>
    </g>
    <g>
      <path class="cls-5" d="M80.74,67.55h13.01c2.06,0,3.74,1.68,3.74,3.74v2.06c0,5.46-4.43,9.9-9.9,9.9h-.7c-5.46,0-9.9-4.43-9.9-9.9v-2.06c0-2.06,1.68-3.74,3.74-3.74Z"/>
      <path class="cls-4" d="M104.62,67h8.18c1.1,0,1.99,.89,1.99,1.99v4.62c0,4.32-3.51,7.83-7.83,7.83h-.12c-2.97,0-5.38-2.41-5.38-5.38v-5.9c0-1.74,1.41-3.16,3.16-3.16Z"/>
      <line class="cls-5" x1="46.87" y1="62.96" x2="77.6" y2="69.26"/>
      <line class="cls-5" x1="97.49" y1="71.29" x2="101.46" y2="71.29"/>
    </g>
    <g>
      <g>
        <path d="M121.84,72.17c-1.51,1.47-2.79,3.48-2.69,5.66,.09,2.19,2.11,4.3,4.07,3.67,.17-.05,.48-.11,.65-.17-.16,.68-.49,1.15-1.06,1.49-2.76,1.62-6.43-.15-8.05-3.05-.03-.05-.06-.11-.08-.16-.38-.71-.66-1.45-.87-2.23-.63-2.36-.54-4.98-.21-7.45,.12-.84,.26-1.69,.4-2.53,.31-1.78,.64-3.57,.77-5.36,.03-.22,.05-.43,.05-.64,.04-.5,.05-.99,.04-1.48-.03-1.64-.26-3.22-.67-4.73-2.03-7.59-8.29-13.71-14.14-18.97-2.81-2.52-6.46-5.2-9.84-3.67-1.85,.83-3.05,2.74-4.14,4.54-4.61,7.67-9.23,15.33-13.84,22.99-1.42,2.36-2.85,4.75-4.05,7.24-1.02,2.14-1.88,4.36-2.4,6.7-1.12,5.07-.39,10.93,3.06,14.6-7.09-2.46-11.11-12.11-8.1-19.42,.44-1.05,.99-2.06,1.46-3.1,.37-.87,.69-1.76,.81-2.71,.27-2.1-.96-4.64-2.93-4.61-1.85,.03-2.96,2.15-3.69,3.98-.27,.66-.53,1.33-.79,1.99-2.41,6.01-4.82,12.01-7.22,18.02-2.34-5.4-4.93-11.1-9.65-14.24s-12.2-2.2-14.29,3.32c-.05,.13-.1,.27-.13,.41-1.26,3.96,.77,8.57,4,10.99,1.23,.92,2.6,1.58,4.03,2.02h.01c2.45,.79,5.1,.99,7.66,.9,.28,.89,.49,1.81,.63,2.74,.11,.78,.18,1.57,.19,2.36,.07,5.01-1.89,10.07-5.42,13.38-.69-3.79-1.38-7.59-2.07-11.39-2.27,.41-4.53,.83-6.8,1.24-.08,.02-.17,.03-.25,.05,5.36,6.87,3.35,18.7-3.83,23.26-7.19,4.56-17.68,.92-21.19-7.2-3.5-8.13,.57-18.93,8.28-22.35,1.65-.74,3.59-1.33,4.83-2.58,.4-.41,.73-.88,.96-1.46,.89-2.3-.33-4.22-1.51-5.97C-.07,57.71,13.73,24.41,31.4,11.09,41.88,3.18,55.23-.55,68.3,.06c6.53,.3,13.03,1.67,19.07,4.17,6.11,2.52,8.97,4.86,15.7,3.88,3.35-.49,6.89,.77,9.31,3.31,2.79,2.94,3.81,7.79,4.94,11.64,1.42,4.84,1.4,10.53,.73,15.49-.62,4.62-3.62,10.34-.59,14.66,1.45,2.04,3.9,2.88,6.11,3.86,2.22,.98,4.55,2.52,5.07,5.03,.43,2.14-.64,4.33-2.07,5.89-1.43,1.57-3.22,2.7-4.73,4.18Z"/>
        <path class="cls-2" d="M14.26,85.6c4.01,2.91,8.01,5.82,12.02,8.73,.31,.23,.58,.4,.89,.63"/>
      </g>
      <g>
        <path class="cls-1" d="M87.24,8.66c-11.96-1.45-23.68,4.61-29.54,15.04-5.83,9.61-11.53,23.79-24.66,24.54,5.94-1.13,10.58-5.32,13.9-10.14,5.05-7.26,7.98-16.48,14.67-22.76,6.67-6.33,16.82-9.07,25.62-6.68h0Z"/>
        <path class="cls-1" d="M57.2,1.67c-4.14,1.13-7.81,3.39-10.57,6.42-5.74,6.28-5.84,15.97-11.14,22.69-2.52,3.57-5.71,6.64-9.38,8.88,6.32-5.86,10.52-13.09,12.88-21.34C41.49,9.52,47.64,2.31,57.2,1.67h0Z"/>
        <path class="cls-1" d="M41.16,52.67c-9.53,2.49-17.81,8.88-21.88,17.9-1.37,2.95-2.31,6.11-2.88,9.42-1.4-13.88,10.82-27.35,24.77-27.32h0Z"/>
      </g>
    </g>
  </g>
  <path class="cls-3" d="M77.29,134.08c-13.05-4.98-26.1-9.97-39.14-14.95"/>
</svg>