<?xml version="1.0" encoding="UTF-8"?>
<svg id="Layer_1" data-name="Layer 1" xmlns="http://www.w3.org/2000/svg" viewBox="0 0 126.47 180.29">
  <defs>
    <style>
      .cls-1 {
        fill: #fff;
      }

      .cls-2, .cls-3 {
        fill: none;
      }

      .cls-3 {
        stroke: #000;
        stroke-linecap: round;
        stroke-linejoin: round;
        stroke-width: 2px;
      }
    </style>
  </defs>
  <path class="cls-1" d="M56.66,135.91c.32,.37,.63,.75,.93,1.14,6.18,8.14,7.59,19.94,2.78,29.07-5.94,11.26-20.63,17.01-32.64,12.77-.46-2.7-.86-5.74-1.87-8.31-1.27-3.26-1.47-2.44-4.89-2.42-5.09,.03-10.16-1.73-13.99-5.11-4.97-4.37-7.61-11.24-6.85-17.81,.73-6.25,4.24-11.77,6.48-17.65,7.97-20.88-.39-44.27,1.58-66.53C10.22,38.13,24.09,16.57,44.12,5.2,52.47,.46,63.29-2.42,71.41,2.72c7.06-4.35,16-2.28,22.99,2.19,6.99,4.47,11.86,11.57,15.84,18.85,3.29,6.02,5.65,12.34,8.38,18.6,3.26,7.46,7.14,15.06,7.71,23.28,.37,5.29-.01,10.63-1.12,15.81-.57,2.67-1.08,5.63-2.16,8.14-1.21,2.85-3.11,5.15-3.85,8.25-.56,2.34-.56,4.78-.71,7.19-.51,8.17-2.54,16.62-6.6,23.85-4.37,7.8-10.67,12.41-18.94,15.37-4.25,1.52-12.09,2.27-15.31-1.68-1.24-1.51-1.85-3.45-2-5.42v-.04c0-.09-.02-.17-.02-.26l-18.96-.94Z"/>
  <g>
    <g>
      <path d="M66.64,115.53c7.42,3.65,15.32,8.7,23.78,6.49,8.23-2.16,13.89-9.58,16.72-17.35,6.23-17.3,7.96-46.03,.33-62.98-5.14-10.2-14.99-15.1-25.36-8.76-1.82,1.02-3.54,2.25-5.18,3.59-12.95,11.23-23.83,25.04-32.06,40.16-.33,.67-1.33,.72-1.73,.09-2.61-3.7-5.26-7.75-9.62-9.34-7.91-2.41-11.64,3.95-8.2,10.88,2.95,6.3,9.04,10.39,15.82,12.07,.41,.07,.33,.7-.06,.7-7.59,.38-14.88-4.87-18.06-11.7-1.69-3.44-2.47-8.2-.02-11.63,2.55-3.51,7.58-4.06,11.34-2.69,4.98,1.85,7.87,6.41,10.47,10.61,0,0-1.72,.07-1.72,.07,7.78-14.68,27.82-42.93,44.17-47.42,9.26-2.69,18.44,4.26,22.2,12.36,6.64,14.5,6.08,36.53,3.11,51.99-2.28,12.68-7.82,27.63-21.63,31.33-9.03,2.32-17.87-2.47-24.72-7.8-.39-.31,0-.9,.43-.69h0Z"/>
      <path class="cls-3" d="M75.62,137.37c.29-5.15,1.55-10.23,3.67-14.92"/>
      <path d="M38.97,90.15c4.22,9.67,3.26,21.86-1.56,31.17-.62,1.14-2.36,.26-1.77-.93,3.84-7.36,5.14-16.05,3.66-24.24-.34-1.85-.92-3.82-1.28-5.66-.14-.57,.71-.88,.96-.35h0Z"/>
      <path d="M83.52,99.73c5.25,2.99,11.5,3.19,17.06,.93,.53-.23,.96,.54,.5,.87-5.23,3.89-13.32,3.32-18.14-.99-.44-.38,.09-1.11,.59-.81h0Z"/>
      <path d="M70.45,64.63c5.18-3.66,13.17-3.48,17.89,.88,.39,.36-.03,1.04-.52,.85-5.49-1.95-11.3-2.47-16.93-.84-.52,.16-.89-.59-.44-.9h0Z"/>
      <path d="M102.32,64.82c2.76-2,6.35-2.81,9.75-2.52,.49,.02,1,.11,1.36,.81,.48,.96-.97,1.68-1.57,1.43-3.09-.3-6.11,.17-9.08,1.17-.53,.2-.93-.57-.46-.89h0Z"/>
      <path class="cls-3" d="M98.88,81.53c1.31,1.21,2.48,2.61,3.1,4.28,.62,1.67,.63,3.62-.27,5.15s-2.83,2.48-4.54,1.99"/>
      <ellipse cx="81.91" cy="75.34" rx="2.03" ry="3.18"/>
      <ellipse cx="106.44" cy="74.64" rx="1.42" ry="2.23"/>
    </g>
    <g>
      <path d="M125.21,81.45c-.57,2.67-1.08,5.63-2.16,8.14-1.21,2.85-3.11,5.15-3.85,8.25-.56,2.34-.56,4.78-.71,7.19-.51,8.17-2.54,16.62-6.6,23.85-4.37,7.8-10.67,12.41-18.94,15.37-4.25,1.52-12.09,2.27-15.31-1.68-1.24-1.51-1.85-3.45-2-5.42-.01-.1-.02-.2-.02-.3-.03-.39-.04-.78-.03-1.17,.07-2.45,.72-4.84,1.36-7.21,.23-.85,.53-1.77,.97-2.57,.52-.99,1.25-1.79,2.32-2.04,.84-.2,1.72,0,2.58,.14,5.71,.94,10.5-.83,14.37-4,4.58-3.74,7.89-9.45,9.99-15.01,1.77-4.73,3.38-9.09,4.33-14.11,.93-4.92,1.59-9.9,1.97-14.89,0-.03,.01-.06,0-.09,.1-1.18,.17-2.35,.23-3.53,.16-3.06,.51-6.35,.42-9.38-.08-2.5-.86-5-1.65-7.46-.51-1.59-1.02-3.15-1.36-4.7-.81-3.67-1.8-7.02-3.81-10.24-2.04-3.28-4.75-6.15-7.92-8.35-.45-.32-4.2-2.18-6.86-3.32h-.01c-1.48-.64-2.62-1.05-2.65-.82-.04,.3-.08,.6-.14,.9-.82,4.39-3.86,8.17-7.4,10.95-2.38,1.88-5.01,3.41-7.64,4.92-1.54,.88-3.09,1.76-4.59,2.7-5.2,3.25-9.9,7.28-13.93,11.9-3.24,3.71-9.16,10-9.93,14.76-.23,1.36-.94,2.99-2.33,3.01-.99,.02-1.75-.84-2.35-1.63-1.71-2.27-3.33-4.66-5.51-6.49-.11-.1-.23-.19-.34-.28-2.13-1.69-4.84-2.79-7.5-2.34-4.23,.71-5.64,4.71-4.6,8.43,.69,2.49,2.17,4.66,4.02,6.49,.94,.95,1.97,1.81,3.05,2.57,1.7,1.21,3.59,2.33,5.25,3.63,.74,.58,1.43,1.2,2.03,1.88,.25,.27,.48,.56,.69,.85,.46,.63,.84,1.31,1.12,2.06,.62,1.65,.67,3.41,.55,5.18-.08,1.16-.22,2.34-.32,3.49-.25,2.87-.19,5.84,.19,8.77,.59,4.55,1.93,9.02,4.08,12.97,2.77,5.09,8.49,8.56,12.39,13.09,.32,.37,.63,.75,.93,1.14,6.18,8.14,7.59,19.94,2.78,29.07-5.94,11.26-20.63,17.01-32.64,12.77-.46-2.7-.86-5.74-1.87-8.31-1.27-3.26-1.47-2.44-4.89-2.42-5.09,.03-10.16-1.73-13.99-5.11-4.97-4.37-7.61-11.24-6.85-17.81,.73-6.25,4.24-11.77,6.48-17.65,7.97-20.88-.39-44.27,1.58-66.53C10.22,38.13,24.09,16.57,44.12,5.2,52.47,.46,63.29-2.42,71.41,2.72c7.06-4.35,16-2.28,22.99,2.19,6.99,4.47,11.86,11.57,15.84,18.85,3.29,6.02,5.65,12.34,8.38,18.6,3.26,7.46,7.14,15.06,7.71,23.28,.37,5.29-.01,10.63-1.12,15.81Z"/>
      <path class="cls-1" d="M56.14,12.4c-5.28,3.49-10.36,7.6-12.95,13.47-2.09,4.27-1.99,9.32-3.45,13.9-1.58,4.8-5.25,8.4-8.83,11.79-4.78,4.27-10.59,7.27-14.29,12.55-1.81,2.52-3.12,5.42-3.33,8.67-.66-3.22,.43-6.67,2.22-9.41,3.55-5.56,9.46-8.89,14.27-13.07,3.36-3.17,6.91-6.58,8.42-11.02,1-3.02,1.26-6.21,2.01-9.35,2.01-7.92,8.24-14.78,15.91-17.53h0Z"/>
      <path class="cls-1" d="M59.76,45.88c-6.04,10.21-17.08,15.93-24.59,24.77-7.58,8.31-11.82,21.3-5.17,31.41-.99-1.07-1.85-2.29-2.54-3.61-2.7-5.4-2.54-11.89-.51-17.49,3.71-9.82,12.1-16.86,19.8-23.47,4.45-3.78,8.84-7.47,13.01-11.6h0Z"/>
    </g>
    <g>
      <path d="M36.66,85.49c.61,.32,1.1,1.09,.75,1.69-.26,.44-.86,.57-1.36,.47s-.96-.36-1.45-.51-1.07-.19-1.47,.12c-.65,.51-.4,1.63,.26,2.12s1.54,.53,2.36,.55c.63,.02,1.28,.03,1.86-.23,.82-.37,1.32-1.21,1.56-2.07,.72-2.55-.67-5.11-3.42-5.3-.86-.06-1.97-.03-2.07,1.04-.15,1.58,2.03,1.63,2.98,2.12Z"/>
      <polygon class="cls-1" points="33.92 91.11 33.92 107.33 37.4 107.33 37.4 89.46 33.92 89.46 33.92 90.8 33.92 91.11"/>
    </g>
  </g>
  <path class="cls-2" d="M75.66,136.86s-.02,0-.04,0"/>
</svg>