<?xml version="1.0" encoding="UTF-8"?>
<svg id="Layer_1" data-name="Layer 1" xmlns="http://www.w3.org/2000/svg" viewBox="0 0 123.43 136.26">
  <defs>
    <style>
      .cls-1 {
        fill: #fff;
      }

      .cls-2 {
        stroke: #fff;
      }

      .cls-2, .cls-3, .cls-4 {
        fill: none;
      }

      .cls-2, .cls-4 {
        stroke-linecap: round;
        stroke-linejoin: round;
      }

      .cls-4 {
        stroke: #000;
        stroke-width: 2px;
      }
    </style>
  </defs>
  <path class="cls-1" d="M116.92,89.02c-1.43,1.35-2.64,3.19-2.54,5.21,.09,2.01,2,3.95,3.84,3.37,.16-.05,.46-.11,.62-.16-.15,.62-.46,1.06-1,1.37-2.61,1.49-6.08-.14-7.61-2.8-.49-.85-.82-1.77-1.03-2.73-.96,7.68-2.85,15.23-5.62,22.45-1.46,3.79-3.24,7.61-6.27,10.31-4.06,3.61-9.9,4.7-15.29,3.99-.73-.1-1.45-.22-2.17-.37-1.71,1.65-3.41,3.3-5.12,4.95-11.7-4.61-24.73-5.39-36.45-9.89,4.47-6.21,5.22-14.87,2.08-21.84-.08,.01-.15,.01-.22,.01-.08,0-.16,0-.24-.01,1.43,5.66-.4,12.13-4.64,15.99-.66-3.48-1.31-6.97-1.96-10.46-2.06,.36-4.12,.73-6.19,1.09-.16,.03-.32,.06-.48,.09,5.07,6.31,3.17,17.19-3.61,21.38-6.79,4.19-16.71,.85-20.02-6.62-3.31-7.47,.54-17.4,7.82-20.55,1.61-.69,3.51-1.25,4.67-2.48,.34-.35,.61-.75,.8-1.23,.84-2.11-.31-3.87-1.43-5.48-1.31-1.89-1.87-3.42-2.44-5.76-.08-.33-.16-.66-.23-.99-.11,.28-.21,.56-.31,.85-11.16,.84-13.67-15.62-10.77-23.99,.87-2.5,2.16-4.82,3.01-7.33,.78-2.33,1.17-4.77,1.46-7.22,.54-4.53,.91-8.86,2.59-13.14,1.45-3.69,3.82-6.77,6.18-9.83,1.14-1.49,2.58-3.04,3.41-4.76,.73-1.52,1.37-2.94,2.37-4.32,3.05-4.22,7.23-7.49,11.9-9.34,2.43-.96,4.98-1.29,7.42-2.14,2.98-1.03,6.01-1.88,9.04-2.73,3.63-1.01,6.82-3.01,10.62-3.61,3.08-.48,6.24-.39,9.28,.3,2.54,.57,5.09,.99,7.54,1.99,8.01,3.27,15.19,11.15,16.64,20.4-.04-.24,9.6-.48,10.47-.45,3.67,.15,7.33,.61,10.93,1.38,2.58,.55,4.4,1.92,5.59,4.55,1.19,2.64,1.16,5.84,.28,8.58-1.21,3.75-3.76,6.82-6.36,9.64-.07-.05-.13-.1-.2-.15,.68,3.78,.58,7.9,.07,11.58-.59,4.25-3.43,9.51-.56,13.47,1.36,1.88,3.68,2.65,5.77,3.55,2.09,.9,4.3,2.31,4.78,4.62,.41,1.97-.6,3.99-1.95,5.42-1.35,1.44-3.04,2.48-4.47,3.84Z"/>
  <g>
    <g>
      <g>
        <path d="M44.86,105.97c-.72-.7-1.49-1.68-2.17-2.38-.17-.2-1.44,.03-1.86,.09-3.9,.42-8.81-.8-12.14-3.58-5.58-4.31-7.06-13.1-1.48-18.1,4.35-3.99,11.2-2.49,15.12,1.28,2,1.87,3.38,4.22,4.37,6.66,.99,2.44,1.59,4.98,2.06,7.5,0,0-2.06,.2-2.06,.2-.04-4,.37-8,1.25-11.9,3.83-16.89,16.24-31.31,31.46-36.2,15.33-5.4,28.17,7,30.58,21.61,2.42,11.26,.01,31.38-5.34,44.76-1.34,3.52-2.92,7.18-5.73,10.1-8.61,8.7-23.56,5.61-32.31-1.2-.27-.23-.02-.65,.3-.57,3.72,.93,6.95,2.71,10.47,3.71,6.68,2.06,14.88,1.72,19.95-3.47,2.44-2.52,3.99-5.88,5.31-9.32,5.16-13.72,7.78-29.06,5.36-43.58,0,0-.02-.2-.02-.2-.01,.23,.11,.54,.29,.69l-.28-.52c-2.23-13.39-13.85-25.05-27.97-19.99-14.46,4.67-26.37,18.6-30.04,34.66-.86,3.74-1.26,7.57-1.22,11.4,0,.57-.45,1.05-1.03,1.05-.51,0-.94-.36-1.03-.85-.45-2.44-1.03-4.85-1.93-7.1-2.14-6.39-10.18-12.2-16.23-7.2-4.62,4.1-3.27,11.5,1.39,15.07,2.81,2.32,6.44,3.25,10.06,3.42,1.02,.06,2.07-.25,3.07,.15,.85,.35,1.13,1.29,1.6,1.92,.31,.47,.6,.94,.89,1.42,.12,.2,.05,.47-.15,.59-.19,.12-.43,.06-.57-.11h0Z"/>
        <path class="cls-4" d="M74.06,135.26c.22-.22,.45-.43,.67-.65,1.71-1.65,3.41-3.3,5.12-4.95"/>
        <path class="cls-4" d="M38.17,124.88s.08-.1,.11-.16c4.47-6.21,5.22-14.87,2.08-21.84h0"/>
        <path d="M75.24,78.89c3.62-2.35,8.43-2.75,12.51-1.33,1.36,.47,2.78,1.1,3.58,2.45,.25,.39-.14,.92-.59,.81-1.42-.26-2.45-.91-3.66-1.34-3.66-1.3-7.72-1.23-11.36,.29-.54,.25-.98-.57-.47-.88h0Z"/>
        <path d="M100.38,80.35c.38-1.95,2.2-3.2,3.88-3.99,1.78-.75,3.78-.85,5.56-.29,.26,.08,.41,.37,.33,.63-.07,.23-.3,.38-.54,.35-2.45-.28-4.85,.45-6.61,2.11-.57,.55-1.07,1.14-1.77,1.69-.36,.31-.94-.04-.85-.5h0Z"/>
        <path class="cls-4" d="M97.58,89.14c2.19,2.15,3.99,4.7,5.29,7.48,.72,1.55,1.28,3.39,.56,4.94-.58,1.25-1.9,2.03-3.25,2.32s-2.75,.14-4.12,0"/>
        <path d="M81.44,108.38c4.08,4.2,10.13,5.33,15.45,2.86,.51-.26,.98,.49,.54,.84-4.93,4.34-13.75,2.7-16.79-3.11-.28-.5,.42-1.01,.81-.59h0Z"/>
      </g>
      <ellipse cx="85.47" cy="86.57" rx="2.03" ry="3.18"/>
      <ellipse cx="103.76" cy="87.37" rx="1.39" ry="2.17"/>
    </g>
    <g>
      <path d="M116.92,89.02c-1.43,1.35-2.64,3.19-2.54,5.21,.09,2.01,2,3.95,3.84,3.37,.16-.05,.46-.11,.62-.16-.15,.62-.46,1.06-1,1.37-2.61,1.49-6.08-.14-7.61-2.8-.49-.85-.82-1.77-1.03-2.73-.45-2.03-.35-4.23-.06-6.32,.23-1.6,.55-3.18,.8-4.77,.24-1.47,.41-2.94,.39-4.43-.04-2.25-.52-4.38-1.32-6.39,0-.01-.01-.02-.01-.02-2.4-6.03-7.69-11.02-12.67-15.37-2.66-2.31-6.1-4.78-9.29-3.38-1.75,.77-2.88,2.52-3.91,4.18-4.36,7.04-8.73,14.09-13.09,21.13-2.49,4.02-5.02,8.15-6.08,12.81-1.06,4.66-.38,10.05,2.88,13.42-6.69-2.27-10.49-11.13-7.65-17.85,.75-1.77,1.9-3.42,2.15-5.34,.25-1.93-.91-4.27-2.77-4.24-1.75,.03-2.8,1.98-3.49,3.66-2.52,6.13-5.05,12.26-7.57,18.4-2.21-4.97-4.66-10.21-9.11-13.09-4.46-2.89-11.54-2.03-13.51,3.04-.07,.2-.14,.39-.2,.59-1.04,3.59,.87,7.72,3.86,9.89,.85,.62,1.76,1.11,2.72,1.49,2.6,1.04,5.53,1.29,8.34,1.19,.11,.33,.2,.66,.29,1,1.43,5.66-.4,12.13-4.64,15.99-.66-3.48-1.31-6.97-1.96-10.46-2.06,.36-4.12,.73-6.19,1.09-.16,.03-.32,.06-.48,.09,5.07,6.31,3.17,17.19-3.61,21.38-6.79,4.19-16.71,.85-20.02-6.62-3.31-7.47,.54-17.4,7.82-20.55,1.61-.69,3.51-1.25,4.67-2.48,.34-.35,.61-.75,.8-1.23,.84-2.11-.31-3.87-1.43-5.48-1.31-1.89-1.87-3.42-2.44-5.76-.08-.33-.16-.66-.23-.99-1.2-5.11-2.02-10.32-2.45-15.56-1.42-17.15,3.49-36.78,17.41-47.08,10.39-7.69,24.89-12.77,37.67-12.65,9.13,.09,18.76,4.04,23.43,12.21,.16,.28,.32,.57,.48,.86,1.14,2.09,2.29,4.34,4.43,5.04,1.95,.64,4.01-.25,6.02-.54,2.51-.36,5.12,.29,7.23,1.73,.56,.39,1.09,.83,1.57,1.32,2.64,2.7,3.6,7.16,4.67,10.7,.26,.86,.47,1.74,.63,2.65,.68,3.78,.58,7.9,.07,11.58-.59,4.25-3.43,9.51-.56,13.47,1.36,1.88,3.68,2.65,5.77,3.55,2.09,.9,4.3,2.31,4.78,4.62,.41,1.97-.6,3.99-1.95,5.42-1.35,1.44-3.04,2.48-4.47,3.84Z"/>
      <path class="cls-2" d="M15.16,101.09c3.79,2.67,7.57,5.35,11.36,8.02,.3,.21,.55,.36,.84,.58"/>
    </g>
    <g>
      <path d="M119.84,37.05c-1.21,3.75-3.76,6.82-6.36,9.64-.07-.05-.13-.1-.2-.15-4.36-3.17-8.74-6.34-13.11-9.51-6.25,4.96-12.01,9.26-18,12.86-4.6,2.76-9.34,5.12-14.53,7.02t-.02,.01s-.08,.03-.12,.04c-10.33,3.76-21.3,5.28-31.46,9.54-5.75,2.41-11.52,5.69-16.13,10.08-.02,.02-.04,.04-.06,.07-3.3,3.14-6,6.85-7.66,11.21-.11,.28-.21,.56-.31,.85-11.16,.84-13.67-15.62-10.77-23.99,.87-2.5,2.16-4.82,3.01-7.33,.78-2.33,1.17-4.77,1.46-7.22,.54-4.53,.91-8.86,2.59-13.14,1.45-3.69,3.82-6.77,6.18-9.83,1.14-1.49,2.58-3.04,3.41-4.76,.73-1.52,1.37-2.94,2.37-4.32,3.05-4.22,7.23-7.49,11.9-9.34,2.43-.96,4.98-1.29,7.42-2.14,2.98-1.03,6.01-1.88,9.04-2.73,3.63-1.01,6.82-3.01,10.62-3.61,3.08-.48,6.24-.39,9.28,.3,2.54,.57,5.09,.99,7.54,1.99,8.01,3.27,15.19,11.15,16.64,20.4-.04-.24,9.6-.48,10.47-.45,3.67,.15,7.33,.61,10.93,1.38,2.58,.55,4.4,1.92,5.59,4.55,1.19,2.64,1.16,5.84,.28,8.58Z"/>
      <g>
        <path class="cls-1" d="M15.75,81.83c1.34-4.91,5.14-8.6,9.15-11.46,16.08-11.51,37.17-10.48,53.91-20.37,4.16-2.29,8.11-4.95,11.85-7.87,3.89-2.92,7.06-6.49,11.17-9.22,3.12-2.09,7.29-3.47,11.08-2.41,1.26,.43,2.43,1.27,3,2.49-1.32-.25-2.38-.44-3.45-.58-8.6-1.3-14.09,7.09-20.44,11.49-7.73,5.89-16.43,10.51-25.62,13.64-13.6,4.66-27.9,7.08-39.76,15.28-3.93,2.75-7.1,5.92-10.88,9.01h0Z"/>
        <path class="cls-1" d="M35.04,60.5c13.7-16.39,31.36-33.3,53.77-34.87-21.34,5.58-37.14,21.34-53.77,34.87h0Z"/>
      </g>
    </g>
  </g>
  <path class="cls-3" d="M38.28,124.72c11.72,4.5,24.75,5.28,36.45,9.89"/>
</svg>