<?xml version="1.0" encoding="UTF-8"?>
<svg id="Layer_1" data-name="Layer 1" xmlns="http://www.w3.org/2000/svg" viewBox="0 0 118.38 139.76">
  <defs>
    <style>
      .cls-1 {
        fill: #fff;
      }

      .cls-2, .cls-3, .cls-4, .cls-5, .cls-6 {
        fill: none;
      }

      .cls-3 {
        stroke-width: 2.13px;
      }

      .cls-3, .cls-4, .cls-5, .cls-6 {
        stroke-linecap: round;
        stroke-linejoin: round;
      }

      .cls-3, .cls-4, .cls-6 {
        stroke: #000;
      }

      .cls-4 {
        stroke-width: 1.94px;
      }

      .cls-5 {
        stroke: #fff;
        stroke-width: 2.06px;
      }

      .cls-6 {
        stroke-width: 2px;
      }
    </style>
  </defs>
  <path class="cls-1" d="M118.17,23.23c-.81,5.34-3.6,10.16-6.82,14.46-3.22,4.29-6.92,8.2-9.96,12.63l-.41-.06c-.84-2.02-1.73-4.09-2.76-6.05,1.42,2.92,2.6,5.96,3.55,9.05,.11,.37,.23,.75,.33,1.12,.89,3.11,1.54,6.28,2.03,9.48,0,0,0,.02,0,.02,1.01,6.73,1.22,13.61,.9,20.42-.27,5.57-.9,11.23-2.42,16.57,.22,.41,.38,.88,.46,1.42,.71,4.51-2.81,10.85-5.32,14.39-2.97,4.19-7.01,7.63-11.67,9.81-4.1,1.92-8.65,2.84-13.17,2.75-4.7-.08-8.6-.65-12.75-1.93-3.3,3.16-5.9,7.06-7.51,11.35-6.3,.15-12.63-.16-18.8-1.08-4.32-.64-8.65-2.39-12.72-3.92-4.23-1.6-8.38-3.4-12.49-5.28-2.49-1.15-4.99-2.34-7.31-3.78,8.22-9.49,11.83-22.72,9.93-35.11-1.69-1.92-3.04-4.13-3.82-6.57-1.38-4.34-.7-9.47,2.38-12.82,.65-.71,1.42-1.32,2.26-1.81-.62,.13-1.22,.33-1.78,.64-1.37,.75-2.46,2.03-2.75,3.58-2.78-8.92-5.59-18.12-4.93-27.46,.67-9.35,5.65-19,14.25-22.27-2.28-2.81-1.51-7.24,.77-10.05,2.28-2.8,5.68-4.35,8.98-5.75C34.39,3.7,42.44,.73,50.84,.11c8.4-.61,17.28,1.39,23.61,7.05,8.36-1.76,16.91-2.53,25.44-2.31,4.73,.12,9.76,.68,13.45,3.7,4.12,3.39,5.63,9.34,4.83,14.68Z"/>
  <g>
    <g>
      <g>
        <g>
          <path d="M28.21,92.6c-.6,2.77-3.53,4.37-6.22,4.32-5.2-.31-9.38-4.14-12.54-7.97-4.85-5.91-5.47-16.02,1.14-20.96,4.35-3.31,10.96-2.86,14.42,1.49,0,0-.8-.35-.8-.35,.32,0,.61,.13,.81,.35,.93,1.01,1.77,2.03,2.64,2.91,2.77,3.11,6.12,2.3,7.84-1.28,1.07-2.1,1.28-4.77,2.21-7.46,1.67-5.56,8-7.73,12.2-10.6,2.84-2.09,5.39-5.3,3.81-8.72-1.08-2.27-3.23-3.91-4.77-6.05-3.23-3.97-1.46-9.39,2.8-11.78,2.55-1.51,5.41-1.95,7.98-2.37,7.7-1.24,16.74-3.53,24.12,.73,6.71,4.23,12.58,12.86,15.42,18.85,7.23,15.03,8.02,32.08,6.22,48.36-1.73,17.36-11.97,32.23-29.67,35.98-10.87,2.26-22.97-.87-30.77-8.9-.4-.42,.18-1.03,.62-.68,8.33,6.51,19.33,9.73,29.73,7.54,16.77-3.6,26.33-17.73,27.91-34.21,1.73-15.78,.9-32.64-6.12-47.07-2.9-5.97-8.23-13.73-14.53-17.81-6.9-3.82-14.97-1.62-22.53-.46-4.5,.52-10.57,2.25-10.53,7.45,.11,2.13,1.96,3.98,3.75,5.96,1.95,2.05,3.76,5.08,3,8.1-.65,2.98-2.77,5.2-5.09,6.92-4.18,3-9.72,4.39-11.43,9.51-1.16,3.5-1.49,8.71-5.24,11.15-4.68,3.07-8.43-1.32-11.17-4.58,0,0,.8,.35,.8,.35-.32,0-.61-.14-.81-.35-.77-.83-1.6-1.61-2.48-2.09-2.82-1.55-6.5-1.02-9.06,.86-3.58,2.61-4.68,7.7-3.67,11.9,1.04,4.38,4.17,8.11,7.89,10.82,1.86,1.36,3.86,2.51,5.99,2.7,2.02,.16,4.37-.85,5.13-2.84,.23-.61,1.14-.34,1.01,.28h0Z"/>
          <path class="cls-6" d="M1,124.99c.11-.12,.22-.25,.33-.38,8.22-9.49,11.83-22.72,9.93-35.11"/>
          <path class="cls-6" d="M60.74,126.78c-.19,.18-.39,.36-.58,.54-3.3,3.16-5.9,7.06-7.51,11.35l-.03,.09"/>
          <path class="cls-6" d="M89.27,72.38l5.01,9.53c1.25,2.37,2.53,5.08,1.71,7.63-.67,2.11-2.68,3.57-4.81,4.18s-4.38,.51-6.59,.41"/>
          <path d="M68.76,57.43c4-2.94,10.2-2.6,13.9,.68,.43,.37-.04,1.08-.55,.84-4.16-1.84-8.58-2.01-12.9-.63-.53,.19-.92-.57-.46-.89h0Z"/>
          <path d="M92.17,58.48c2.04-2.31,4.88-3.95,7.89-4.69,1.06-.17,2.09-.72,3.12-.02,.29,.21,.36,.61,.15,.9-.41,.5-.96,.67-1.45,.71-3.28,.49-6.35,1.85-9.03,3.84-.46,.37-1.08-.3-.68-.73h0Z"/>
        </g>
        <path d="M78.46,104.79c4.12,1.8,7.9,2.8,12.29,1.22,.55-.17,.9,.64,.4,.92-1.98,1.23-4.47,1.88-6.82,1.49-2.39-.38-4.48-1.48-6.34-2.75-.49-.32-.06-1.12,.48-.88h0Z"/>
      </g>
      <ellipse cx="76.51" cy="69.67" rx="2.03" ry="3.18"/>
      <ellipse cx="96.24" cy="68.03" rx="1.39" ry="2.19"/>
    </g>
    <g>
      <path class="cls-4" d="M70.12,62.83h13.01c2.06,0,3.74,1.68,3.74,3.74v2.06c0,5.46-4.43,9.9-9.9,9.9h-.7c-5.46,0-9.9-4.43-9.9-9.9v-2.06c0-2.06,1.68-3.74,3.74-3.74Z"/>
      <path class="cls-3" d="M94,62.28h8.18c1.1,0,1.99,.89,1.99,1.99v4.62c0,4.32-3.51,7.83-7.83,7.83h-.12c-2.97,0-5.38-2.41-5.38-5.38v-5.9c0-1.74,1.41-3.16,3.16-3.16Z"/>
      <line class="cls-4" x1="24.2" y1="70.22" x2="66.98" y2="64.53"/>
      <line class="cls-4" x1="86.87" y1="66.57" x2="90.85" y2="66.57"/>
    </g>
    <g>
      <path d="M118.17,23.23c-.81,5.34-3.6,10.16-6.82,14.46-3.22,4.29-6.92,8.2-9.96,12.63l-.41-.06c-.84-2.02-1.73-4.09-2.76-6.05-.01-.03-.02-.06-.04-.09-1.99-3.78-4.5-7.17-8.21-9.04-4.42-2.24-9.65-1.81-14.51-.97-7.81,1.34-15.45,3.63-22.75,6.77-3.45,1.48-6.83,3.16-10.11,5.01-.51,.3-1.03,.59-1.54,.89-4.71,2.73-9.28,5.72-13.45,9.23-2.08,1.74-4.05,3.61-5.86,5.63-.91,1.01-1.77,2.05-2.59,3.13-.45,.6-.91,1.48-1.49,2.12-.26,.29-.55,.53-.87,.67-.41,.17-.86,.23-1.3,.29-1.11,.15-2.3,.2-3.42,.45-.62,.13-1.22,.33-1.78,.64-1.37,.75-2.46,2.03-2.75,3.58-2.78-8.92-5.59-18.12-4.93-27.46,.67-9.35,5.65-19,14.25-22.27-2.28-2.81-1.51-7.24,.77-10.05,2.28-2.8,5.68-4.35,8.98-5.75C34.39,3.7,42.44,.73,50.84,.11c8.4-.61,17.28,1.39,23.61,7.05,8.36-1.76,16.91-2.53,25.44-2.31,4.73,.12,9.76,.68,13.45,3.7,4.12,3.39,5.63,9.34,4.83,14.68Z"/>
      <path class="cls-5" d="M17.61,64.91c6.52-12.31,13.11-24.73,22.17-35.35,9.06-10.62,20.93-19.44,34.67-22.41"/>
    </g>
    <path d="M103.07,102.3c-.08-.54-.24-1.01-.46-1.42-.56-1.06-1.52-1.69-2.66-2.07-2.07-.7-4.74-.56-6.64-.65-4.94-.25-9.88-.49-14.82-.73-9.38-.47-19.96,3.08-28.07,7.68-3.77,2.15-7.55,8.58-5.95,12.88,1.6,4.29,8.18,6.56,12.06,8.07,1.25,.48,2.45,.9,3.63,1.26,4.15,1.28,8.05,1.85,12.75,1.93,4.52,.09,9.07-.83,13.17-2.75,4.66-2.18,8.7-5.62,11.67-9.81,2.51-3.54,6.03-9.88,5.32-14.39Zm-31.48,1.44c.14-.55,.82-.75,1.39-.83,6.57-1.03,14.17-2.01,20.23,1.35,1.13,.63,2.29,1.56,2.35,2.84,.04,.86-.47,1.68-1.15,2.21-.69,.53-1.53,.82-2.36,1.04-6.94,1.83-14.77-.27-19.86-5.33-.35-.35-.72-.8-.6-1.28Z"/>
  </g>
  <path class="cls-2" d="M1.33,124.61c2.32,1.44,4.82,2.63,7.31,3.78,4.11,1.88,8.26,3.68,12.49,5.28,4.07,1.53,8.4,3.28,12.72,3.92,6.17,.92,12.5,1.23,18.8,1.08"/>
</svg>