<?xml version="1.0" encoding="UTF-8"?>
<svg id="Layer_1" data-name="Layer 1" xmlns="http://www.w3.org/2000/svg" viewBox="0 0 125.13 167.96">
  <defs>
    <style>
      .cls-1 {
        fill: #fff;
      }

      .cls-2 {
        stroke-miterlimit: 10;
        stroke-width: 2.21px;
      }

      .cls-2, .cls-3, .cls-4, .cls-5 {
        fill: none;
      }

      .cls-2, .cls-3, .cls-5 {
        stroke: #000;
      }

      .cls-3, .cls-5 {
        stroke-linecap: round;
        stroke-linejoin: round;
      }

      .cls-5 {
        stroke-width: 2px;
      }
    </style>
  </defs>
  <path class="cls-1" d="M123.91,92.5c-.52,4.08-2.59,7.4-5.14,8.7,.03,1.84,.05,3.69,.06,5.53h0c.59,.61,1.14,1.28,1.26,2.09,.11,.79-.21,1.6-.73,2.21-.16,.19-.34,.36-.54,.51-.03,5.34-.18,10.68-.44,16.02-.14,2.69-.34,5.47-.88,8.13-.73,3.61-2.06,7-4.64,9.58-.6,.6-1.24,1.13-1.93,1.61-3.08,2.14-6.92,3.15-10.67,3.77-3.68,.62-7.41,.94-11.14,.98-3.75,4.48-6.99,9.37-9.65,14.57-7.91-.09-15.92-.82-23.6-2.52-4.26-.94-8.46-2.97-12.41-4.79-4.11-1.88-8.14-3.96-12.11-6.12-3.54-1.93-7.09-3.96-10.05-6.71-.78-.72-1.51-1.5-2.19-2.33,4.12-4.42,6.87-10.11,7.77-16.08,.77-5.11,.19-10.42-1.65-15.26-1.38-.23-2.73-.7-3.95-1.39-3.49-1.99-5.89-5.73-6.43-9.72-.54-3.96,.71-8.09,3.2-11.22-1.87-.95-3.33-3.26-3.12-5.71-2.72,1.21-6.12-.52-7.26-3.68-1.15-3.17,.14-7.28,2.75-8.78-5.01-.86-9.34-5.8-10.24-11.72-.9-5.91,1.69-12.34,6.13-15.23-1.88-4.38-.97-10.19,2.11-13.48,3.07-3.29,8.04-3.76,11.52-1.09,.65-6.24,3.82-12.05,8.36-15.3s10.36-3.87,15.31-1.64C46.78,5.34,54.48,.84,61.97,.13c7.5-.71,14.92,1.71,22.17,4.11,5.45,1.81,10.99,3.66,15.82,7.18,4.82,3.52,8.93,9,9.95,15.61,2.59-.58,5.42,1.04,6.66,3.8,1.23,2.77,.77,6.46-1.08,8.68,2.61,.19,5.04,2.32,5.97,5.22,.94,2.9,.31,6.41-1.53,8.61,2.19,5.06-.08,12.1-4.55,14.13-.52,.23-1.06,.4-1.6,.48,.75,1.7,1.39,3.44,1.91,5.21,.4,1.36,.75,2.73,1.05,4.11,.3,1.4,.56,2.8,.77,4.21,.28-.01,.56-.01,.85,.03,3.77,.48,6.25,5.39,5.55,10.99Z"/>
  <g>
    <g>
      <path class="cls-5" d="M89.12,151.63c-3.75,4.48-6.99,9.37-9.65,14.57-.14,.25-.27,.5-.4,.76"/>
      <path d="M98.76,124.28c3.67,1.33,7.3,1.8,11.19,1.94,.55,.01,.65,.84,.13,.99-1.96,.65-4.09,.67-6.12,.3-2.03-.37-4-1.14-5.66-2.34-.23-.16-.28-.48-.11-.71,.13-.18,.37-.25,.58-.18h0Z"/>
      <path d="M88.92,75.34c3.94-1.02,8.42-.26,11.73,2.12,.45,.33,.55,.96,.22,1.41-.28,.38-.76,.5-1.18,.34-1.71-.63-3.4-1.16-5.15-1.48-1.75-.33-3.53-.43-5.35-.42-1.16,.02-1.39-1.69-.27-1.98h0Z"/>
      <path d="M111.49,76.75c1.52-.59,3.17-.85,4.8-.83,.54,.01,1.11-.05,1.6,.42,.6,.55,.49,1.56-.2,1.99-.52,.37-.97,.25-1.45,.24-1.45-.04-2.86,.02-4.32,.13-1.13,.09-1.49-1.55-.44-1.95h0Z"/>
      <path class="cls-5" d="M109.4,113.7c2.72,.41,5.57-.04,8.04-1.28,.49-.24,.96-.52,1.38-.88,.2-.15,.38-.32,.54-.51,.52-.61,.84-1.42,.73-2.21-.12-.81-.67-1.48-1.26-2.08h0c-.1-.12-.21-.22-.31-.32-2.3-2.24-4.6-4.49-6.89-6.74"/>
      <path d="M119.21,111.54c.68,28.02,1.5,41.07-31.33,41.2-6.92-.03-13.83-1.12-20.45-3.12-.53-.16-.83-.72-.67-1.25,.16-.53,.71-.82,1.24-.67,6.46,1.88,13.18,2.78,19.89,2.83,33.02-.38,28.24-12.25,30.53-38.99,.01-.47,.78-.5,.79,0h0Z"/>
      <path d="M33.33,112.02c-9.67,5.22-20.57-3.27-19.62-13.78,.66-9.82,10.55-17.03,18.97-13.87,8.19,2.56,13.25,10.67,15.11,18.64,.37,1.31,.1,2.61,1.05,3.17,1.82,1.07,3.75,.31,4.89-1.39,2.1-3.03,.9-7.13,.8-10.73-.32-5.98-.02-12.1,1.72-17.89,1.93-5.57,4.04-11.13,6.11-16.64,.71-1.85,2.44-6.31,2.86-8.26,.71-2.53,1.75-4.48,4.87-4.47,7.01-.11,13.89-.52,20.8,1.06,17.72,3.53,25.89,18.45,27.85,35.26,.82,7.87,1.35,15.75,.41,23.63-.08,.37-.57,.38-.64,0-1.13-7.74-.68-15.65-1.75-23.38-1.91-15.87-9.49-30.14-26.33-33.39-6.56-1.49-13.55-1.06-20.23-.94-2.18,0-2.21,1.15-2.82,2.88-.37,1.81-2.18,6.58-2.88,8.42-.78,2.1-4.42,11.92-5.1,13.78-2.5,6.28-2.94,13.1-2.58,19.81,.12,2.91,.8,6.08,.13,9.11-.77,4.13-5.21,7.6-9.27,5.14-1.73-.83-1.85-3.09-2.14-4.69-1.53-7.53-7-14.53-12.87-16.85-11.43-4.15-21.32,9.83-14.83,19.7,2.93,4.79,9.6,6.69,14.5,3.94,1.17-.63,2.1,1.09,.98,1.75h0Z"/>
      <path d="M17.99,144.01c-.05-.55,.31-.69,.52-.97,7.38-8.01,9.65-20.13,5.78-30.3-.44-1.22,1.38-1.94,1.87-.71,4.17,10.47,1.91,23.01-5.58,31.41,0,0-.75,.83-.75,.83-.28,.25-.43,.62-.98,.59-.46-.03-.82-.4-.85-.85h0Z"/>
      <ellipse cx="95.41" cy="91.7" rx="2.03" ry="3.18"/>
      <ellipse cx="114.38" cy="91.7" rx="1.63" ry="2.56"/>
    </g>
    <path d="M119.93,53.34c2.19,5.06-.08,12.1-4.55,14.13-.52,.23-1.06,.4-1.6,.48-4.13,.73-8.67-2.52-9.75-7.38-1.92,3.2-5.31,5.08-8.61,4.79-3.31-.3-6.42-2.76-7.92-6.26-2.33,2.95-5.83,4.54-9.23,4.19-4.21-.45-6.42-3.01-8.51-6.98-1.37,2.7-3.85,5.54-6.24,6.98-.54,.33-1.09,.61-1.67,.84-1.23,.52-2.54,.79-3.85,.8-4.86,.02-9.58-3.69-11.47-9.01-.58,3.7-1.17,7.44-2.55,10.82s-3.66,6.42-6.67,7.6c-2.76,1.09-6.14,.27-7.97-2.34,1.07,2.01,1.09,4.78-.02,6.77-1.25,2.25-3.83,3.33-5.99,2.5,.84,1.17,1.11,2.74,.92,4.24-.24,2.14-1.4,4.17-3.16,4.81-1.01,.37-2.08,.23-3.04-.26-1.87-.95-3.33-3.26-3.12-5.71-2.72,1.21-6.12-.52-7.26-3.68-1.15-3.17,.14-7.28,2.75-8.78-5.01-.86-9.34-5.8-10.24-11.72-.9-5.91,1.69-12.34,6.13-15.23-1.88-4.38-.97-10.19,2.11-13.48,3.07-3.29,8.04-3.76,11.52-1.09,.65-6.24,3.82-12.05,8.36-15.3s10.36-3.87,15.31-1.64C46.78,5.34,54.48,.84,61.97,.13c7.5-.71,14.92,1.71,22.17,4.11,5.45,1.81,10.99,3.66,15.82,7.18,4.82,3.52,8.93,9,9.95,15.61,2.59-.58,5.42,1.04,6.66,3.8,1.23,2.77,.77,6.46-1.08,8.68,2.61,.19,5.04,2.32,5.97,5.22,.94,2.9,.31,6.41-1.53,8.61Z"/>
    <g>
      <ellipse class="cls-2" cx="95.41" cy="91.7" rx="11.59" ry="8.42" transform="translate(-7.48 174.92) rotate(-82.83)"/>
      <path class="cls-2" d="M123.91,92.5c-.52,4.08-2.59,7.4-5.14,8.7-.94,.48-1.94,.69-2.96,.56-3.77-.47-6.25-5.39-5.55-10.98,.2-1.61,.65-3.09,1.26-4.39,1.38-2.86,3.61-4.78,5.99-4.91,.28-.01,.56-.01,.85,.03,3.77,.48,6.25,5.39,5.55,10.99Z"/>
      <line class="cls-2" x1="32.66" y1="85.5" x2="88.22" y2="86.39"/>
      <line class="cls-2" x1="103.22" y1="86.39" x2="111.54" y2="86.39"/>
    </g>
    <g>
      <path d="M102.59,119.42c-3.12-.11-6.34,.84-9.05,2.64-.3,.21-.64-.25-.36-.48,2.56-2.2,5.85-3.67,9.35-3.99,.51-.05,.96,.32,1.01,.83,.05,.54-.4,1.02-.94,1h0Z"/>
      <path d="M107.18,117.63c3.28,.47,6.26,2.11,8.44,4.38,.09,.09,.09,.24,0,.33-.09,.08-.22,.09-.31,.02-2.41-1.89-5.36-2.96-8.26-2.97-1.25-.04-1.1-1.92,.14-1.76h0Z"/>
      <g>
        <path class="cls-3" d="M94.39,141.6c-1.58,2.56-3.16,5.12-4.74,7.67"/>
        <path class="cls-3" d="M98.37,140.51l-1.14,5.62"/>
        <path class="cls-3" d="M101.18,141.66l.22,3.27"/>
        <path class="cls-3" d="M104.12,140.98c.31,1.56,.63,3.12,.94,4.67"/>
        <path class="cls-3" d="M106.6,141.36c1.61,2.05,3.21,4.1,4.82,6.15"/>
        <path class="cls-3" d="M81.29,141.68l-1.4,3.04"/>
        <path class="cls-3" d="M88.25,143.3l-1.17,3.04"/>
        <path class="cls-3" d="M85.01,142.61l-1.39,2.34"/>
        <path class="cls-3" d="M109.54,138.31l2.47,3.89"/>
        <path class="cls-3" d="M113.33,136.47l2.09,1.89"/>
        <path class="cls-3" d="M115.66,133.68l2.79,3.05"/>
      </g>
    </g>
  </g>
  <path class="cls-4" d="M19.11,143.73c.68,.83,1.41,1.61,2.19,2.33,2.96,2.75,6.51,4.78,10.05,6.71,3.97,2.16,8,4.24,12.11,6.12,3.95,1.82,8.15,3.85,12.41,4.79,7.68,1.7,15.69,2.43,23.6,2.52"/>
</svg>