<?xml version="1.0" encoding="UTF-8"?>
<svg id="Layer_1" data-name="Layer 1" xmlns="http://www.w3.org/2000/svg" viewBox="0 0 105.79 151.56">
  <defs>
    <style>
      .cls-1 {
        fill: #fff;
      }

      .cls-2 {
        stroke-width: 2.07px;
      }

      .cls-2, .cls-3, .cls-4, .cls-5 {
        fill: none;
      }

      .cls-2, .cls-3, .cls-5 {
        stroke: #000;
        stroke-linecap: round;
        stroke-linejoin: round;
      }

      .cls-3 {
        stroke-width: 2.27px;
      }

      .cls-5 {
        stroke-width: 2px;
      }
    </style>
  </defs>
  <path class="cls-1" d="M100.96,94.87c-1.81,4.77-4.55,9.58-9.14,11.83-1.16,.57-2.4,.95-3.67,1.16,.31,.1,.57,.29,.74,.65,.48,.98,.05,2.86,.13,3.95,.4,5.07,2.05,10.03,4.79,14.22-1.69,.36-3.39-.53-4.64-1.73-1.26-1.21-2.2-2.72-3.4-3.98-.55-.59-1.18-1.13-1.93-1.39-.75-.26-1.65-.19-2.25,.36-.66,.59-.83,1.62-.65,2.5,.19,.88,.67,1.66,1.14,2.41,2.69,4.29,5.38,8.58,8.07,12.88,.31,.49,.63,1.11,.39,1.65-.33,.72-1.32,.66-2.05,.45-4.82-1.37-9.24-4.21-12.58-8.06-.56-.62-1.07-1.27-1.55-1.95-7.74,.27-15.53-1.01-22.79-3.74,.05,.95,.15,1.9,.31,2.84,.71,4.09,2.97,8.2,6.7,9.66-.98-.38-2.63,.05-3.73-.2-1-.21-1.47-.55-2.28-1.11-1.87-1.3-3.8-2.54-5.53-4.07-3.65-3.2-6.61-7.27-8.53-11.83-.82-1.94-3.18-4.01-3.33-.63-.23,5.43,3.02,11.15,5.91,15.44,3.3,4.91,7.62,9.09,12.63,12.04,1.78,1.05,.77,2.15-.59,2.56-1.69,.51-3.64,.59-5.39,.7-3.62,.23-7.26,0-10.83-.67-7.13-1.34-13.98-4.45-19.69-9.12C6.87,133.25,.39,119.84,.02,106.13c-.27-10.03,2.5-19.74,4.62-29.41,1.04-4.79,1.81-9.03,1.73-13.98-.09-5.27-.56-10.53-.76-15.8-.3-7.88,.03-15.98,2.98-23.24C13.26,12.2,24.17,4.3,35.8,1.45c11.64-2.85,23.92-1.18,35.39,2.34,8.81,2.72,17.57,6.69,23.92,13.64,4.69,5.13,7.86,12.14,7.9,19.31,0,2.7-.2,7.92-4.02,5.72-.2-.12-.39-.25-.58-.39,.16,.4,.32,.8,.47,1.21,.35,.91,.69,1.82,1.01,2.74h.88c1.1,0,1.99,.89,1.99,1.98v5.62c0,.54-.05,1.06-.16,1.57h0c.64,2.66,1.15,5.33,1.52,8.03,1.44,10.61,.62,21.63-3.16,31.65Z"/>
  <g>
    <g>
      <path class="cls-5" d="M76.66,132.82c-3.32-4.28-4.67-10.04-3.6-15.36,.81-3.97,2.96-7.65,5.98-10.36"/>
      <g>
        <path d="M42.83,101.29c-3.8-5.99-7.21-15.68-10.2-22.18,0,0,.75,.62,.75,.62-5.35-1.04-10.77-5.05-11.4-10.82-.91-6.24,4.04-11.9,10.52-10.26,1.63,.4,3.21,1.4,4.18,2.9l-1.94,.49c.89-12.37,6.4-24.16,14.81-33.21,6.45-7.33,15.19-14.3,25.48-14.11,13.46,1.24,19.39,15.42,24.05,26.26,6.17,15.21,8.87,31.94,4.72,48.45-1.54,5.65-3.52,11.44-7.9,15.63-7.84,7.13-17.9,3.09-25.52-1.28-.23-.13-.05-.47,.18-.37,5.83,2.32,10.66,4.53,16.92,3.69,8.73-1.27,12.19-10.69,14.26-18.2,2.89-10.9,2.55-22.52-.13-33.45-1.9-8.2-6.05-18.58-10.74-26.61-3.92-6.89-10.97-13.36-19.34-11.74-5.81,1.01-10.97,4.12-15.34,8.09-10.6,9.52-18.39,22.59-19.35,37.02-.02,1-1.45,1.33-1.94,.49-1.27-2.04-4.31-2.7-6.69-1.87-3.82,1.18-5.07,6.22-3.73,9.77,1.44,3.87,5.33,6.31,9.29,7.14,.34,.07,.61,.3,.74,.6v.02c1.65,3.93,5.63,12.98,7.1,16.83,.71,1.9,1.38,3.83,1.87,5.83,.12,.37-.46,.63-.65,.28h0Z"/>
        <path d="M75.76,84.72c5.7,2.19,11.95,2.64,17.91,1.35,.59-.13,.85,.75,.28,.96-4.51,1.67-9.57,1.72-14.18,.42-1.54-.44-3.04-1.04-4.43-1.82-.24-.14-.33-.44-.19-.68,.12-.22,.39-.31,.61-.23h0Z"/>
        <path d="M58.78,44.61c5.24-4.45,13.4-5.36,19.5-2.19,.49,.25,.23,1.04-.31,.95-6.36-.94-12.69-.23-18.67,2.1-.51,.21-.93-.51-.51-.86h0Z"/>
        <path d="M88.34,43.61c2.37-1.44,5.27-2.01,8.04-1.77,.92,.09,1.91,.12,2.64,.95,.28,.31,.14,.84-.26,.97-.97,.38-1.72,.09-2.56,.02-.82-.08-1.65-.12-2.48-.08-1.66,.06-3.32,.33-4.96,.82-.55,.19-.91-.63-.41-.91h0Z"/>
        <path class="cls-5" d="M86.94,55.02c.88,4.25,3.1,8.21,6.26,11.18,.66,.61,1.41,1.31,1.41,2.2,0,.56-.3,1.07-.62,1.53-1.47,2.08-3.6,3.69-6.01,4.52"/>
      </g>
    </g>
    <g>
      <path class="cls-2" d="M66.09,46.6h14.43c2.06,0,3.74,1.68,3.74,3.74v3.15c0,5.46-4.43,9.9-9.9,9.9h-2.12c-5.46,0-9.9-4.43-9.9-9.9v-3.15c0-2.06,1.68-3.74,3.74-3.74Z"/>
      <path class="cls-3" d="M102.76,48v5.62c0,.54-.05,1.06-.16,1.57h0c-.73,3.58-3.89,6.26-7.67,6.26h-1.04c-2.97,0-5.38-2.41-5.38-5.38v-6.9c0-1.74,1.42-3.15,3.16-3.15h9.1c1.1,0,1.99,.89,1.99,1.98Z"/>
      <line class="cls-2" x1="30.14" y1="41.69" x2="63" y2="48.42"/>
      <line class="cls-2" x1="84.26" y1="50.6" x2="88.51" y2="50.6"/>
    </g>
    <g>
      <g>
        <path d="M103.01,36.74c0,2.7-.2,7.92-4.02,5.72-.2-.12-.39-.25-.58-.39-2.55-1.87-3.91-5.61-5.39-8.28-2.38-4.29-5.93-7.94-10.28-9.91-4.35-1.97-9.52-2.14-13.8,0-6.28,3.15-9.56,10.34-12.46,16.97-.83,1.92-1.69,3.84-2.68,5.7-1.15,2.21-2.47,4.32-4.09,6.2-3.05,3.56-6.89,4.42-10.77,6.72-1.04,.62-2.01,1.02-3.01,1.19-.46,.09-.92,.12-1.41,.09-.54-.02-1.11-.11-1.72-.26-.35-.09-.7-.18-1.05-.24-1.66-.33-3.22-.35-4.88,.46-2.37,1.16-3.64,3.47-3.89,5.95-.05,.47-.06,.95-.04,1.43,.01,.16,.03,.33,.04,.49,.02,.16,.04,.32,.06,.48,.33,2.1,1.36,4.11,3.03,5.43,.7,.55,1.47,1.01,2.27,1.42,1.35,.72,2.77,1.33,4.04,2.16,.26,.18,.52,.36,.76,.56,.22,.16,.43,.34,.63,.54,.14,.13,.28,.27,.41,.41,1.3,1.44,1.98,3.31,2.62,5.13,1.43,4.01,2.52,8.2,5.26,11.53,2.35,2.85,5.53,4.95,7.46,8.15,2.13,3.52,2.44,7.9,2.3,12.06-.11,3.21-.44,6.45-.25,9.63,.05,.95,.15,1.9,.31,2.84,.71,4.09,2.97,8.2,6.7,9.66-.98-.38-2.63,.05-3.73-.2-1-.21-1.47-.55-2.28-1.11-1.87-1.3-3.8-2.54-5.53-4.07-3.65-3.2-6.61-7.27-8.53-11.83-.82-1.94-3.18-4.01-3.33-.63-.23,5.43,3.02,11.15,5.91,15.44,3.3,4.91,7.62,9.09,12.63,12.04,1.78,1.05,.77,2.15-.59,2.56-1.69,.51-3.64,.59-5.39,.7-3.62,.23-7.26,0-10.83-.67-7.13-1.34-13.98-4.45-19.69-9.12C6.87,133.25,.39,119.84,.02,106.13c-.27-10.03,2.5-19.74,4.62-29.41,1.04-4.79,1.81-9.03,1.73-13.98-.09-5.27-.56-10.53-.76-15.8-.3-7.88,.03-15.98,2.98-23.24C13.26,12.2,24.17,4.3,35.8,1.45c11.64-2.85,23.92-1.18,35.39,2.34,8.81,2.72,17.57,6.69,23.92,13.64,4.69,5.13,7.86,12.14,7.9,19.31Z"/>
        <path d="M81.59,119.94c-.66,.59-.83,1.62-.65,2.5,.19,.88,.67,1.66,1.14,2.41,2.69,4.29,5.38,8.58,8.07,12.88,.31,.49,.63,1.11,.39,1.65-.33,.72-1.32,.66-2.05,.45-4.82-1.37-9.24-4.21-12.58-8.06-.56-.62-1.07-1.27-1.55-1.95-.03-.04-.06-.08-.09-.12-3.48-4.9-5.32-11.06-5.15-17.19,.05-1.49,.21-3,.78-4.38,.44-1.08,1.66-3.03,2.96-3.1,.65-.04,1.72,.71,2.35,.94,.9,.33,1.82,.62,2.74,.87,.36,.1,.72,.18,1.08,.27,.03,0,.07,.01,.1,.02,2.26,.51,4.57,.76,6.89,.76,.69,0,1.5-.21,2.13-.03,.31,.1,.57,.29,.74,.65,.48,.98,.05,2.86,.13,3.95,.4,5.07,2.05,10.03,4.79,14.22-1.69,.36-3.39-.53-4.64-1.73-1.26-1.21-2.2-2.72-3.4-3.98-.55-.59-1.18-1.13-1.93-1.39-.75-.26-1.65-.19-2.25,.36Z"/>
      </g>
      <g>
        <path class="cls-1" d="M80.07,13.29c-10.88-1.41-21.16,4.55-26.19,14.05-5.1,8.71-9.94,21.71-21.73,22.55,5.35-1.06,9.4-5,12.3-9.39,4.4-6.65,6.92-14.93,12.73-20.79,5.8-5.92,14.96-8.66,22.89-6.41h0Z"/>
        <path class="cls-1" d="M53.5,6.82c-3.76,1.05-7.03,3.21-9.45,6.04-4.99,5.88-5.04,14.62-9.72,20.83-2.22,3.28-5.05,6.15-8.33,8.26,5.62-5.44,9.27-12.12,11.34-19.62,2.13-7.91,7.51-14.88,16.16-15.51h0Z"/>
        <path class="cls-1" d="M38.16,58.41c-8.65,2.32-15.89,8.45-19.38,16.68-1.18,2.7-2,5.57-2.51,8.58-1.3-12.45,9.18-25.15,21.9-25.26h0Z"/>
      </g>
    </g>
    <g>
      <ellipse cx="74.72" cy="53.77" rx="2.03" ry="3.18"/>
      <ellipse cx="95.06" cy="53.73" rx="1.39" ry="2.19"/>
    </g>
    <g>
      <path d="M30.75,74.34c.61,.32,1.1,1.09,.75,1.69-.26,.44-.86,.57-1.36,.47s-.96-.36-1.45-.51-1.07-.19-1.47,.12c-.65,.51-.4,1.63,.26,2.12s1.54,.53,2.36,.55c.63,.02,1.28,.03,1.86-.23,.82-.37,1.32-1.21,1.56-2.07,.72-2.55-.67-5.11-3.42-5.3-.86-.06-1.97-.03-2.07,1.04-.15,1.58,2.03,1.63,2.98,2.12Z"/>
      <polygon class="cls-1" points="28.02 79.96 28.02 96.18 31.49 96.18 31.49 78.31 28.02 78.31 28.02 79.65 28.02 79.96"/>
    </g>
  </g>
  <path class="cls-4" d="M51.57,126.08c7.26,2.73,15.05,4.01,22.79,3.74"/>
</svg>